<?xml version="1.0" encoding="UTF-8"?>
<!-- Created with Inkscape (http://www.inkscape.org/) -->
<svg width="880" height="152" version="1.1" viewBox="0 0 232.83 40.217" xml:space="preserve" xmlns="http://www.w3.org/2000/svg"><defs><clipPath id="clip0_2_1557"><rect width="1024" height="1024" fill="#fff"/></clipPath><clipPath id="clip0_2_2208"><rect width="1024" height="1024" fill="#fff"/></clipPath><clipPath id="clip0_2_2118"><rect width="1024" height="1024" fill="#fff"/></clipPath><clipPath id="clip0_2_2064"><rect width="1024" height="1024" fill="#fff"/></clipPath><clipPath id="clip0_3_506"><rect width="1024" height="1024" fill="#fff"/></clipPath><clipPath id="clip0_2_3561"><rect width="1024" height="1024" fill="#fff"/></clipPath></defs><g fill="none"><g transform="matrix(.033203 0 0 .033203 6.173 3.0298)"><g clip-path="url(#clip0_2_1557)"><path d="m512 1024c282.77 0 512-229.23 512-512s-229.23-512-512-512-512 229.23-512 512 229.23 512 512 512z" fill="#ff837d"/><path d="m450.77 205.55s85.35 74.82 73.92 141c-5.15 29.87-44.43 78.25-23.22 124.55 22.85 49.88 34.72 146.13-68.1 121.26-101.37-24.3-93.56-148.7-18.22-214.03s50.55-139.56 35.62-172.78zm77.88 224.45c-5.67 50.48 50.18 100.8 5.75 169.2-30.4 47.34 16.6 113.94 77.28 101.8 66.31-13.22 83-55.18 81.24-103.94-2.31-61.9-27-79.15-81.69-125.59-59.44-50.18-13.66-145.38-13.66-145.38s-62.35 48.36-68.92 103.91zm-178.16 221.31c11.87 33.3 30.24 86.69 102.89 113.79 61.15 22.92 146.8 27 196.15-36.29 11.35-14.19-3.58-8.66-18.52-3-18.898 5.955-38.981 7.116-58.44 3.378-19.459-3.737-37.683-12.256-53.03-24.788-42-35-25.61-74.22-46.67-74.67-69.44-1.49-105.66-28.6-124.4-51.67-4.25-5.44-10.82 37.34 2.02 73.25z" fill="#fff"/></g></g><g transform="matrix(.033203 0 0 .033203 43.436 3.0298)"><g clip-path="url(#clip0_2_2208)"><path d="m512 1024c282.77 0 512-229.23 512-512s-229.23-512-512-512-512 229.23-512 512 229.23 512 512 512z" fill="#f8c18c"/><path d="m768.1 497c-0.12-1.61-0.25-3.23-0.25-4.84v-0.16l-0.37-4.84v-0.16c-1.312-14.382-3.844-28.627-7.57-42.58 0-0.12 0-0.12-0.12-0.25l-1.12-4.1c-0.12-0.25-0.12-0.5-0.25-0.62-0.37-1.24-0.74-2.61-1.12-3.85-0.12-0.25-0.12-0.62-0.25-0.87-0.37-1.24-0.74-2.48-1.12-3.6-0.12-0.37-0.25-0.62-0.37-1-0.37-1.24-0.74-2.36-1.24-3.6l-0.37-1.12c-0.37-1.12-0.87-2.36-1.24-3.48-0.103-0.341-0.226-0.675-0.37-1-0.5-1.12-0.87-2.36-1.37-3.48-0.12-0.25-0.25-0.62-0.37-0.87-0.5-1.24-1-2.36-1.49-3.6 0-0.12-0.12-0.25-0.12-0.37-1.61-4-3.35-7.95-5.21-11.79l-0.37-0.74c-0.5-1-0.87-1.86-1.37-2.73-0.25-0.5-0.5-1.12-0.74-1.61-0.37-0.87-0.87-1.61-1.24-2.48-0.37-0.62-0.62-1.24-1-1.86s-0.87-1.49-1.24-2.36c-0.37-0.62-0.74-1.37-1.12-2s-0.87-1.49-1.24-2.23c-0.367-0.73-0.781-1.435-1.24-2.11-0.37-0.74-0.87-1.37-1.24-2.11s-0.87-1.37-1.24-2.11-0.87-1.37-1.24-2-0.87-1.49-1.37-2.23c-0.37-0.648-0.785-1.269-1.24-1.86l-1.49-2.23c-0.37-0.648-0.785-1.269-1.24-1.86-0.5-0.74-1.12-1.61-1.61-2.36-0.37-0.5-0.74-1.12-1.12-1.61l-1.86-2.61c-0.37-0.5-0.62-0.87-1-1.37-1-1.37-1.86-2.61-2.86-3.85-7.449-9.734-15.583-18.924-24.34-27.5-5.942-6.171-12.289-11.937-19-17.26-4.1-3.6-8.44-7-12.91-10.18-8.006-5.959-16.526-11.193-25.46-15.64-2.48-1.37-5-2.61-7.45-3.85-18.272-8.945-37.521-15.737-57.36-20.24-2-0.37-4-0.87-5.84-1.24h-0.12c-1-0.12-1.86-0.37-2.86-0.5-12.992-2.425-26.158-3.793-39.37-4.09h-10.89c-15.816 0.2-31.574 1.945-47.05 5.21-34.76 7.32-65.43 22-85.79 40.35-1.12 1-2 1.74-2.48 2.23l-0.5 0.5h0.12c0.031 0 0.062-0.013 0.084-0.035 0.023-0.023 0.036-0.053 0.036-0.085l-0.12 0.12c0.067-0.067 0.155-0.109 0.25-0.12 15.15-9.06 36.13-16.51 51.15-20.24 2-0.5 4.1-1 6.08-1.49 0.37-0.12 0.87-0.12 1.24-0.25 1.74-0.37 3.48-0.74 5.34-1.12 0.25 0 0.62-0.12 0.87-0.12 66.42-12.17 137.19 7.7 186.48 54.75 10.635 10.104 19.976 21.487 27.81 33.89 31.41 50.9 28.43 115 4 152.71-35.63 54.88-115.24 73.75-164.53 25.7-16.552-16.057-26.06-38.023-26.44-61.08-0.171-11.007 2.032-21.921 6.46-32 1.74-4 13.53-26.57 18.87-25.45-13.53-2.86-38.86 2.73-56.61 29.18-15.89 23.71-15 60.21-5.21 86.16-6.26-12.801-10.49-26.498-12.54-40.6-12.63-85.45 44.81-158.32 97.57-176.45-28.43-24.83-99.82-23.09-152.83 15.89-30.91 22.72-53 55-64.68 93.49 1.74-21.6 9.93-53.88 26.69-86.78-17.75 9.19-40.35 38.24-51.52 65.06-16.14 38.74-21.73 85-16.64 129.12 0.37 3.35 0.74 6.58 1.12 9.93 20.61 121.16 126.26 213.53 253.27 213.53 141.9 0 257-115.09 257-257-0.13-4.71-0.26-9.43-0.51-14z" fill="#fff"/></g></g><g transform="matrix(.033203 0 0 .033203 80.699 3.0298)"><g clip-path="url(#clip0_2_2118)"><path d="m512 1024c282.77 0 512-229.23 512-512s-229.23-512-512-512-512 229.23-512 512 229.23 512 512 512z" fill="#98dc9a"/><path d="m431.4 390c0 5.1-0.43 13.59-5.46 19.09-5.48 5.12-13.91 5.53-18.94 5.53h-53.89c-15.57 0-24.85 0-31.15 0.85-3.342 0.619-6.601 1.626-9.71 3-0.85 0.41-0.85 0-0.43-0.43l122.95-126.04c0.43-0.43 0.85-0.43 0.43 0.43-1.352 3.126-2.338 6.398-2.94 9.75-0.85 6.36-0.85 15.7-0.85 31.4v56.42zm114.09 381.2c-14.29-9.3-21.88-21.6-24.83-29.2-3.044-7.428-4.627-15.373-4.66-23.4 0.018-16.976 6.765-33.252 18.761-45.263s28.263-18.777 45.239-18.817c4.2 0.027 8.273 1.441 11.586 4.021 3.314 2.58 5.683 6.182 6.739 10.247s0.739 8.364-0.9 12.231-4.509 7.084-8.165 9.151c-2.24 1.227-4.66 2.091-7.17 2.56-2.09 0.43-10.09 1.28-13.87 4.65-4.22 3.41-7.59 8.92-7.59 14.87-0.02 6.189 2.402 12.136 6.74 16.55 3.74 3.788 8.199 6.791 13.116 8.831 4.916 2.04 10.191 3.077 15.514 3.049 13.781-0.058 26.975-5.584 36.684-15.365 9.709-9.78 15.139-23.014 15.096-36.795 0-25.9-17.26-48.83-40-59-3.37-1.71-8.83-3-13.89-4.27-4.18-0.86-8.39-1.563-12.63-2.11-17.66-2.14-61.86-16.14-64.82-55.64 0 0-13 59.41-39.15 75.54-3.08 1.526-6.334 2.671-9.69 3.41-3.045 0.687-6.143 1.115-9.26 1.28-42.52 2.54-87.57-11.05-118.72-43.31 0 0-21.06-17.41-32-66.22-2.52-11.9-7.57-33.13-10.52-53.08-1.01-5.899-1.711-11.848-2.1-17.82 0-20.8 12.63-34.79 28.63-36.91h85.89c14.72 0 23.17-3.84 28.63-8.94 7.17-6.78 8.85-16.55 8.85-28v-89.57c2.07-15.72 16-28.88 36.61-28.88h10.11c4.2 0 9.26 0.43 13.89 0.85 3.845 0.623 7.648 1.478 11.39 2.56 25.68 6.36 31.15 32.68 31.15 32.68s48.43 8.49 72.85 12.74c23.15 4.25 80.43 8.06 91.35 66.22 25.68 138.39 10.11 272.53 8.85 272.53-18.14 130.75-125.91 124.37-125.91 124.37-18.492 0.375-36.628-5.122-51.8-15.7zm96.85-278.05c-13.91-1.28-25.68 4.27-29.91 14.87-0.85 2.13-1.69 4.67-1.26 5.93 0.174 0.488 0.453 0.932 0.818 1.3 0.364 0.368 0.806 0.652 1.292 0.83 5.06 2.56 13.46 3.82 25.68 5.1s20.63 2.13 26.09 1.28c0.538-0.031 1.058-0.206 1.505-0.507 0.446-0.3 0.804-0.716 1.035-1.203 0.85-1.28 0.43-3.84 0.43-6-1.27-11.36-11.79-19.85-25.67-21.56z" fill="#fff"/></g></g><g transform="matrix(.033203 0 0 .033203 117.96 3.0298)"><g clip-path="url(#clip0_2_2064)"><path d="m512 1024c282.77 0 512-229.23 512-512s-229.23-512-512-512-512 229.23-512 512 229.23 512 512 512z" fill="#728dbe"/><path d="m384 313.5-128 81.5 128 81.5 128-81.5zm256 0-128 81.5 128 81.5 128-81.5zm-384 244.7 128 81.5 128-81.5-128-81.5zm384-81.6-128 81.5 128 81.5 128-81.5zm-256 190.3 128 81.5 128-81.5-128-81.5z" fill="#fff"/></g></g><g transform="matrix(.033203 0 0 .033203 155.23 3.0298)"><g clip-path="url(#clip0_3_506)"><path d="m512 1024c282.77 0 512-229.23 512-512s-229.23-512-512-512-512 229.23-512 512 229.23 512 512 512z" fill="#8c72bd"/><path d="m330.3 674.2c-0.01 7.346-2.197 14.524-6.285 20.626-4.088 6.103-9.894 10.857-16.683 13.661s-14.257 3.533-21.46 2.094c-7.203-1.44-13.818-4.982-19.009-10.179-5.19-5.198-8.723-11.817-10.153-19.022-1.429-7.205-0.691-14.672 2.123-21.458 2.813-6.785 7.575-12.584 13.683-16.664s13.289-6.258 20.634-6.258c9.853 0.027 19.295 3.956 26.257 10.928 6.963 6.972 10.88 16.419 10.893 26.272zm360.12-229.3 77.5 75.72-286 91.19v-73.41l-217.57 69.5v-213.84l252.23-80.52v73.77l233.92-74.66zm-208.5-83.72-182.73 58.3v140.6l182.73-58.3zm167.08 91 39.46-83.18-171.88 54.93v140.42l186.64-59.55z" fill="#fff"/></g></g><g transform="matrix(.033203 0 0 .033203 192.49 3.0298)"><g clip-path="url(#clip0_2_3561)"><path d="m512 1024c282.77 0 512-229.23 512-512s-229.23-512-512-512-512 229.23-512 512 229.23 512 512 512z" fill="#56595b"/><path d="m511.55 256c-134.42 0-244.64 103.68-255.07 235.45l137.21 56.7c12.019-8.209 26.236-12.597 40.79-12.59 1.34 0 2.67 0.09 4 0.13l61-88.36v-1.26c0.02-19.083 5.697-37.732 16.313-53.59 10.616-15.857 25.696-28.212 43.332-35.501 17.636-7.29 37.037-9.187 55.751-5.453s35.901 12.933 49.389 26.433 22.67 30.696 26.387 49.413c3.717 18.718 1.801 38.118-5.505 55.747s-19.674 32.697-35.542 43.298c-15.867 10.602-34.521 16.261-53.605 16.263h-2.24l-87 62.1c0 1.11 0.09 2.24 0.09 3.39 0.026 17.975-6.637 35.317-18.693 48.651-12.055 13.334-28.64 21.705-46.527 23.485-17.887 1.781-35.797-3.158-50.244-13.854s-24.398-26.384-27.916-44.012l-98.24-40.68c30.5 107.45 129.14 186.24 246.32 186.24 141.37 0 256-114.62 256-256s-114.65-256-256-256zm-94.7 388.47-31.42-13c4.526 9.463 11.696 17.412 20.645 22.885s19.291 8.236 29.777 7.953c10.486-0.282 20.665-3.598 29.306-9.544 8.641-5.947 15.373-14.271 19.382-23.964 4.093-9.791 5.226-20.567 3.261-30.996-1.966-10.429-6.944-20.053-14.32-27.683s-16.826-12.931-27.182-15.249-21.164-1.55-31.089 2.208l32.49 13.44c9.813 4.088 17.6 11.907 21.648 21.737s4.026 20.865-0.063 30.678c-4.088 9.813-11.907 17.6-21.737 21.648-9.829 4.048-20.865 4.025-30.678-0.063zm243.52-198.47c0-12.721-3.772-25.157-10.839-35.734-7.068-10.578-17.113-18.822-28.866-23.69s-24.686-6.142-37.163-3.66-23.937 8.608-32.933 17.603c-8.995 8.995-15.121 20.456-17.603 32.933-2.481 12.477-1.208 25.409 3.661 37.162 4.868 11.753 13.112 21.799 23.689 28.866 10.578 7.068 23.013 10.84 35.734 10.84 17.053-0.021 33.4-6.805 45.458-18.862 12.058-12.058 18.841-28.406 18.862-45.458zm-112.49-0.11c-2e-3 -9.56 2.832-18.905 8.141-26.854 5.31-7.95 12.858-14.146 21.69-17.805 8.831-3.659 18.55-4.617 27.926-2.753 9.376 1.865 17.988 6.468 24.748 13.228 6.76 6.759 11.363 15.372 13.227 24.748 1.865 9.376 0.907 19.094-2.752 27.926-3.66 8.831-9.856 16.379-17.805 21.689s-17.295 8.143-26.855 8.141c-6.344 1e-3 -12.626-1.247-18.488-3.674-5.862-2.426-11.188-5.984-15.675-10.469s-8.046-9.81-10.475-15.67c-2.429-5.861-3.68-12.143-3.682-18.487z" fill="#fff"/></g></g></g></svg>
