<svg xmlns="http://www.w3.org/2000/svg" viewBox="0 0 1024 1024">
   <circle cx="512" cy="512" r="512" style="fill:#4ae07f"/>
   <path d="m513.86 473.89 105.89 291.52a3.76 3.76 0 0 0 3.536 2.47h65.25c2.632 0 4.449-2.62 3.517-5.064l-134.5-351.86c-5.802-15.179-18.452-27.169-34.345-30.968-24.822-5.935-49.026 7.54-57.57 30.075l-72.873 192.25c15.22 15.874 33.296 29.007 53.442 38.538l59.503-166.93c1.356-3.811 6.77-3.825 8.15-.032zM335.44 767.88h62.827c1.594 0 3.016-1 3.546-2.492l14.88-41.742c-20.88-7.857-40.367-18.518-57.946-31.593l-26.829 70.77c-.929 2.445.893 5.056 3.521 5.056zm176.55-96.709c-99.834 0-181.05-80.694-181.05-179.88 0-99.183 81.221-179.87 181.05-179.87 99.834 0 181.06 80.69 181.06 179.87 0 44.091-16.077 84.503-42.679 115.82l21.874 57.222c46.997-42.976 76.464-104.58 76.464-173.04 0-129.88-105.98-235.17-236.72-235.17s-236.72 105.29-236.72 235.17 105.98 235.17 236.72 235.17c24.881 0 48.853-3.835 71.379-10.904l-18.927-52.116a181.5 181.5 0 0 1-52.452 7.726z" style="fill:#fff;stroke-width:15.992"/>
</svg>
