<?xml version="1.0" encoding="UTF-8"?>
<svg version="1.1" viewBox="0 0 1024 1024" xmlns="http://www.w3.org/2000/svg">
 <circle cx="512" cy="512" r="512" style="fill:#9abeff"/>
 <g transform="matrix(.78972 0 0 .78972 273.89 233.24)">
  <path d="m0 0h623.21v639.03h-623.21z" fill="#fff" fill-rule="evenodd" style="stroke-width:.98605"/>
  <path d="m329.02 292.69c-3.6633-0.40704-3.7651-0.61056-3.7651-9.6672 0-7.1232 3.7651-7.3267 10.481-5.3933 0.81408-4.4774 3.0528-17.706-2.4422-17.706-4.0704 0-7.1232 3.1545-12.516 3.1545-6.2073 0-18.418-4.1721-22.591-4.1721-7.9372 0-3.8669 13.839-3.8669 19.334 15.773-2.0352 22.387-4.3757 22.387 3.0528 0 12.313 2.0352 10.379-17.91 12.211-10.278 0.81408-16.282 1.3229-22.387 1.5264 0 0-5.8003-23.303-2.7475-27.984a193.04 193.04 0 0 1 17.299-22.591c3.7651-4.0704 3.7651-4.0704 1.9334-9.8707l-12.618-38.465a27.984 27.984 0 0 1 6.4108-23.608c1.8317-2.4422 0.5088-3.4598-1.3229-2.544-9.8707 4.7827-25.643 15.06-25.033 28.798 0.50879 10.888-4.1722 9.1584-12.516 7.3267a56.375 56.375 0 0 0-21.675-1.6282c-10.99 1.8317-17.706 9.8707-16.282 17.503 1.3229 6.8179 7.3267 12.923 24.626 12.923 16.79 0 18.622-10.176 26.05 3.2563 6.4108 11.499 11.804 14.959 2.7475 23.914-22.489 22.591-23.303 15.264-23.303 38.058 0 24.117 25.44 43.044 39.381 38.669a211.05 211.05 0 0 0 34.089-10.685c0.81408-0.61056 0.61056-2.4422-0.40704-2.544-4.8845 0-23.914 0-25.44-6.8179l-2.544-11.906a167.09 167.09 0 0 1 33.581-2.8493c6.2073 0 12.516 0.40704 18.724 1.1194a34.191 34.191 0 0 0 1.7299-10.787 83.443 83.443 0 0 0-10.074-1.6282zm2.8493-64.617a23.099 23.099 0 0 0 19.741 1.0176c12.415-4.1721 13.839-18.52 0.20351-20.861-10.685-1.8317-14.043 3.6633-20.555-2.3405l-10.583-10.176c-1.4246-1.3229-2.7475-2.4422-3.4598-2.137-0.71231 0.20352-1.0176 1.0176-0.10176 3.2563a160.58 160.58 0 0 0 14.755 31.24zm-343.13-239.34v651.26h187.75a98.707 98.707 0 0 0-14.857-40.195c-31.037-35.616-23.71-85.783-17.096-78.151a45.995 45.995 0 0 0 27.577 18.011 221.63 221.63 0 0 1-25.236-84.562c0-122.42 45.385-168.21 45.385-168.21s3.6633-49.353-2.6458-50.574c-14.552-2.8493-33.072-15.264-33.072-31.444a50.371 50.371 0 0 0-52.508 56.985 19.131 19.131 0 0 0 18.317 19.64c11.194 0 15.264-7.1232 15.264-17.197a11.092 11.092 0 0 1 12.211-11.906c3.8669 0 11.092 1.6282 11.092 23.201a48.539 48.539 0 0 1-13.432 38.669 48.539 48.539 0 0 1-38.16 14.552c-29.612 0-68.688-21.98-68.688-95.45a131.78 131.78 0 0 1 126.79-128.12 40.5 40.5 0 0 0-15.671 7.0214 124.66 124.66 0 0 0-21.98 21.37 90.362 90.362 0 0 1 10.176 1.0176 16.282 16.282 0 0 0 14.653-4.7827 136.46 136.46 0 0 1 12.313-12.109 54.34 54.34 0 0 1 42.637-9.9724c4.2739 0.71232 8.446 1.6282 12.516 2.7475a68.586 68.586 0 0 0-31.545 12.211 152.64 152.64 0 0 0-23.201 21.37s4.1722 2.3405 6.6144 3.6634a14.755 14.755 0 0 0 15.671-3.3581 122.72 122.72 0 0 1 13.738-11.906 48.031 48.031 0 0 1 26.05-11.397 48.031 48.031 0 0 1 27.882 5.2915l4.0704 2.951a94.942 94.942 0 0 0-33.988 11.092 141.65 141.65 0 0 0-29.103 24.219l6.1056 4.8845a13.127 13.127 0 0 0 16.078-2.3405 125.77 125.77 0 0 1 15.874-13.229 78.66 78.66 0 0 1 39.686-12.923c4.3757 4.2739 6.0038 8.039 10.176 8.039 4.7827 0 7.9372-3.5616 11.804-8.446a50.778 50.778 0 0 1 29.51 9.3619 82.629 82.629 0 0 1 12.618 9.1584c5.8003 4.7827 10.176 3.7651 12.822 1.2211 2.0352-2.0352 4.9862-5.495 4.9862-5.495a79.372 79.372 0 0 0-23.405-18.724 52.915 52.915 0 0 0-26.661-6.9196 64.414 64.414 0 0 1 5.495-4.6809 37.244 37.244 0 0 1 38.16 3.5616 46.708 46.708 0 0 1 11.804 8.9548 9.7689 9.7689 0 0 0 11.804 1.8317 25.44 25.44 0 0 1 6.5126-3.7651 64.109 64.109 0 0 0-22.387-18.724 48.336 48.336 0 0 0-16.994-4.7827 73.063 73.063 0 0 1 25.643-1.2211c37.549 5.088 48.743 46.606 46.402 82.934-3.9686 60.852-1.8317 75.506 12.822 75.607a14.246 14.246 0 0 0 13.432-13.534c1.2211-7.7337 3.4598-13.839 8.446-13.839 10.176 0 12.618 9.8707 12.618 16.282 0 40.704-26.152 48.845-48.539 48.845-22.387 0-39.686-17.401-45.792-47.522-1.8317-9.5654-3.3581-19.131-3.3581-19.131a37.142 37.142 0 0 0-9.2601 3.4598c-5.8003 2.951-11.702 6.7161-11.702 6.7161s6.4108 14.857 7.7337 19.131c0.30528 8.1408-0.20352 16.282-1.6282 24.219a241.88 241.88 0 0 1 36.633 131.27c0 75.811-28.187 145.21-47.522 170.96a44.164 44.164 0 0 0 15.976-7.0214c18.011-17.706 22.591-21.064 41.721-22.794 12.008-31.545 16.282-70.621 4.0704-159.15 69.196 48.438 71.232 89.04 61.463 133.31 43.248-22.285 18.826-65.838 18.826-65.838a202.91 202.91 0 0 0 33.581 18.113c80.39 32.97 109.39 76.32 109.39 139.11v8.5478h16.79v-651.36z" fill="#05c3de" style="fill:#9abeff;stroke-width:1.0176"/>
 </g>
</svg>
