<?xml version="1.0" encoding="UTF-8" standalone="no"?>
<svg
   viewBox="0 0 1024 1024"
   version="1.1"
   id="svg6"
   sodipodi:docname="Cozy Cloud v1.svg"
   inkscape:version="1.2.2 (732a01da63, 2022-12-09)"
   xmlns:inkscape="http://www.inkscape.org/namespaces/inkscape"
   xmlns:sodipodi="http://sodipodi.sourceforge.net/DTD/sodipodi-0.dtd"
   xmlns="http://www.w3.org/2000/svg"
   xmlns:svg="http://www.w3.org/2000/svg">
  <defs
     id="defs10" />
  <sodipodi:namedview
     id="namedview8"
     pagecolor="#505050"
     bordercolor="#eeeeee"
     borderopacity="1"
     inkscape:showpageshadow="0"
     inkscape:pageopacity="0"
     inkscape:pagecheckerboard="0"
     inkscape:deskcolor="#505050"
     showgrid="false"
     inkscape:zoom="0.83398438"
     inkscape:cx="368.11241"
     inkscape:cy="512"
     inkscape:window-width="1920"
     inkscape:window-height="1009"
     inkscape:window-x="1072"
     inkscape:window-y="479"
     inkscape:window-maximized="1"
     inkscape:current-layer="svg6" />
  <circle
     cx="512"
     cy="512"
     r="512"
     style="fill:#9abeff"
     id="circle2" />
  <path
     d="M632.43 688H391.57C316.8 688 256 626.84 256 551.6a136.11 136.11 0 0 1 38.67-95.41 134.46 134.46 0 0 1 80.76-40 135.88 135.88 0 0 1 39.8-81.28 135 135 0 0 1 189.61 0 136 136 0 0 1 39.76 80.87c69.07 6.17 123.4 64.74 123.4 135.83C768 626.84 707.16 688 632.42 688Zm.46-25.58h1c59.82 0 108.47-49.24 108.47-109.77s-48.62-109.72-108.43-109.72h-1.09a14.45 14.45 0 0 1-14.38-14.21c-1.35-59.12-50-107.18-108.43-107.18s-107.1 48.09-108.44 107.2A14.48 14.48 0 0 1 387.52 443c-58.4 1.36-105.92 50.58-105.92 109.74 0 60.53 48.66 109.77 108.47 109.77h242.82Zm-53.32-119a5.08 5.08 0 0 1-2.76 9.33 5 5 0 0 1-2.75-.82 27.86 27.86 0 0 1-5.68-4.94 89.12 89.12 0 0 1-119.64.1 27.62 27.62 0 0 1-5.59 4.84 5 5 0 0 1-7-1.47 5.09 5.09 0 0 1 1.46-7c8.57-5.61 9-16 9-16.37a5 5 0 1 1 10.07.21 33.6 33.6 0 0 1-2.51 11.08 79 79 0 0 0 108.83-.22 34.3 34.3 0 0 1-2.46-10.91 5 5 0 1 1 10.07-.19c-.02.45.39 10.76 8.96 16.37Z"
     style="fill:#fff"
     id="path4" />
</svg>
