<svg xmlns="http://www.w3.org/2000/svg" width="1024" height="1024" fill="none">
   <g clip-path="url(#a)">
      <path fill="#98DC9A" d="M512 1024c282.77 0 512-229.23 512-512S794.77 0 512 0 0 229.23 0 512s229.23 512 512 512Z"/>
      <path fill="#fff" d="M621.7 694.9H329.1c0 40.4 32.7 73.1 73.1 73.1h219.4c40.4 0 73.1-32.7 73.1-73.1V394.5c0-1.5-1.2-2.7-2.7-2.7h-67.8c-1.5 0-2.7 1.2-2.7 2.7v300.4h.2Zm0-438.9c40.4 0 73.1 32.7 73.1 73.1H402.3v300.4c0 1.5-1.2 2.7-2.7 2.7h-67.8c-1.5 0-2.7-1.2-2.7-2.7V329.1c0-40.4 32.7-73.1 73.1-73.1h219.5Z"/>
   </g>
   <defs>
      <clipPath id="a">
         <path fill="#fff" d="M0 0h1024v1024H0z"/>
      </clipPath>
   </defs>
</svg>
