<?xml version="1.0" encoding="UTF-8"?>
<svg width="1024" height="1024" fill="none" version="1.1" viewBox="0 0 1024 1024" xmlns="http://www.w3.org/2000/svg">
 <g clip-path="url(#clip0_2_2526)">
  <path d="m512 1024c282.77 0 512-229.23 512-512s-229.23-512-512-512-512 229.23-512 512 229.23 512 512 512z" fill="#728dbe"/>
  <path d="m390.5 486.8h37v102.9h32.9v-102.9h36.9v-29.2h-106.8v29.2zm218.3 43.4c0 17.6-9.9 35.8-30.7 35.8-21.1 0-24.7-19.5-24.7-35.2v-73.1h-32.9v82.5c0 27 14.3 53.3 48.6 53.3 19.5 0 35.1-11.8 40.9-25h0.5v21.2h31.3v-132h-33v72.5zm66.6 59.5h33v-132h-33v132zm-231.4-149.4c5.3 0 10.4-2.1 14.1-5.8s5.8-8.8 5.8-14.1-2.1-10.4-5.8-14.1-8.8-5.8-14.1-5.8c-2.6 0-5.2 0.5-7.6 1.5s-4.6 2.5-6.5 4.3c-1.8 1.9-3.3 4.1-4.3 6.5s-1.5 5-1.5 7.6c0 11 8.9 19.9 19.9 19.9zm340.9 0c2.6 0 5.2-0.5 7.6-1.5s4.6-2.5 6.5-4.3c1.9-1.9 3.3-4.1 4.3-6.5s1.5-5 1.5-7.6c0-3.9-1.2-7.8-3.4-11.1s-5.3-5.8-8.9-7.3-7.6-1.9-11.5-1.1-7.4 2.7-10.2 5.5-4.7 6.3-5.4 10.2c-0.8 3.9-0.4 7.9 1.1 11.5s4.1 6.7 7.3 8.9c3.3 2.2 7.2 3.3 11.1 3.3zm-53.4 17.3v29.3h37v102.9h32.9v-103h37v-29.2h-106.9zm-545.8 132.1h33v-132h-33v132zm139.5-135.9c-19.5 0-35.1 11.8-40.9 25h-0.5v-21.2h-31.3v132h32.9v-72.6c0-17.6 9.9-35.8 30.8-35.8 21.1 0 24.7 19.6 24.7 35.2v73.2h33v-82.5c-0.1-26.9-14.4-53.3-48.7-53.3z" fill="#fff"/>
 </g>
 <defs>
  <clipPath id="clip0_2_2526">
   <rect width="1024" height="1024" fill="#fff"/>
  </clipPath>
 </defs>
</svg>
