<?xml version="1.0" encoding="UTF-8"?>
<svg version="1.1" viewBox="0 0 1024 1024" xmlns="http://www.w3.org/2000/svg">
 <circle cx="512" cy="512" r="512" style="fill:#98dc9a"/>
 <path d="m661.55 710.65a26.103 26.103 0 0 0 19.578-6.5258 254.94 254.94 0 0 0 56.557-313.24l-0.87011-1.7402a191.43 191.43 0 0 0-4.3506-7.396l-2.1753-3.4804a255.38 255.38 0 0 0-321.07-100.06c110.94 13.052 208.83 92.667 208.83 92.667l47.856-38.285-16.967 204.48-152.27-60.038 53.512-46.116c-63.953-84.401-126.6-115.73-180.11-122.25a26.103 26.103 0 0 0-19.578 5.6558 254.94 254.94 0 0 0 162.28 453.33c40.025 0 78.31-9.1362 111.81-26.103-116.6-10.876-221.88-95.713-221.88-95.713l-48.726 39.155 17.402-210.57 156.62 62.213-54.817 47.421c66.564 88.752 132.69 120.51 188.38 126.17z" fill="#00e356" style="fill:#fff;stroke-width:4.3506"/>
</svg>
