<?xml version="1.0" encoding="UTF-8"?>
<svg version="1.1" viewBox="0 0 1024 1024" xmlns="http://www.w3.org/2000/svg">
 <circle cx="512" cy="512" r="512" style="fill:#ff837d"/>
 <style type="text/css">.st0{fill:#303030;}
	.st1{fill:url(#SVGID_1_);}
	.st2{fill:url(#SVGID_00000081638177471556384870000001184663332930645435_);}
	.st3{fill:url(#SVGID_00000163792142726035403190000016457204838930373249_);}
	.st4{fill:url(#SVGID_00000158741046699680930070000015657939050252073612_);}
	.st5{fill:url(#SVGID_00000041273052558155142350000016088650719134091400_);}
	.st6{fill:url(#SVGID_00000176750615713109383510000000674748355027158684_);}
	.st7{fill:url(#SVGID_00000061441205930784164860000017045977688784117130_);}
	.st8{fill:url(#SVGID_00000127040260470910510750000004737555630924299146_);}
	.st9{fill:url(#SVGID_00000057870131713408951670000017663235597674389135_);}</style>
 <g transform="matrix(2.6971 0 0 2.6971 20.056 -293.07)" style="fill:#fff">
  <path class="st1" d="m235 326.1c3.3 0 6.6 0.6 9.6 1.7 4.8-5.5 7.3-11.5 7.3-17.7 0-10.2-6.9-20-19.3-27.6-13.4-8.1-31.3-12.5-50.4-12.5s-37 4.5-50.4 12.6c-12.5 7.6-19.3 17.4-19.3 27.6 0 6.2 2.5 12.2 7.3 17.7 3.1-1.1 6.3-1.7 9.6-1.7 7.5 0 14.6 2.9 19.9 8.3 3.7 3.7 6.2 8.3 7.4 13.2 8.1 1.9 16.7 2.9 25.5 2.9s17.5-1.1 25.5-2.9c1.2-5 3.7-9.6 7.4-13.2 5.4-5.5 12.4-8.4 19.9-8.4zm-52.8-23.4c-8.6 0-15.6-7-15.6-15.6h31.2c0.1 8.6-7 15.6-15.6 15.6z" style="fill:#fff"/>
  <path d="m127.9 275.2c1.5-1 3.1-1.8 4.7-2.5h-0.1c-3.9-3-8.6-4.4-13.2-4.4-6.7 0-13.3 3-17.6 8.8l-1.7 2.2 12.4 9.3c3.9-4.9 9.1-9.5 15.5-13.4z" style="fill:#fff"/>
  <path d="m112.5 331.7c-4.1-5.3-6.8-11.2-7.5-17.3-0.2-1.4-0.3-2.9-0.3-4.2 0-7.1 2.3-14 6.9-20.2h-1.6c-12.1 0-22 9.9-22 22v3.1h16.4c-4.2 3.5-7 8.5-7.8 14-0.7 5.8 0.7 11.6 4.4 16.3l1.4 1.8c1.3-4.8 3.7-9.1 7.3-12.7 0.7-1.1 1.8-1.9 2.8-2.8z" style="fill:#fff"/>
  <path d="m251.9 288.7 12.4-9.3-1.8-2.4c-4.4-5.7-10.9-8.8-17.6-8.8-4.6 0-9.2 1.5-13.2 4.4h-0.1c1.6 0.8 3.2 1.7 4.7 2.5 6.6 4 11.8 8.6 15.6 13.6z" style="fill:#fff"/>
  <path d="m276.5 311.8c0-12.1-9.9-22-22-22h-1.6c4.5 6.3 6.9 13.1 6.9 20.2 0 1.5-0.1 2.9-0.3 4.2-0.8 6.1-3.4 11.9-7.5 17.3 1.1 0.9 2.1 1.7 3.1 2.7 3.6 3.6 6.1 8 7.3 12.7l1.4-1.8c3.6-4.7 5.1-10.4 4.4-16.3-0.7-5.5-3.5-10.4-7.8-14h16.4v-3.1h-0.3z" style="fill:#fff"/>
  <g style="fill:#fff">
   <path d="m155.7 264.8c12.1 0 22-9.9 22-22s-9.9-22-22-22-22 9.9-22 22 9.9 22 22 22zm0-34c0.1 0 0.1 0 0 0-1.5 1.6-2.4 3.7-2.4 6.1 0 4.7 3.8 8.5 8.5 8.5 2.3 0 4.5-1 6.1-2.5v0.1c0 6.7-5.4 12.1-12.1 12.1s-12.1-5.4-12.1-12.1c0-6.9 5.4-12.2 12-12.2z" style="fill:#fff"/>
   <path d="m208.7 264.8c12.1 0 22-9.9 22-22s-9.9-22-22-22-22 9.9-22 22 9.8 22 22 22zm0-34c-1.5 1.6-2.4 3.7-2.4 6.1 0 4.7 3.8 8.5 8.5 8.5 2.3 0 4.5-1 6.1-2.5v0.1c0 6.7-5.4 12.1-12.1 12.1s-12.1-5.4-12.1-12.1c-0.1-6.9 5.3-12.2 12-12.2z" style="fill:#fff"/>
   <path d="m129.3 332.2c-12.1 0-22 9.9-22 22s9.9 22 22 22c2.5 0 5-0.4 7.2-1.3l-0.6-0.6c-6.4-6.4-8.5-14.6-4.8-18.3s11.9-1.6 18.3 4.8l0.6 0.6c0.8-2.2 1.3-4.7 1.3-7.2 0-12.1-9.8-22-22-22z" style="fill:#fff"/>
   <path d="m235 332.2c-12.1 0-22 9.9-22 22 0 2.5 0.4 5 1.3 7.2l0.6-0.6c6.4-6.4 14.6-8.5 18.3-4.8s1.6 11.9-4.8 18.3l-0.6 0.6c2.2 0.8 4.7 1.3 7.2 1.3 12.1 0 22-9.9 22-22s-9.8-22-22-22z" style="fill:#fff"/>
  </g>
 </g>
</svg>
