<?xml version="1.0" encoding="UTF-8"?>
<svg version="1.1" viewBox="0 0 1024 1024" xmlns="http://www.w3.org/2000/svg">
 <defs>
  <clipPath id="d">
   <path d="M7.98 48.73c-.84 1.82-.35 2.72 2.12 2.2 5.14-1.08 7.85-3.97 11.05-7.01l.34-.33c-.18 1.16-.29 2.5-.34 3.99-.1 3 .62 7.24 1.96 9.29.59.86 1.47 1.03 2.66-.27a29.2 29.2 0 0 1-2.08-5.94c-.45-2.11-.6-4.46-.07-6.85l-1.77-.59-.29-.09-.74-.24a31 31 0 0 0-1.18-.35c-4.52 4.89-8.08 6.12-11.67 6.19z"/>
  </clipPath>
  <clipPath id="f">
   <path d="M4.82 32.09c2.71 2.1 7.44 4.08 10.92 4.38 2.22.19 4.69-.13 6.48-1.31h.02c.4-.72.62-1.7.29-3.11-.32 1.41-2.94 2.94-6.61 2.43-2.1-.18-4.43-1.35-6.29-2.52-1.85-1.17-2.78-2.01-3.15-2.29a1.8 1.8 0 0 0-1.18-.46c-1.31 0-2.23 1.64-.49 2.88Z"/>
  </clipPath>
  <clipPath id="g">
   <path d="m12.81 14.35.09.41c.21.82.48 2.46 1.2 4.79l3.77 4.57c5.24 6.4 5.27 9.42 4.36 11.03a5.16 5.16 0 0 0 1.96-2.2c.89-2.2-.84-5.26-3.01-8.11a639 639 0 0 0-8.37-10.49"/>
  </clipPath>
  <clipPath id="i">
   <path d="m30.13 2.09-.55 6.06-.22 3.23v1.05a1.5 1.5 0 0 0 .04.35c.06.27.23.37.33.4.12.03.4.04.58-.29a3 3 0 0 0 .15-.36c.1-.27.21-.67.34-1.15l.85-3.51 1.25-5.59c.33-1.5-.38-2.29-1.17-2.29-.73 0-1.53.68-1.6 2.09z"/>
  </clipPath>
  <clipPath id="j">
   <path d="M.99 23.62c1.15.48 3.53 1.23 5.85 2.65a50 50 0 0 1 6.02 4.13c.46.36.67.5.91.28.39-.36-.34-1.21-.61-1.56-1.08-1.42-4.97-6.19-10.54-8.08a2.7 2.7 0 0 0-.81-.13c-1.78 0-2.58 2.04-.82 2.71"/>
  </clipPath>
  <clipPath id="l">
   <path d="m23.16 4.68-.56 2.06c1.52 3.26 2.33 5.91 2.34 9.11-.03 4.88-2.15 14.23-5.2 14.22-1.18 0-2.74-3.22-4.16-6.55-1.91-4.45-2.36-7.53-2.68-8.76l-.09-.41-.1-.13c-.93-1.08-2.07-.43-2.11.65-.05 1.41 1.76 6.85 2.84 9.44 2.29 5.5 4.15 8.32 6.03 8.23 2.43-.12 4.73-3.55 6.13-7.78 1.16-3.5 1.88-6.83 1.88-9.11 0-4.25-1.5-7.71-3.94-12.45 0 .09-.21.91-.37 1.48z"/>
  </clipPath>
  <clipPath id="n">
   <path d="M35.54 30.2c-3.84.7-6.5 1.69-6.98 1.88l-.3 2.44 6.02-1.92a43 43 0 0 1 16.71-.29c3 .52 2.95-1.95.86-2.38-2.1-.43-3.53-.52-7.52-.52-3.33 0-6.33.35-8.78.8z"/>
  </clipPath>
  <clipPath id="p">
   <path d="M43.64 2.51C33.99 5.96 27.86 15.85 26.1 33.58c-.12 1.39 1.19 1.23 2.15.93 1.82-16.7 8.36-27.04 17.14-29.88.25-.08.57-.15.74-.2-.1-1.46-.69-2.08-1.6-2.08-.27 0-.57.06-.89.16"/>
  </clipPath>
  <clipPath id="r">
   <path d="M21.17 3.32C19.32 9.58 19.26 14.38 20 17.47c1.21 5.04 5.5 10.96 6.56 12.35.13-.91.28-1.81.44-2.68-.9-1.15-3.84-6.02-4.73-9.7-.92-3.85-.59-7.68.9-12.75.16-.57.36-1.4.37-1.48-.29-.62-.75-.88-1.18-.88-.53 0-1.03.39-1.18 1Z"/>
  </clipPath>
  <clipPath id="t">
   <path d="M37.34 33.85c-6.3 0-10.58 1.9-8.1 6.93-.32-1 0-1.76.47-2.4 2.73-3.76 15.18-2.17 20.06-.56 1.09-.78 1.15-1.98-1.21-2.51a50.4 50.4 0 0 0-11.21-1.47Z"/>
  </clipPath>
  <clipPath id="u">
   <path d="M26.75 33.85h24.17v6.93H26.75z"/>
  </clipPath>
  <clipPath id="w">
   <path d="M16.18 39.75c-3.59 2.49-6.94 6.22-8.19 8.97.96-.02 1.92-.12 2.91-.35 2-2.93 5-5.8 7.71-7.55 4.25-2.96 7.04-4.04 7.72 2.64.39 3.45.17 7.82-1.65 10.48.36.97.76 1.89 1.11 2.65 1.96-2.1 3.19-6.89 2.9-11.22-.42-3.63-.86-8.95-5.02-8.95-1.74 0-4.14.93-7.47 3.33Z"/>
  </clipPath>
  <clipPath id="y">
   <path d="M2.82 40.93c-3.05 1.18-2.22 4.1 1.04 2.79 6.13-2.53 11.55-2.57 16.98-.84 6.43 2.06 10.23 3.37 15.49 9.15 1.58 1.85 3.41.96 2.84-1-.78-3.25-10.94-8.49-17.39-10.31a37.6 37.6 0 0 0-9.89-1.32c-3.25 0-6.46.44-9.08 1.52Z"/>
  </clipPath>
  <clipPath id="A">
   <path d="M29.71 38.39c-.46.63-.79 1.41-.47 2.4.5.98 1.21 1.88 2.15 2.98l1.32 1.65c3.14 1.78 5.67 3.72 6.34 5.27-.35-1.09-1.2-2.44-2.35-4.05-.47-.66-3.76-4.53-4.44-5.38-.98-1.22-2.14-2.83-.68-4.23a4.3 4.3 0 0 0-1.87 1.37z"/>
  </clipPath>
  <clipPath id="C">
   <path d="M37.52 37.12c-.26.16-.22.47-.07.7.09.15.2.27.32.41l1.12 1.2 3.55 3.72 5.38 5.98c2.23 2.21 4.11-.03 1.92-2.21l-6.25-5.91-3.58-2.82-1.23-.82a2.6 2.6 0 0 0-.44-.23 1.2 1.2 0 0 0-.41-.09.6.6 0 0 0-.29.07z"/>
  </clipPath>
  <clipPath id="E">
   <path d="M32.3 36.75c.22 5.04 6.18 5.55 8.87 5.05l-1.82-1.9c-1.94.1-5.07-.69-5.19-3.57-.66.1-1.28.24-1.85.42z"/>
  </clipPath>
  <clipPath id="G">
   <path d="m41.63 39.49 1.85 1.52.16.13a27.7 27.7 0 0 0 6.14-3.32c-.83-.27-1.89-.55-3.07-.79-1.72 1.15-3.44 2-5.07 2.46z"/>
  </clipPath>
  <clipPath id="I">
   <path d="M45.39 4.63c-.61.2-1.21.43-1.8.7.07.91-.18 2.42-.86 4.45-1.97 5.85-6.29 14.67-13.35 17.63a67 67 0 0 0-.52 2.67c7.47-2.71 11.11-8.95 13.6-13.34 2.21-3.9 3.9-9.28 3.65-12.3 0 0-.38.08-.74.2Z"/>
  </clipPath>
  <clipPath id="J">
   <path d="M28.87 4.43h17.51v25.64H28.87z"/>
  </clipPath>
  <clipPath id="L">
   <path d="M49.06 22.57c-2.34.21-4.57.7-6.66 1.54-2.08.83-4.03 2-5.78 3.55a13.76 13.76 0 0 0-4.05 6.68q.87-.21 1.86-.33c.13-.42.3-.84.53-1.27a9.2 9.2 0 0 1 2.15-2.66c1.72-1.44 3.4-2.5 5.3-3.26 1.89-.77 4-1.25 6.59-1.56 2.18-.22 2.63-1.01 2.5-1.66-.11-.57-.7-1.06-1.89-1.06-.17 0-.35 0-.54.03Z"/>
  </clipPath>
  <clipPath id="M">
   <path d="M32.58 22.54h19.05v11.8H32.58z"/>
  </clipPath>
  <linearGradient id="e" x1="11.93" x2="5.29" y1="39.92" y2="51.14" href="#a">
   <stop stop-color="#3263b7" offset="0"/>
   <stop stop-color="#68cef6" offset=".58"/>
   <stop stop-color="#73d2f6" offset="1"/>
  </linearGradient>
  <linearGradient id="c" x1="-6.36" x2="12.24" y1="29.54" y2="29.54" href="#a">
   <stop stop-color="#1c63b7" offset="0"/>
   <stop stop-color="#59c9f4" offset="1"/>
  </linearGradient>
  <linearGradient id="h" x1="2.23" x2="14.27" y1="14.53" y2="30.74" href="#a">
   <stop stop-color="#1c63b7" offset="0"/>
   <stop stop-color="#5cbeee" offset=".48"/>
   <stop stop-color="#65ccf5" offset=".58"/>
   <stop stop-color="#66cef5" offset=".6"/>
   <stop stop-color="#66cef5" offset=".61"/>
   <stop stop-color="#1c63b8" offset="1"/>
  </linearGradient>
  <linearGradient id="b" x1="20.66" x2="20.57" y1="10.1" y2="-2.92" href="#a">
   <stop stop-color="#1c63b7" offset="0"/>
   <stop stop-color="#0db1ef" offset="1"/>
  </linearGradient>
  <linearGradient id="k" x1="1.18" x2="-8.05" y1="29.08" y2="16.95" href="#b"/>
  <linearGradient id="m" x1="3.21" x2="23.27" y1="20.65" y2="6.29" href="#a">
   <stop stop-color="#73d2f6" offset="0"/>
   <stop stop-color="#7cd5f7" offset=".06"/>
   <stop stop-color="#7fd6f7" offset=".08"/>
   <stop stop-color="#7ed6f7" offset=".09"/>
   <stop stop-color="#4ac5f4" offset=".28"/>
   <stop stop-color="#18b5f1" offset=".33"/>
   <stop stop-color="#05afef" offset=".33"/>
   <stop stop-color="#01adef" offset=".34"/>
   <stop stop-color="#00adef" offset=".34"/>
   <stop stop-color="#59caf5" offset=".42"/>
   <stop stop-color="#58c8f4" offset=".44"/>
   <stop stop-color="#1c63b8" offset="1"/>
  </linearGradient>
  <linearGradient id="o" x1="17.71" x2="41.36" y1="26.55" y2="31.3" href="#c"/>
  <linearGradient id="q" x1="13.52" x2="34.31" y1="29.08" y2="-1.16" href="#a">
   <stop stop-color="#59caf5" offset="0"/>
   <stop stop-color="#79d4f7" offset=".52"/>
   <stop stop-color="#7ed6f7" offset=".65"/>
   <stop stop-color="#7fd6f7" offset=".69"/>
   <stop stop-color="#7ed6f7" offset=".71"/>
   <stop stop-color="#74d2f6" offset="1"/>
  </linearGradient>
  <linearGradient id="s" x1="21.61" x2="1.36" y1="17.09" y2="5.9" href="#a">
   <stop stop-color="#1ea7e7" offset="0"/>
   <stop stop-color="#5ecbf5" offset=".21"/>
   <stop stop-color="#79d4f7" offset=".48"/>
   <stop stop-color="#7ed6f7" offset=".53"/>
   <stop stop-color="#7fd6f7" offset=".54"/>
   <stop stop-color="#74d2f6" offset="1"/>
  </linearGradient>
  <linearGradient id="v" x1="18" x2="39.71" y1="33.94" y2="33.94" href="#a">
   <stop stop-color="#73d2f6" offset="0"/>
  </linearGradient>
  <linearGradient id="x" x1="5.36" x2="13.93" y1="53.11" y2="29.59" href="#a">
   <stop stop-color="#1c63b7" offset="0"/>
   <stop stop-color="#12a5e7" offset=".42"/>
   <stop stop-color="#66cef5" offset="1"/>
  </linearGradient>
  <linearGradient id="z" x1="-8.96" x2="33" y1="44.2" y2="41.55" href="#a">
   <stop stop-color="#1a8ad3" offset="0"/>
   <stop stop-color="#7dd4f6" offset=".49"/>
   <stop stop-color="#7fd6f7" offset=".52"/>
   <stop stop-color="#67cef5" offset="1"/>
  </linearGradient>
  <linearGradient id="B" x1="19.61" x2="28.76" y1="35.24" y2="47.94" href="#a">
   <stop stop-color="#1c63b7" offset="0"/>
   <stop stop-color="#61c5f1" offset=".32"/>
   <stop stop-color="#65cdf5" offset=".38"/>
   <stop stop-color="#65ccf5" offset=".41"/>
   <stop stop-color="#1c63b8" offset="1"/>
  </linearGradient>
  <linearGradient id="D" x1="25.48" x2="40.77" y1="36.51" y2="43.87" href="#b"/>
  <linearGradient id="F" x1="20.8" x2="30.55" y1="33.37" y2="39.2" href="#a">
   <stop stop-color="#1c63b7" offset="0"/>
   <stop stop-color="#65ccf5" offset=".44"/>
   <stop stop-color="#66cef5" offset=".45"/>
   <stop stop-color="#01adef" offset="1"/>
  </linearGradient>
  <linearGradient id="H" x1="32.59" x2="37.06" y1="37.56" y2="33.23" href="#a">
   <stop stop-color="#33bdf2" offset="0"/>
   <stop stop-color="#66cef5" offset=".26"/>
   <stop stop-color="#65ccf5" offset=".31"/>
   <stop stop-color="#1c63b8" offset="1"/>
  </linearGradient>
  <linearGradient id="K" x1="35.42" x2="18.34" y1="14.13" y2="14.13" href="#a">
   <stop stop-color="#1c63b7" offset="0"/>
   <stop stop-color="#63c9f3" offset=".71"/>
   <stop stop-color="#66cef5" offset=".74"/>
   <stop stop-color="#65cdf5" offset=".77"/>
   <stop stop-color="#1fa8e7" offset="1"/>
  </linearGradient>
  <linearGradient id="N" x1="22.01" x2="40.72" y1="25.16" y2="25.16" href="#a">
   <stop stop-color="#1c63b7" offset="0"/>
   <stop stop-color="#5bcaf5" offset=".37"/>
   <stop stop-color="#73d2f6" offset="1"/>
  </linearGradient>
 </defs>
 <circle cx="512" cy="512" r="512" style="fill:#728dbe"/>
 <g transform="matrix(9.0014 0 0 9.0014 271.91 253.05)" style="fill:#fff">
  <g clip-path="url(#d)" style="fill:#fff">
   <path d="m7.98 48.73c-0.84 1.82-0.35 2.72 2.12 2.2 5.14-1.08 7.85-3.97 11.05-7.01l0.34-0.33c-0.18 1.16-0.29 2.5-0.34 3.99-0.1 3 0.62 7.24 1.96 9.29 0.59 0.86 1.47 1.03 2.66-0.27a29.2 29.2 0 0 1-2.08-5.94c-0.45-2.11-0.6-4.46-0.07-6.85l-1.77-0.59-0.29-0.09-0.74-0.24a31 31 0 0 0-1.18-0.35c-4.52 4.89-8.08 6.12-11.67 6.19z" fill="url(#e)" style="fill:#fff"/>
  </g>
  <g clip-path="url(#f)" style="fill:#fff">
   <path d="m4.82 32.09c2.71 2.1 7.44 4.08 10.92 4.38 2.22 0.19 4.69-0.13 6.48-1.31h0.02c0.4-0.72 0.62-1.7 0.29-3.11-0.32 1.41-2.94 2.94-6.61 2.43-2.1-0.18-4.43-1.35-6.29-2.52-1.85-1.17-2.78-2.01-3.15-2.29a1.8 1.8 0 0 0-1.18-0.46c-1.31 0-2.23 1.64-0.49 2.88z" fill="url(#c)" style="fill:#fff"/>
  </g>
  <g clip-path="url(#g)" style="fill:#fff">
   <path d="m12.81 14.35 0.09 0.41c0.21 0.82 0.48 2.46 1.2 4.79l3.77 4.57c5.24 6.4 5.27 9.42 4.36 11.03a5.16 5.16 0 0 0 1.96-2.2c0.89-2.2-0.84-5.26-3.01-8.11a639 639 0 0 0-8.37-10.49" fill="url(#h)" style="fill:#fff"/>
  </g>
  <g clip-path="url(#i)" style="fill:#fff">
   <path d="m30.13 2.09-0.55 6.06-0.22 3.23v1.05a1.5 1.5 0 0 0 0.04 0.35c0.06 0.27 0.23 0.37 0.33 0.4 0.12 0.03 0.4 0.04 0.58-0.29a3 3 0 0 0 0.15-0.36c0.1-0.27 0.21-0.67 0.34-1.15l0.85-3.51 1.25-5.59c0.33-1.5-0.38-2.29-1.17-2.29-0.73 0-1.53 0.68-1.6 2.09z" fill="url(#b)" style="fill:#fff"/>
  </g>
  <g clip-path="url(#j)" style="fill:#fff">
   <path d="m0.99 23.62c1.15 0.48 3.53 1.23 5.85 2.65a50 50 0 0 1 6.02 4.13c0.46 0.36 0.67 0.5 0.91 0.28 0.39-0.36-0.34-1.21-0.61-1.56-1.08-1.42-4.97-6.19-10.54-8.08a2.7 2.7 0 0 0-0.81-0.13c-1.78 0-2.58 2.04-0.82 2.71" fill="url(#k)" style="fill:#fff"/>
  </g>
  <g clip-path="url(#l)" style="fill:#fff">
   <path d="m23.16 4.68-0.56 2.06c1.52 3.26 2.33 5.91 2.34 9.11-0.03 4.88-2.15 14.23-5.2 14.22-1.18 0-2.74-3.22-4.16-6.55-1.91-4.45-2.36-7.53-2.68-8.76l-0.09-0.41-0.1-0.13c-0.93-1.08-2.07-0.43-2.11 0.65-0.05 1.41 1.76 6.85 2.84 9.44 2.29 5.5 4.15 8.32 6.03 8.23 2.43-0.12 4.73-3.55 6.13-7.78 1.16-3.5 1.88-6.83 1.88-9.11 0-4.25-1.5-7.71-3.94-12.45 0 0.09-0.21 0.91-0.37 1.48z" fill="url(#m)" style="fill:#fff"/>
  </g>
  <g clip-path="url(#n)" style="fill:#fff">
   <path d="m35.54 30.2c-3.84 0.7-6.5 1.69-6.98 1.88l-0.3 2.44 6.02-1.92a43 43 0 0 1 16.71-0.29c3 0.52 2.95-1.95 0.86-2.38-2.1-0.43-3.53-0.52-7.52-0.52-3.33 0-6.33 0.35-8.78 0.8z" fill="url(#o)" style="fill:#fff"/>
  </g>
  <g clip-path="url(#p)" style="fill:#fff">
   <path d="m43.64 2.51c-9.65 3.45-15.78 13.34-17.54 31.07-0.12 1.39 1.19 1.23 2.15 0.93 1.82-16.7 8.36-27.04 17.14-29.88 0.25-0.08 0.57-0.15 0.74-0.2-0.1-1.46-0.69-2.08-1.6-2.08-0.27 0-0.57 0.06-0.89 0.16" fill="url(#q)" style="fill:#fff"/>
  </g>
  <g clip-path="url(#r)" style="fill:#fff">
   <path d="m21.17 3.32c-1.85 6.26-1.91 11.06-1.17 14.15 1.21 5.04 5.5 10.96 6.56 12.35 0.13-0.91 0.28-1.81 0.44-2.68-0.9-1.15-3.84-6.02-4.73-9.7-0.92-3.85-0.59-7.68 0.9-12.75 0.16-0.57 0.36-1.4 0.37-1.48-0.29-0.62-0.75-0.88-1.18-0.88-0.53 0-1.03 0.39-1.18 1z" fill="url(#s)" style="fill:#fff"/>
  </g>
  <g clip-path="url(#t)" style="fill:#fff">
   <g clip-path="url(#u)" style="fill:#fff">
    <path d="m26.75 40.78h24.17v-6.93h-24.17z" fill="url(#v)" style="fill:#fff"/>
   </g>
  </g>
  <g clip-path="url(#w)" style="fill:#fff">
   <path d="m16.18 39.75c-3.59 2.49-6.94 6.22-8.19 8.97 0.96-0.02 1.92-0.12 2.91-0.35 2-2.93 5-5.8 7.71-7.55 4.25-2.96 7.04-4.04 7.72 2.64 0.39 3.45 0.17 7.82-1.65 10.48 0.36 0.97 0.76 1.89 1.11 2.65 1.96-2.1 3.19-6.89 2.9-11.22-0.42-3.63-0.86-8.95-5.02-8.95-1.74 0-4.14 0.93-7.47 3.33z" fill="url(#x)" style="fill:#fff"/>
  </g>
  <g clip-path="url(#y)" style="fill:#fff">
   <path d="m2.82 40.93c-3.05 1.18-2.22 4.1 1.04 2.79 6.13-2.53 11.55-2.57 16.98-0.84 6.43 2.06 10.23 3.37 15.49 9.15 1.58 1.85 3.41 0.96 2.84-1-0.78-3.25-10.94-8.49-17.39-10.31a37.6 37.6 0 0 0-9.89-1.32c-3.25 0-6.46 0.44-9.08 1.52z" fill="url(#z)" style="fill:#fff"/>
  </g>
  <g clip-path="url(#A)" style="fill:#fff">
   <path d="m29.71 38.39c-0.46 0.63-0.79 1.41-0.47 2.4 0.5 0.98 1.21 1.88 2.15 2.98l1.32 1.65c3.14 1.78 5.67 3.72 6.34 5.27-0.35-1.09-1.2-2.44-2.35-4.05-0.47-0.66-3.76-4.53-4.44-5.38-0.98-1.22-2.14-2.83-0.68-4.23a4.3 4.3 0 0 0-1.87 1.37z" fill="url(#B)" style="fill:#fff"/>
  </g>
  <g clip-path="url(#C)" style="fill:#fff">
   <path d="m37.52 37.12c-0.26 0.16-0.22 0.47-0.07 0.7 0.09 0.15 0.2 0.27 0.32 0.41l1.12 1.2 3.55 3.72 5.38 5.98c2.23 2.21 4.11-0.03 1.92-2.21l-6.25-5.91-3.58-2.82-1.23-0.82a2.6 2.6 0 0 0-0.44-0.23 1.2 1.2 0 0 0-0.41-0.09 0.6 0.6 0 0 0-0.29 0.07z" fill="url(#D)" style="fill:#fff"/>
  </g>
  <g clip-path="url(#E)" style="fill:#fff">
   <path d="m32.3 36.75c0.22 5.04 6.18 5.55 8.87 5.05l-1.82-1.9c-1.94 0.1-5.07-0.69-5.19-3.57-0.66 0.1-1.28 0.24-1.85 0.42z" fill="url(#F)" style="fill:#fff"/>
  </g>
  <g clip-path="url(#G)" style="fill:#fff">
   <path d="m41.63 39.49 1.85 1.52 0.16 0.13a27.7 27.7 0 0 0 6.14-3.32c-0.83-0.27-1.89-0.55-3.07-0.79-1.72 1.15-3.44 2-5.07 2.46z" fill="url(#H)" style="fill:#fff"/>
  </g>
  <g clip-path="url(#I)" style="fill:#fff">
   <g clip-path="url(#J)" style="fill:#fff">
    <path d="m28.87 30.08h17.51v-25.65h-17.51v25.64z" fill="url(#K)" style="fill:#fff"/>
   </g>
  </g>
  <g clip-path="url(#L)" style="fill:#fff">
   <g clip-path="url(#M)" style="fill:#fff">
    <path d="m32.58 34.33h19.05v-11.8h-19.05z" fill="url(#N)" style="fill:#fff"/>
   </g>
  </g>
 </g>
</svg>
