<?xml version="1.0" encoding="UTF-8"?>
<svg version="1.1" viewBox="0 0 1024 1024" xmlns="http://www.w3.org/2000/svg">
 <circle cx="512" cy="512" r="512" style="fill:#ff837d"/>
 <path d="m558.74 333.7c13.534 23.921 28.958 49.417 52.564 66.099 22.662 16.053 51.305 21.718 78.689 26.754 93.797 16.997 96.315 24.236 33.049 89.076-21.089 18.885-37.456 42.177-48.472 68.302-6.6099 26.754-6.9246 54.453-1.259 81.522 12.275 91.594 5.9804 96.315-77.43 57.915-25.495-13.534-53.508-21.718-82.151-23.292-28.013 2.2033-55.397 10.072-79.948 23.607-85.614 39.659-92.853 35.253-80.577-52.879 3.777-27.069 6.6099-56.341-2.2033-82.466-8.4984-26.125-29.272-47.213-48.158-66.728-64.84-66.728-62.951-74.282 27.384-90.964 28.328-3.7771 55.712-12.905 80.263-27.384 22.662-15.738 36.826-41.233 50.361-65.154 45.01-81.522 53.823-81.836 97.574-3.7771z" fill="#fff" style="stroke-width:31.476"/>
</svg>
