<?xml version="1.0" encoding="UTF-8"?>
<svg version="1.1" viewBox="0 0 1024 1024" xmlns="http://www.w3.org/2000/svg">
 <circle cx="512" cy="512" r="512" style="fill:#9abeff"/>
 <g transform="matrix(.99141 0 0 .99141 155.09 155.09)" style="fill:#fff">
  <path d="m170.37 373.43c12.074 0 23.348 4.7812 31.742 13.465l13.098-12.664c-11.859-12.266-27.781-19.02-44.84-19.02-34.391 0-62.367 27.977-62.367 62.367 0 34.391 27.977 62.367 62.367 62.367 14.047 0 27.82-4.8047 38.793-13.531l-11.34-14.258c-7.8711 6.2617-17.367 9.5703-27.453 9.5703-24.344 0-44.148-19.805-44.148-44.148s19.805-44.148 44.148-44.148" style="fill:#fff"/>
  <path d="m241.42 371.24h-18.219v108.7h72.508v-18.219h-54.289" style="fill:#fff"/>
  <path d="m350.9 460.55c-20.266 0-36.754-16.488-36.754-36.754 0-20.266 16.488-36.754 36.754-36.754 20.266 0 36.754 16.488 36.754 36.754 0 20.266-16.488 36.754-36.754 36.754m0-91.727c-30.312 0-54.973 24.66-54.973 54.973s24.66 54.973 54.973 54.973 54.973-24.66 54.973-54.973-24.66-54.973-54.973-54.973" style="fill:#fff"/>
  <path d="m488.7 434.39c0 15.07-12.258 27.328-27.328 27.328-15.066 0-27.328-12.258-27.328-27.328v-63.156h-18.219v63.156c0 25.113 20.434 45.547 45.547 45.547 25.117 0 45.547-20.434 45.547-45.547v-63.156h-18.219" style="fill:#fff"/>
  <path d="m557.05 459.05c-5.8945 0-10.359-0.53906-16.336-2.1445l0.53125-67.766c4.9062-2.3398 10.289-3.5625 15.805-3.5625 20.254 0 36.734 16.48 36.734 36.738 0 20.254-16.48 36.734-36.734 36.734m0-91.688c-10.621 0-20.934 3.0352-29.82 8.7852l-4.1211 2.668-0.71875 91.461 6.3594 2.0547c9.8945 3.2031 17.336 4.9375 28.301 4.9375 30.301 0 54.953-24.652 54.953-54.953 0-30.301-24.652-54.953-54.953-54.953" style="fill:#fff"/>
  <path d="m534.73 358.12c-4.9141 0-8.9609-3.9102-9.1016-8.8516-0.40235-14.344-6.0703-36.375-20.758-55.184-16.352-20.945-40.289-33.207-69.223-35.465-63.52-4.9531-89.254 45.465-89.508 45.973l-6.082 12.277-8.9688-10.359c-0.0508-0.0547-7.2773-8.1836-19.863-14.652-16.426-8.4492-33.98-10.285-52.168-5.457-46.047 12.211-53.008 58.305-53.07 58.77-0.69922 4.9844-5.3008 8.457-10.285 7.7617-4.9805-0.69922-8.457-5.3008-7.7578-10.285 0.0859-0.60547 2.1758-15 11.309-31.164 12.207-21.602 31.273-36.363 55.133-42.695 22.656-6.0078 45.449-3.5 65.918 7.2578 6.4844 3.4062 11.797 7.1524 15.801 10.383 4.0938-5.7188 10.266-13.156 18.758-20.379 15.719-13.375 42.742-28.668 82.199-25.594 43.172 3.3672 68.516 24.926 82.172 42.418 14.777 18.93 23.977 43.555 24.605 65.879 0.14453 5.0273-3.8203 9.2226-8.8476 9.3633-0.0859 4e-3 -0.17578 4e-3 -0.26172 4e-3" style="fill:#fff"/>
  <path d="m370.11 347.6c-1.0625 0.30078-2.0898 0.45312-3.0547 0.45312-5.5078 0-8.1875-4.9883-8.6445-8.3398-0.23829-1.7383-0.26954-6.9961 2.3867-10.406 1.3359-1.7148 3.1445-2.6758 5.5274-2.9453 0.51953-0.0547 1.0273-0.0859 1.5117-0.0859 3.4883 0 5.9609 1.4883 7.5547 4.5469 1.3008 2.4922 1.4805 5.0898 1.4805 5.1211 0.0234 0.39453 0.5 9.5976-6.7617 11.656m8.9141-28.34c-1.2383 0.0469-2.2031 1.0977-2.1524 2.3359l0.15625 3.8438c-2.3398-2.4062-5.457-3.6602-9.1914-3.6602-0.65235 0-1.3242 0.0391-2.0117 0.11328-3.6016 0.40625-6.4844 1.9688-8.5742 4.6484-3.4844 4.4727-3.6797 10.969-3.2969 13.781 0.82813 6.0742 5.5938 12.227 13.102 12.227 1.3789 0 2.8164-0.21093 4.2812-0.625 2.707-0.76562 4.9258-2.2539 6.5938-4.3789l0.14062 3.4336c0.0469 1.2109 1.043 2.1562 2.2422 2.1562 0.0312 0 0.0625 0 0.0937-4e-3 1.2422-0.0508 2.207-1.0938 2.1562-2.3359l-1.1992-29.383c-0.0508-1.2383-1.0977-2.207-2.3398-2.1524" style="fill:#fff"/>
  <path d="m482.46 347.6c-1.0664 0.30078-2.0938 0.45312-3.0547 0.45312-5.5117 0-8.1914-4.9883-8.6484-8.3398-0.23438-1.7383-0.26953-6.9961 2.3867-10.406 1.3359-1.7148 3.1445-2.6758 5.5312-2.9453 0.51953-0.0547 1.0273-0.0859 1.5078-0.0859 3.4883 0 5.9609 1.4883 7.5586 4.5469 1.2969 2.4922 1.4766 5.0898 1.4805 5.1289 8e-3 0.0976 0.55078 9.5742-6.7617 11.648m8.9141-28.34c-1.2422 0.0469-2.207 1.0977-2.1562 2.3359l0.16015 3.8438c-2.3398-2.4062-5.457-3.6602-9.1953-3.6602-0.64844 0-1.3242 0.0391-2.0078 0.11328-3.6016 0.40625-6.4883 1.9688-8.5781 4.6484-3.4844 4.4727-3.6758 10.969-3.293 13.781 0.82813 6.0742 5.5938 12.227 13.102 12.227 1.375 0 2.8164-0.21093 4.2773-0.625 2.7109-0.76562 4.9297-2.2539 6.5938-4.3789l0.14062 3.4336c0.0508 1.2109 1.0469 2.1562 2.2461 2.1562 0.0312 0 0.0625 0 0.0937-4e-3 1.2422-0.0508 2.207-1.0938 2.1523-2.3359l-1.1953-29.383c-0.0508-1.2383-1.1016-2.207-2.3398-2.1524" style="fill:#fff"/>
  <path d="m395.98 320.68c-3.2539 0-5.7383 1.2305-7.5781 2.9258-0.0898-1.1914-1.0976-2.1133-2.3086-2.0781-1.2383 0.0391-2.2148 1.0742-2.1797 2.3164l0.82422 27.781c0.0352 1.2188 1.0352 2.1836 2.2461 2.1836h0.0703c1.2422-0.0391 2.2148-1.0742 2.1797-2.3164l-0.58593-19.734c0.3125-1.2031 2.0078-6.582 7.332-6.582 4.5117 0 6.7188 3.25 6.7969 3.3711 0.66797 1.0469 2.0586 1.3555 3.1055 0.6875 1.0469-0.66796 1.3555-2.0586 0.6875-3.1055-0.14062-0.22266-3.5547-5.4492-10.59-5.4492" style="fill:#fff"/>
  <path d="m427.91 319.11c-1.1133 0.55079-1.5742 1.8984-1.0234 3.0117 3.1094 6.3164 3.7539 11.844 1.8242 15.559-1.1055 2.1172-3.0274 3.5352-5.2656 3.8789-3.2695 0.50782-6.4922-0.20703-8.4102-1.8633-1.4805-1.2812-2.2266-3.1328-2.2109-5.5078 0.0508-7.332 4.0703-13.367 4.1094-13.426 0.69922-1.0274 0.42969-2.4258-0.59375-3.1211-1.0273-0.69921-2.4258-0.4375-3.125 0.58985-0.19531 0.28906-4.8242 7.1914-4.8867 15.926-0.0234 3.6992 1.2774 6.793 3.7695 8.9453 2.3398 2.0195 5.6758 3.1172 9.2695 3.1172 0.91015 0 1.832-0.0703 2.7656-0.21484 3.668-0.56641 6.793-2.8438 8.5625-6.25 1.8516-3.5469 3.0391-9.832-1.7734-19.617-0.55078-1.1172-1.8984-1.5742-3.0117-1.0274" style="fill:#fff"/>
  <path d="m455.21 346.89c-1.2344 0.53125-2.6719 0.80859-4.1562 0.80859-2.3438 0-4.6758-0.69922-6.3984-1.9219-2.9219-2.0781-3.3281-5.5078-3.3281-8.9062v-0.0977c-4e-3 -0.0508-0.16406-4.9805 2.7226-7.9844 1.5352-1.5977 3.7539-2.4102 6.5938-2.4102 0.14454 0 0.29297 4e-3 0.44141 8e-3 6.9375 0.19531 8.3477 4.9609 8.8359 10.082 0.54297 5.6641-0.86719 8.7774-4.7109 10.422m6.8359-19.176c-2.1992-3.6719-5.9453-5.6875-10.836-5.8242-0.19141-4e-3 -0.38281-8e-3 -0.56641-8e-3 -4.1289 0-7.4453 1.2852-9.8672 3.8203-0.0352 0.0391-0.0703 0.0781-0.10547 0.11719l0.65625-27.797c0.0312-1.2383-0.95313-2.2695-2.1914-2.3008-1.2461-0.0273-2.2734 0.95703-2.3047 2.1953l-1.2344 52.332c-0.0312 1.2422 0.95312 2.2734 2.1953 2.3008h0.0547c1.2148 0 2.2148-0.97265 2.2461-2.1953l0.0586-2.6055c0.54297 0.60157 1.168 1.1719 1.8984 1.6914 2.5039 1.7773 5.6992 2.7578 9.0039 2.7578 2.0859 0 4.1367-0.40625 5.9258-1.1719 3.2539-1.3906 5.4883-3.668 6.6367-6.7617 0.83984-2.2617 1.0977-4.9492 0.78125-8.2266-0.24609-2.5859-0.71875-5.5977-2.3516-8.3242" style="fill:#fff"/>
 </g>
</svg>
