<?xml version="1.0" encoding="UTF-8"?>
<svg version="1.1" viewBox="0 0 1024 1024" xmlns="http://www.w3.org/2000/svg">
 <circle cx="512" cy="512" r="512" style="fill:#9abeff"/>
 <g transform="matrix(18.306 0 0 18.306 285.92 255.71)" style="fill:#fff">
  <path d="m12.4 6.25c0.145 0 0.269 0.02 0.372 0.063l5.344 3.138a0.992 0.992 0 0 0 0.788-0.018l4.955-2.785-11.495-6.648-11.513 6.648 5.029 2.822a0.88 0.88 0 0 0 0.362 0.073 0.804 0.804 0 0 0 0.362-0.073l5.417-3.147c0.127-0.048 0.254-0.073 0.38-0.073" fill="#5bca87" style="fill:#fff"/>
  <path d="m19.601 11.329a1.012 1.012 0 0 0-0.29 0.68v5.887a0.848 0.848 0 0 1-0.298 0.644l-0.136 0.127-4.964 2.966a1.03 1.03 0 0 0-0.308 0.217 0.94 0.94 0 0 0-0.28 0.662v5.488l11.375-6.594v-12.98l-4.782 2.676a1.2 1.2 0 0 0-0.318 0.227" fill="#ec5d3e" style="fill:#fff"/>
  <path d="m5.68 18.567a0.894 0.894 0 0 1-0.29-0.635v-5.922a0.972 0.972 0 0 0-0.29-0.68 1.63 1.63 0 0 0-0.317-0.227l-4.783-2.668v13.007l11.377 6.54v-5.488a0.894 0.894 0 0 0-0.281-0.662 0.926 0.926 0 0 0-0.317-0.217l-4.955-2.921-0.145-0.127z" fill="#2464f5" style="fill:#fff"/>
 </g>
</svg>
