<?xml version="1.0" encoding="UTF-8" standalone="no"?>
<svg
   viewBox="0 0 1024 1024"
   version="1.1"
   id="svg6"
   sodipodi:docname="BitGo.svg"
   inkscape:version="1.2.2 (732a01da63, 2022-12-09)"
   xmlns:inkscape="http://www.inkscape.org/namespaces/inkscape"
   xmlns:sodipodi="http://sodipodi.sourceforge.net/DTD/sodipodi-0.dtd"
   xmlns="http://www.w3.org/2000/svg"
   xmlns:svg="http://www.w3.org/2000/svg">
  <defs
     id="defs10" />
  <sodipodi:namedview
     id="namedview8"
     pagecolor="#505050"
     bordercolor="#eeeeee"
     borderopacity="1"
     inkscape:showpageshadow="0"
     inkscape:pageopacity="0"
     inkscape:pagecheckerboard="0"
     inkscape:deskcolor="#505050"
     showgrid="false"
     inkscape:zoom="0.83398438"
     inkscape:cx="368.11241"
     inkscape:cy="512"
     inkscape:window-width="1920"
     inkscape:window-height="1009"
     inkscape:window-x="1072"
     inkscape:window-y="479"
     inkscape:window-maximized="1"
     inkscape:current-layer="svg6" />
  <circle
     cx="512"
     cy="512"
     r="512"
     style="fill:#9abeff"
     id="circle2" />
  <path
     d="M493.48 490.33v-53.57c14.85 0 62.43-4.38 62.07 27.33-.36 30.24-47.18 26.63-62.07 26.24Zm-.36 27v59.03c17.78 0 74.04 4.01 74.4-29.15.37-34.66-56.58-29.88-74.4-29.88Zm250.79-207.69v104.53C743.92 704.94 511.99 784 511.99 784s-231.93-79.07-231.93-369.83V309.6c-.02-11.32 8.71-20.72 19.96-21.49 42.11-1.79 141.92-10.57 211.97-48.1 70.05 37.53 169.86 46.28 211.96 48.1 11.25.77 19.98 10.17 19.97 21.49v.04Zm-161.5 187.25c15.61-7.29 25.45-21.13 23.22-44.46-2.91-31.7-29.77-42.58-64.24-45.92v-44.45h-26.85v43h-21.78V361.7H465.9l.36 44.08c-5.81 0-53.72.36-53.72.36v28.05h34.11v141.75h-30.09l-.36 32.43s42.42-.36 48.63 0v44.46h26.51v-44.09c7.26.36 14.52.36 21.41.36v43.72h26.82v-44.45c45-2.18 76.22-13.48 80.59-55.75 3.26-33.89-12.34-49.56-37.75-55.74Z"
     style="fill:#fff"
     id="path4" />
</svg>
