<?xml version="1.0" encoding="UTF-8" standalone="no"?>
<svg
   viewBox="0 0 1024 1024"
   version="1.1"
   id="svg6"
   sodipodi:docname="Bitso.svg"
   inkscape:version="1.2.2 (732a01da63, 2022-12-09)"
   xmlns:inkscape="http://www.inkscape.org/namespaces/inkscape"
   xmlns:sodipodi="http://sodipodi.sourceforge.net/DTD/sodipodi-0.dtd"
   xmlns="http://www.w3.org/2000/svg"
   xmlns:svg="http://www.w3.org/2000/svg">
  <defs
     id="defs10" />
  <sodipodi:namedview
     id="namedview8"
     pagecolor="#505050"
     bordercolor="#eeeeee"
     borderopacity="1"
     inkscape:showpageshadow="0"
     inkscape:pageopacity="0"
     inkscape:pagecheckerboard="0"
     inkscape:deskcolor="#505050"
     showgrid="false"
     inkscape:zoom="0.83398438"
     inkscape:cx="368.11241"
     inkscape:cy="512"
     inkscape:window-width="1920"
     inkscape:window-height="1009"
     inkscape:window-x="1072"
     inkscape:window-y="479"
     inkscape:window-maximized="1"
     inkscape:current-layer="svg6" />
  <circle
     cx="512"
     cy="512"
     r="512"
     style="fill:#56595b"
     id="circle2" />
  <path
     d="M553.6 620.81c0-6.4-4.8-9.6-9.6-9.6-9.6 0-22.4 1.6-31.99 1.6-54.4 0-99.2-44.8-99.2-99.2V275.2a3.441 3.441 0 0 0-3.2-3.2H273.58l-1.6 1.6V512c-.18 132.37 106.99 239.82 239.36 240h.64c12.81 0 25.6-1.6 38.4-3.2a3.441 3.441 0 0 0 3.2-3.2V620.8ZM512 272.01c-12.81 0-27.2 1.6-40 3.2a3.441 3.441 0 0 0-3.2 3.2v124.8c0 6.4 4.8 11.19 9.6 9.6 4.8 0 31.99-1.6 31.99-1.6 54.4 0 99.2 44.8 99.2 99.2v216.01c-.02.86.67 1.58 1.53 1.6h.07c83.23-36.81 140.82-120.04 140.82-216 .18-132.37-106.99-239.82-239.36-240h-.64Z"
     style="fill:#fff"
     id="path4" />
</svg>
