<?xml version="1.0" encoding="UTF-8"?>
<svg version="1.1" viewBox="0 0 1024 1024" xmlns="http://www.w3.org/2000/svg">
 <circle cx="512" cy="512" r="512" style="fill:#9abeff"/>
 <style type="text/css">.st0{fill:#111316;}
	.st1{fill:#00C3FF;}
	.st2{fill:#7EE0FF;}</style>
 <g transform="translate(-569.75 12.976)">
  <path class="st1" d="m1236.3 386.3c10.2 14.3 18.4 29.9 24.5 46.4l21.8-7.1c-6.9-18.9-16.4-36.8-28.1-53.1z" style="fill:#fff"/>
  <path class="st1" d="m1087.2 283.2c-5.8-0.2-11.7-0.2-17.5 0l1.6 22.8c8.8-0.3 17.6-0.1 26.3 0.7s17.4 2.2 26 4.2l5.8-22.1c-9.8-2.3-19.7-3.9-29.7-4.8-4.1-0.4-8.4-0.7-12.5-0.8z" style="fill:#fff"/>
  <path class="st1" d="m873.74 599.5c-9.1-18.6-15.7-38.3-19.5-58.6l-23.9 3.8c4.2 23 11.6 45.3 22 66.2z" style="fill:#fff"/>
  <path class="st1" d="m861.44 369.6 21.2 11.8c10.6-17.8 23.5-34 38.5-48.3l-16.2-18c-17 16.1-31.6 34.4-43.5 54.5z" style="fill:#fff"/>
  <path class="st1" d="m831.44 447.5 23.8 4.2c4.2-20.3 11.2-39.9 20.7-58.3l-21.2-11.7c-10.8 20.8-18.6 42.9-23.3 65.8z" style="fill:#fff"/>
  <path class="st1" d="m986.54 262.8 9.5 22.2c19.3-7.6 39.5-12.5 60.1-14.5l-1.7-24.1c-23.3 2.2-46.1 7.7-67.9 16.4z" style="fill:#fff"/>
  <path class="st1" d="m915.14 305.8 16.2 18c15.8-13.4 33.3-24.6 52.1-33.4l-9.5-22.2c-21.3 9.7-41.1 22.4-58.8 37.6z" style="fill:#fff"/>
  <path class="st1" d="m1273.7 661.6-18.9-15.1c-13.4 15.8-28.9 29.7-46 41.4l13 20.5c19.4-13.1 36.9-28.8 51.9-46.8z" style="fill:#fff"/>
  <path class="st1" d="m979.14 704.7c-18.6-9.1-35.9-20.7-51.4-34.5l-16.5 17.7c17.4 15.6 37 28.6 58 38.8z" style="fill:#fff"/>
  <path class="st1" d="m1332 522.2c3.1-32.6-0.2-65.5-9.7-96.8l-23 7.6c13.2 44.4 12.7 91.7-1.3 135.8l22.8 8.1c5.7-17.7 9.5-36.1 11.2-54.7z" style="fill:#fff"/>
  <path class="st1" d="m1190.8 683.2-12.2-19.2c-15.1 9-31.3 16-48.3 20.7l5.4 22.2c19.4-5.4 37.9-13.3 55.1-23.7z" style="fill:#fff"/>
  <path class="st1" d="m891.14 522.8c-1.7-14.2-1.9-28.6-0.5-42.9 0.3-3.5 0.7-6.5 1.2-9.6l-22.5-4c-0.5 3.8-1 7.6-1.4 11.5-1.5 16.1-1.3 32.4 0.7 48.5z" style="fill:#fff"/>
  <path class="st1" d="m1144.8 278.7c19.9 5.8 38.9 14.4 56.4 25.4l13.5-20.2c-19.8-12.5-41.2-22.1-63.7-28.7z" style="fill:#fff"/>
  <path class="st1" d="m1046.4 749.8 2.3-24.1c-19.5-2.6-38.6-7.8-56.8-15.3l-10.1 22.2c20.6 8.5 42.4 14.3 64.6 17.2z" style="fill:#fff"/>
  <path class="st1" d="m927.94 651.7 15.7-16.6c-12.4-12.5-23.1-26.5-31.8-41.8l-20.3 10.7c9.9 17.4 22.2 33.5 36.4 47.7z" style="fill:#fff"/>
  <path class="st1" d="m1226.1 291.7-13.6 20.2c16.9 12 32 26.3 45.1 42.4l19.4-14.8c-14.7-18.3-31.8-34.3-50.9-47.8z" style="fill:#fff"/>
  <path class="st1" d="m1249.3 627.2c12-16.1 21.8-33.7 29.1-52.5l-21.5-7.7c-6.4 16.4-15 31.9-25.5 46z" style="fill:#fff"/>
  <path class="st2" d="m1267.2 443.6-21.6 7.2c6 20.7 8 42.4 6 63.8-1.1 11.9-3.4 23.7-6.9 35.2l21.5 7.6c4.1-13.2 6.9-26.9 8.2-40.7 2.3-24.6-0.2-49.4-7.2-73.1z" style="fill:#fff"/>
  <path class="st2" d="m1051.8 692 2.1-22.7c-13.3-2-26.4-5.5-38.9-10.5l-9.4 20.7c14.8 6 30.3 10.2 46.2 12.5z" style="fill:#fff"/>
  <path class="st2" d="m1208.4 450.2 20.4-6.9c-4.9-12.9-11.4-25.2-19.4-36.6l-17.1 13c6.6 9.5 12 19.7 16.1 30.5z" style="fill:#fff"/>
  <path class="st2" d="m1085 339.7h-11.2l1.5 21.4c11.5-0.3 22.9 0.7 34.2 3.2l5.5-20.7c-6.8-1.5-13.6-2.6-20.5-3.2-3.1-0.3-6.3-0.5-9.5-0.7z" style="fill:#fff"/>
  <path class="st2" d="m912.14 397.8 20 11.1c7.5-12.4 16.5-23.7 26.9-33.8l-15.4-17c-12.2 11.8-22.8 25.1-31.5 39.7z" style="fill:#fff"/>
  <path class="st2" d="m1130.4 333.5c13.8 4.2 27.1 10.2 39.4 17.7l12.7-19c-14.4-8.9-30-15.8-46.2-20.7z" style="fill:#fff"/>
  <path class="st2" d="m1212.5 388.5 18.1-13.8c-10.7-13.2-23.2-24.9-36.9-34.8l-12.7 19c11.8 8.5 22.3 18.4 31.5 29.6z" style="fill:#fff"/>
  <path class="st2" d="m1188.1 578.6 16.8 13.4c8.2-11.2 14.9-23.3 20.1-36.2l-20.2-7.2c-4.4 10.6-10 20.7-16.7 30z" style="fill:#fff"/>
  <path class="st2" d="m966.54 629.1-15.6 16.6c12.8 11.2 26.9 20.7 42.2 28.2l9.4-20.7c-13-6.4-25.1-14.6-36-24.1z" style="fill:#fff"/>
  <path class="st2" d="m945.84 514.2c-1-9.7-1.1-19.5-0.2-29.2 0.2-1.7 0.4-3.5 0.6-5.1l-21.1-3.8c-0.3 2.3-0.6 4.6-0.8 6.9-1.1 11.5-0.9 23 0.3 34.5z" style="fill:#fff"/>
  <path class="st2" d="m910.24 532-22.6 3.5c3.2 16.7 8.6 33 16 48.3l20.2-10.7c-6.3-13.1-10.8-26.9-13.6-41.1z" style="fill:#fff"/>
  <path class="st2" d="m1178.3 640.3 12.3 19.2c14-9.6 26.7-21 37.7-33.8l-17.9-14.2c-9.4 10.9-20.2 20.6-32.1 28.8z" style="fill:#fff"/>
  <path class="st2" d="m925.44 420.9-19.9-11c-7.8 15.1-13.5 31.2-17 47.8l22.5 4c3-14.2 7.8-27.9 14.4-40.8z" style="fill:#fff"/>
  <path class="st2" d="m1117.2 630.9 5 20.7c13.3-3.8 26.1-9.2 38.1-16.2l-11.6-18.1c-9.9 5.7-20.5 10.3-31.5 13.6z" style="fill:#fff"/>
  <path class="st2" d="m960.64 567.5-19 9.9c6.9 12 15.4 23 25.1 32.9l14.8-15.7c-8-8.2-15-17.3-20.9-27.1z" style="fill:#fff"/>
  <path class="st2" d="m1073.3 671.1c-1.9 0-3.8-0.2-5.7-0.4l-2.1 22.7c17.9 1.3 35.9 0.1 53.4-3.5l-5.3-22.2c-13.2 2.8-26.8 3.9-40.3 3.4z" style="fill:#fff"/>
  <path class="st2" d="m953.94 348.9 15.3 16.9c11.1-9.3 23.3-17.1 36.4-23.3l-9-21c-15.4 7.2-29.7 16.4-42.7 27.4z" style="fill:#fff"/>
  <path class="st2" d="m1009.3 316.1 9 21c13.5-5.2 27.6-8.7 42-10.3l-1.7-22.8c-16.9 1.9-33.5 5.9-49.3 12.1z" style="fill:#fff"/>
  <path class="st1" d="m1066.9 751.5c21.5 0.7 43-1.1 64.2-5.2l-5-23.3c-18.3 3.8-37 5.3-55.8 4.6-3 0-5.2-0.4-8.2-0.6l-2.1 24.4c2.3 0.1 4.6 0.1 6.9 0z" style="fill:#fff"/>
 </g>
</svg>
