<?xml version="1.0" encoding="UTF-8"?>
<svg version="1.1" viewBox="0 0 1024 1024" xmlns="http://www.w3.org/2000/svg">
 <circle cx="512" cy="512" r="512" style="fill:#f8c18c"/>
 <g transform="matrix(1.2266 0 0 1.2266 263 319.67)" style="fill:#fff">
  <path d="m364.4 62a50 50 0 0 1 26.6 14.5c20 20.5 20 53.6 0 74.1l-94 96.5c-6.1 6.1-14 9.6-22 10.5l56 56-289.5-62c-9.6-1.9-19-6.7-26.5-14.4a53.4 53.4 0 0 1 0-74.2l94-96.4c6.1-6.2 14-9.7 22-10.6l-56-56zm-96.8 188.3a44 44 0 0 0 2.7-2.6 37 37 0 0 0 0-52.3l-131.9-132c-1 0.7-1.9 1.6-2.8 2.4a37 37 0 0 0 0 52.3l132 132z" fill="#ff4300" style="fill:#fff"/>
 </g>
</svg>
