<?xml version="1.0" encoding="UTF-8"?>
<svg version="1.1" viewBox="0 0 1024 1024" xmlns="http://www.w3.org/2000/svg">
 <circle cx="512" cy="512" r="512" style="fill:#9abeff"/>
 <g transform="matrix(9.7888 0 0 9.7888 -104.78 -637.5)" fill="#4280f6" style="fill:#fff">
  <path d="m66.7 123.37c0 3.69 0.04 7.38-0.03 11.07-0.02 1.04 0.31 1.48 1.32 1.49 0.29 0 0.59 0.12 0.88 0.13 0.93 0.01 1.18 0.47 1.16 1.37-0.05 2.19 0 2.19-2.24 2.19-3.48 0-6.96-0.04-10.44 0.03-1.09 0.02-1.47-0.33-1.3-1.36 0.02-0.12 0.02-0.26 0-0.38-0.28-1.39 0.39-1.96 1.7-1.9 1.36 0.06 1.76-0.51 1.74-1.88-0.09-5.17-0.08-10.35 0-15.53 0.02-1.22-0.32-1.87-1.52-2.17-0.57-0.14-1.47-0.11-1.57-0.85-0.15-1.04-0.05-2.11 0.01-3.17 0.02-0.34 0.44-0.35 0.73-0.39 2.81-0.39 5.63-0.77 8.44-1.18 0.92-0.14 1.15 0.2 1.14 1.09-0.04 3.8-0.02 7.62-0.02 11.44z" style="fill:#fff"/>
  <path d="m62 95.21c0.19 2.16 1.85 3.24 2.82 4.74 0.25 0.38 0.48 0.11 0.67-0.16 0.21-0.31 0.6-1.21 1.15-1.28-0.35 1.38-0.04 3.15 0.16 4.45 0.49 3.05-1.22 5.64-4.07 6.18-3.38 0.65-6.22-2.21-5.6-5.62 0.23-1.24 1.37-2.5 0.77-3.7-0.85-1.7 0.54-0.52 0.79-0.22 1.04 1.2 1.21 0.09 1.45-0.55 0.24-0.63 0.31-1.31 0.47-1.97 0.19-0.77 0.55-1.4 1.39-1.87z" style="fill:#fff"/>
 </g>
</svg>
