<?xml version="1.0" encoding="UTF-8"?>
<svg version="1.1" viewBox="0 0 1024 1024" xmlns="http://www.w3.org/2000/svg">
 <circle cx="512" cy="512" r="512" style="fill:#728dbe"/>
 <path d="m521.6 769.78c-98.731 0-179.07-80.342-179.07-179.07v-88.828a13.319 13.319 0 0 1 13.319-13.319h63.522l-0.2363-205.62-49.988 30.784v117.08a13.319 13.319 0 0 1-26.638 0v-118.58c0-8.2491 4.3823-16.09 11.385-20.408l55.423-34.027a23.931 23.931 0 0 1 36.498 20.386l0.21482 210.44h75.616a102.23 102.23 0 0 1 102.1 102.13 102.23 102.23 0 0 1-102.1 102.1 102.23 102.23 0 0 1-102.13-102.1l-0.0645-75.509h-50.311v75.509c0 84.037 68.377 152.46 152.46 152.46a152.61 152.61 0 0 0 152.46-152.46 152.63 152.63 0 0 0-152.46-152.48h-23.115a13.319 13.319 0 0 1 0-26.638h23.115c98.731 0 179.07 80.342 179.07 179.07s-80.342 179.09-179.07 179.09zm-75.573-254.56 0.0859 75.487a75.573 75.573 0 0 0 75.487 75.487 75.573 75.573 0 0 0 75.487-75.487 75.573 75.573 0 0 0-75.487-75.509zm96.948 75.487a21.375 21.375 0 0 1-21.375 21.353 21.375 21.375 0 0 1-21.375-21.353 21.375 21.375 0 0 1 21.375-21.375 21.375 21.375 0 0 1 21.375 21.375z" style="fill:#fff;stroke-width:21.482"/>
</svg>
