<?xml version="1.0" encoding="UTF-8"?>
<svg version="1.1" viewBox="0 0 1024 1024" xmlns="http://www.w3.org/2000/svg">
 <circle cx="512" cy="512" r="512" style="fill:#9abeff"/>
 <g transform="matrix(14.683 0 0 14.683 312.13 247.19)" style="fill:#fff">
  <path d="m26.012 0.0083534c0.0406-0.0087918 0.0797-0.010466 0.1162-0.0058594 0.2553 0.032183 0.3946 0.36134 0.1895 0.56641l-14.385 14.394c-0.4452 0.445-0.6962 1.0499-0.6972 1.6796v19.095c0 0.1484-0.0894 0.2596-0.2051 0.3076-0.058 0.024-0.1224 0.0324-0.1856 0.0215-0.0632-0.011-0.1252-0.0413-0.1777-0.0938l-10.271-10.267c-0.18795-0.1879-0.29287-0.4415-0.29297-0.706v-17.817c3.5e-5 -0.89444 0.6238-1.6683 1.498-1.8584l24.409-5.3154zm1.0908 20.282c-1e-4 0.2645-0.1061 0.5173-0.2929 0.7041l-13.865 13.837c-0.0225 0.0225-0.049 0.0354-0.0761 0.04-0.0269 0.0046-0.0545 0.0014-0.0791-0.0088-0.0497-0.0205-0.0879-0.0686-0.0879-0.1318l0.0019-7.0547 4.6944-4.6474c0.6681-0.5771 0.9447-0.8221 1.3574-0.8457 0.0686-4e-3 0.1411-1e-3 0.2197 0.0068s0.1634 0.0206 0.2568 0.0391c0.3725 0.0735 0.7244 0.1279 1.0528 0.1464 0.1314 0.0074 0.259 0.0092 0.3828 0.0039 0.5571-0.0234 1.0356-0.1857 1.4228-0.5849 0.3372-0.3479 0.7632-0.8988 0.9815-2.2998 0.1523-0.984 0.2587-1.6064 0.4726-2.1778 0.214-0.5713 0.5309-0.9617 0.9112-1.3408v-9e-4l2.665-2.6778zm-0.1191-12.417c0.075 0.0312 0.1328 0.1039 0.1328 0.20019l-0.0195 3.1406-2.9961 3.1162c-0.5812 0.5648-1.153 1.3394-1.4092 1.9453-0.255 0.6049-0.5417 1.6086-0.6865 2.4717-0.1438 0.8621-0.1237 1.3847-0.8672 1.8535-0.1392 0.0877-0.2745 0.1358-0.4082 0.1563-0.0893 0.0137-0.1779 0.0155-0.2666 0.0078-0.4442-0.0385-0.8911-0.3023-1.4356-0.3633-0.0543-0.0061-0.1096-0.0101-0.166-0.0117l-9e-4 1e-3c-0.9022-0.0259-1.5528 0.6318-1.5547 0.6338l-4.6036 4.6191v-3.0908c0-0.3781 0.15-0.7419 0.418-1.0098l13.629-13.623c0.0342-0.03412 0.0743-0.05358 0.1153-0.06054 0.0405-0.00689 0.0819-0.00179 0.1191 0.01367zm-0.0557-5.7061c0.101 0.01171 0.1923 0.09381 0.1924 0.21387v3.1182h1e-3l-14.419 14.45v-3.085c1e-4 -0.3779 0.1501-0.741 0.418-1.0088l13.632-13.627c0.0506-0.05059 0.1152-0.06855 0.1757-0.06153z" fill="#d7e2f7" style="fill:#fff"/>
 </g>
</svg>
