<?xml version="1.0" encoding="UTF-8"?>
<svg version="1.1" viewBox="0 0 1024 1024" xmlns="http://www.w3.org/2000/svg">
 <circle cx="512" cy="512" r="512" style="fill:#f9de81"/>
 <g transform="matrix(17.48 0 0 17.48 256 357.04)">
  <path d="m8.39 14.8c0.67-0.56 0.78-1.25 0.78-1.87v-2.6h-3.64v3.53c0 0.51-0.41 0.92-0.91 0.92s-0.88-0.41-0.88-0.92v-10.01c0-0.51 0.38-0.91 0.88-0.91s0.91 0.41 0.91 0.91v3.56h3.63v-3.69c0.01-2.04-1.33-3.72-4.57-3.72-3.33 0-4.59 1.68-4.59 3.72v10.45c0 2.02 1.6 3.55 3.65 3.55h1.13zm14.33 0.41v-11.48h-2.51v-3.39h9.08v3.39h-2.52v13.97h-1.08z" style="fill:#fff"/>
  <path d="m24.35 17.73-8.85-7.41-9.16 7.41z" fill="#ffc400" style="fill:#fff"/>
  <path d="m14.53 8.32 0.98-5 0.97 5zm3.5-7.96h-5.07l-2.95 13.24 5.5-4.44 5.73 4.8z" style="fill:#fff"/>
 </g>
</svg>
