<?xml version="1.0" encoding="UTF-8"?>
<svg version="1.1" viewBox="0 0 1024 1024" xmlns="http://www.w3.org/2000/svg">
 <circle cx="512" cy="512" r="512" style="fill:#9abeff"/>
 <g transform="matrix(12.5 0 0 12.5 -637.24 -614.25)">
  <path d="m91.914 70.335c-8.2021 4.1943-15.099 0.1873-15.099 0.1873-17.243 29.632 15.102 39.327 15.102 39.333l0.04682 0.0103s32.343-9.6925 15.099-39.333c0 0-6.8957 4.007-15.099-0.18706zm-11.885 5.5418c0.70894 0 1.253 0.15388 1.4948 0.26863l-0.27808 1.0846c-0.27808-0.11584-0.66321-0.22398-1.1475-0.22398-1.0853 0-1.9272 0.65442-1.9272 1.9993 0 1.209 0.72542 1.9784 1.9345 1.9722 0.41217 0 0.86941-0.08969 1.1387-0.19695l0.20159 1.0668c-0.25082 0.1253-0.81577 0.26884-1.5509 0.26884-2.0888 0-3.1644-1.3091-3.1644-3.0303 0-2.062 1.4702-3.2092 3.2985-3.2092zm10.557 4.5e-4c1.8555 0.0037 2.8694 1.3884 2.8694 3.0571h-6.53e-4c0 1.9806-1.2018 3.1822-2.9678 3.1822-1.7931 0-2.8415-1.3539-2.8415-3.0747 0-1.8114 1.1563-3.1646 2.9406-3.1646zm13.066 0.05314c1.1472 0 1.8905 0.19784 2.484 0.63749 0.62848 0.46164 1.0332 1.209 1.0332 2.2774 0 1.1561-0.4212 1.954-1.0033 2.4471-0.63705 0.5289-1.6049 0.77972-2.7878 0.76939-0.70937 0-1.2108-0.0448-1.5513-0.08923v-5.9166h-0.0214c0.50141-0.08088 1.1563-0.12553 1.8465-0.12553zm-20.64 0.0449h1.3721v4.8949h2.4016v1.1475h-3.7737zm12.006 0h1.3658v3.4785c0 1.0332 0.39568 1.5608 1.0991 1.5684 0.71795 0 1.1126-0.50185 1.1126-1.5684v-3.4785h1.3627v3.3884c0 1.8652-0.9415 2.7526-2.5198 2.7526-1.5238 0-2.4203-0.84257-2.4203-2.77zm-4.4653 0.9912c-0.92656-0.0085-1.472 0.87073-1.472 2.0477h8e-3c0 1.1871 0.54956 2.0224 1.4728 2.0224 0.92282 0 1.4519-0.87867 1.4519-2.0528 0-1.0848-0.51923-2.0173-1.4607-2.0173zm13.25 0.01274c-0.30446 0-0.50188 0.02708-0.6186 0.05426v3.9533h-9e-3c0.11672 0.02202 0.30775 0.02202 0.48361 0.02662 1.237 0 2.0437-0.67247 2.0437-2.1154 0.01-1.2554-0.72607-1.9188-1.9006-1.9188zm-14.484 11.86c0.2065-0.0029 0.37895 0.0029 0.53569 0.01322v2.4376h5e-3c-0.35546 0-0.73179 1.8e-5 -1.2339 0.04152-2.8234 0.23016-4.0784 1.6731-4.4337 3.2626h0.06265c0.66893-0.69069 1.6105-1.0875 2.8861-1.0875 2.2798 0 4.1987 1.6047 4.1987 4.4339 0 2.6983-2.0701 4.9146-5.0195 4.9241-3.6179 0-5.3958-2.6975-5.3958-5.9397 0-2.5511 0.94128-4.6849 2.4051-6.0443 1.3596-1.2341 3.1167-1.903 5.2496-2.0075 0.29292-0.021 0.53349-0.0315 0.73999-0.03411zm11.606 0c0.20652-0.0029 0.37904 0.0029 0.53599 0.01322v2.4376h5e-3c-0.35546 0-0.73202 1.8e-5 -1.2339 0.04152-2.8234 0.23016-4.0784 1.6731-4.4339 3.2626h0.06266c0.66893-0.69069 1.6105-1.0875 2.8865-1.0875 2.2794 0 4.1987 1.6047 4.1987 4.4339 0 2.6983-2.0699 4.9146-5.019 4.9241-3.6181 0-5.3963-2.6975-5.3963-5.9397 0-2.5511 0.94107-4.6849 2.4049-6.0443 1.3598-1.2341 3.1167-1.903 5.2496-2.0075 0.29302-0.021 0.53356-0.0315 0.74009-0.03411zm-14.83 6.9265c-0.8571 0-1.5684 0.52256-1.8821 1.213-0.08353 0.1675-0.1253 0.41854-0.1253 0.79466 0.06265 1.4508 0.7474 2.7478 2.1983 2.7401h0.01845v-2.4e-4c1.1084 0 1.8197-1.0248 1.8197-2.4051 0-1.255-0.66937-2.3425-2.029-2.3425zm11.605 0c-0.85688 0-1.5685 0.52256-1.8819 1.213-0.08375 0.1675-0.1253 0.41854-0.1253 0.79466 0.06265 1.4508 0.7474 2.7478 2.1982 2.7401h0.01803v-2.4e-4c1.1086 0 1.82-1.0248 1.82-2.4051 0-1.255-0.66937-2.3425-2.029-2.3425z" style="fill:#fff;stroke-width:.21982"/>
 </g>
</svg>
