<?xml version="1.0" encoding="UTF-8" standalone="no"?>
<svg
   viewBox="0 0 1024 1024"
   version="1.1"
   id="svg6"
   sodipodi:docname="Control D.svg"
   inkscape:version="1.2.2 (732a01da63, 2022-12-09)"
   xmlns:inkscape="http://www.inkscape.org/namespaces/inkscape"
   xmlns:sodipodi="http://sodipodi.sourceforge.net/DTD/sodipodi-0.dtd"
   xmlns="http://www.w3.org/2000/svg"
   xmlns:svg="http://www.w3.org/2000/svg">
  <defs
     id="defs10" />
  <sodipodi:namedview
     id="namedview8"
     pagecolor="#505050"
     bordercolor="#eeeeee"
     borderopacity="1"
     inkscape:showpageshadow="0"
     inkscape:pageopacity="0"
     inkscape:pagecheckerboard="0"
     inkscape:deskcolor="#505050"
     showgrid="false"
     inkscape:zoom="0.83398438"
     inkscape:cx="368.11241"
     inkscape:cy="512"
     inkscape:window-width="1920"
     inkscape:window-height="1009"
     inkscape:window-x="1072"
     inkscape:window-y="479"
     inkscape:window-maximized="1"
     inkscape:current-layer="svg6" />
  <circle
     cx="512"
     cy="512"
     r="512"
     style="fill:#98dc9a"
     id="circle2" />
  <path
     d="M330.67 523.33c93.89 0 170 76.11 170 170H410c-93.89 0-170-76.11-170-170h90.67Zm453.33 0c0 93.89-76.11 170-170 170h-90.67c0-93.89 76.11-170 170-170H784ZM500.67 330.66c0 93.89-76.11 170-170 170H240c0-93.89 76.11-170 170-170h90.67Zm113.33 0c93.89 0 170 76.11 170 170h-90.67c-93.89 0-170-76.11-170-170H614Z"
     style="fill:#fff;fill-rule:evenodd"
     id="path4" />
</svg>
