<?xml version="1.0" encoding="UTF-8"?>
<svg version="1.1" viewBox="0 0 1024 1024" xmlns="http://www.w3.org/2000/svg">
 <circle cx="512" cy="512" r="512" style="fill:#8c72bd"/>
 <style type="text/css">.st0{fill:#FFFFFF;}</style>
 <path class="st0" d="m458.25 392.57c17.398-11.856 39.812-7.1956 36.061-3.6228-7.1512 6.8128 2.3634 4.7989 3.3898 17.37 0.75451 9.2594-2.2691 14.358-4.871 17.259-5.4314 0.71013-12.033 2.0361-19.983 4.6214-4.7046 1.5312-8.7934 3.2289-12.377 4.9376-0.94314-0.61582-1.9695-1.3703-3.1845-2.4189-12.272-10.641-11.861-29.404 0.96533-38.147m103.92 73.293c3.1568-2.4466 17.504-7.0569 30.785-8.627 6.9737-0.82109 16.915-1.2982 19.035-0.11096 4.2108 2.3246 4.2108 9.5202 1.326 16.167-4.1998 9.6533-10.136 20.322-16.86 21.198-10.968 1.448-21.337-4.4882-33.176-13.332-4.2275-3.1789-6.8239-10.879-1.1096-15.296m20.011-94.009c16.194 7.534 14.075 21.87 14.524 30.291 0.12205 2.4189 0.0832 4.05-0.12206 5.1706-2.2413-1.215-5.7864-2.1082-11.406-1.8585-1.6422 0.0666-3.24 0.26075-4.7878 0.50485-5.9751-3.2011-9.5479-9.4647-12.816-16.122-0.29959-0.61581-0.5326-1.165-0.75451-1.6976-0.0943-0.2441-0.19418-0.50486-0.28849-0.72677-0.0388-0.12205-0.0666-0.21637-0.11096-0.32733-1.792-5.6866-0.58808-6.8239 0.16644-8.577 0.78225-1.792 3.706-3.2677-0.61582-4.7601-0.37171-0.13869-0.83218-0.21636-1.3537-0.31623 2.8627-3.5506 11.434-4.4106 17.565-1.5811m-88.283 171.4c-17.448-11.201-35.501-27.268-43.396-36.161-1.326-0.99862-1.1096-5.4314-1.1096-5.4314 7.1235 5.5368 36.677 26.652 67.928 36.294 11.024 3.4064 27.939 4.6935 42.613-3.6228 11.212-6.3579 24.71-17.437 32.766-28.855l1.4757 2.5576c-0.0555 1.6976-3.7615 9.9696-5.6477 13.293 3.4064 1.9584 5.9473 2.491 9.7365 3.5284l25.875-4.0333c9.2872-15.001 15.945-39.196 8.8489-62.225-4.05-13.21-25.165-39.512-26.68-40.96-5.3038-5.0985 0.88766-24.793-9.6256-46.28-11.112-22.73-40.067-46.43-52.644-56.744 3.706 2.7074 26.53 11.911 37.171 24.755 0.99862-1.3259 1.4092-8.222 2.3246-9.9696-9.1374-11.967-9.8475-33.26-9.8475-38.952 0-10.436-5.3038-22.264-5.3038-22.264s9.1374 7.2344 11.501 19.695c2.7906 14.757 8.7379 26.38 16.605 36.217 14.891 18.547 28.339 28.061 35.135 21.21 8.1332-8.233-8.2497-45.06-29.176-65.615-24.427-23.989-30.813-20.899-45.143-15.784-11.434 4.0777-17.615 36.544-47.418 35.9-5.0486-0.58807-18.053-0.9043-24.483-0.84882 3.3509-4.6769 6.2247-8.2885 6.2247-8.2885s-9.9973 4.0222-18.519 9.1207l-0.65465-0.98198c2.8738-6.0583 5.964-9.8863 5.964-9.8863s-7.989 4.7989-15.279 10.547c1.326-7.2233 6.3468-11.8 6.3468-11.8s-10.092 1.8197-22.946 15.961c-14.608 3.9945-18.119 6.6186-29.759 11.773-18.929-4.1276-27.856-10.791-36.366-23.057-6.4799-9.3704-18.014-10.791-29.798-5.9473-17.182 7.1013-38.913 16.827-38.913 16.827s7.0846-0.28849 14.469 0.0277c-10.108 3.828-19.817 9.093-19.817 9.093s4.7323-0.16644 10.574-0.0666c-4.0333 3.3509-6.2636 4.9487-10.108 7.4952-9.2428 6.7129-16.738 14.469-16.738 14.469s6.2747-2.8572 11.911-4.4605c-3.939 9.0264-11.75 15.673-10.314 26.724 1.3814 10.092 13.77 30.88 29.759 43.64 1.3814 1.1096 23.223 21.321 39.701 13.021 16.466-8.2885 22.963-15.673 25.67-26.996 3.1845-13.004 1.3703-22.841-5.4314-51.068-2.2414-9.3149-8.0833-28.499-10.902-37.676l0.62691-0.44938c5.387 11.368 19.173 41.332 24.727 61.459 8.6713 31.384 5.964 47.307 1.9972 53.143-11.967 17.603-42.63 19.928-56.577 10.175-2.1359 33.792 5.4147 48.672 7.9723 56.167-1.2705 8.6159 4.3107 24.616 4.3107 24.616s0.62691-7.2733 3.1845-11.107c0.68239 8.5493 4.9931 18.707 4.9931 18.707s-0.26075-6.2747 1.6976-11.695c2.7628 4.6769 4.7878 5.7864 7.4009 9.2982 2.613 9.1374 7.8502 15.811 7.8502 15.811s-0.84882-4.8988-0.3828-9.9973c12.788 12.283 14.99 30.208 16.261 43.984 3.5839 37.87-59.712 67.984-71.978 91.673-9.2983 14.031-14.868 36.228 0.87656 49.315 38.058 31.606 23.44 40.305 42.491 54.197 26.136 19.051 58.835 10.519 69.964-4.9764 15.495-21.592 11.517-41.959 5.7587-61.01-4.4993-14.896-16.727-39.645-31.85-49.221-15.456-9.792-30.486-11.623-43.218-10.314l1.1762-1.3537c18.314-3.6394 37.459-1.6422 51.312 7.2899 15.728 10.108 30.114 27.445 37.637 54.02 8.5326-1.215 9.7365-1.7642 17.548-2.8738l-17.587-136.9zm10.164 171.6-2.025-18.985 39.551-60.328 44.899 13.115 38.608-64.483 46.28 30.53 35.162-73.742 12.499 134.3zm215.44-201.39-141.32 25.615c-3.5007 4.5104-12.155 12.433-16.316 14.497-17.848 8.9876-29.909 6.3856-40.333 3.6782-6.7018-1.6976-10.585-2.6519-16.15-5.154l-34.491 4.7324 20.938 174.69 242.08-43.64z" style="stroke-width:.55479"/>
</svg>
