<?xml version="1.0" encoding="UTF-8"?>
<svg version="1.1" viewBox="0 0 1024 1024" xmlns="http://www.w3.org/2000/svg">
 <circle cx="512" cy="512" r="512" style="fill:#ba6561"/>
 <g transform="translate(448.95 447.94)">
  <path d="m252.58-152.51c-35.789 4.6681-98.036 24.382-177.39 22.307a1032.2 1032.2 0 0 1-121.89-10.374c-1.0373 28.009 98.028 47.198 130.19 47.198a487.56 487.56 0 0 0 124.48-16.077l6.2302-3.1202-6.2302 12.967c-5.1868 12.967-8.2948 45.652-6.22 60.175 2.5934 20.747 26.975 54.98 35.274 72.615a172.72 172.72 0 0 1-46.681 206.94c5.1868-6.2241 8.2988-12.444 10.374-19.187 4.6681-15.042 3.106-31.639-3.6368-41.494-6.2241-9.3362-26.967-33.191-16.594-63.274-22.822 12.967-29.563 33.193-18.67 60.164 0 0-43.054-10.372-43.054-44.604-0.51868-25.934 12.448-62.241-15.56-77.801 10.892 28.527-3.6328 46.675-15.044 66.384-24.896 44.606-5.1827 69.505-1.0333 74.691a51.868 51.868 0 0 1-24.384-15.044c-23.859-29.046-13.482-58.092-8.8134-98.548 2.0747-15.56 3.1121-34.751 0-49.274-5.1868-23.34-20.743-30.079-26.967-32.154 18.154 22.822 3.6307 59.131-7.7801 85.065-21.266 47.718-39.425 68.465-21.79 114.11-12.448-2.5934-28.523-16.602-26.967-40.461 3.6307-60.685 0.51666-82.988-15.044-95.955 14.523 63.797-55.496 87.654-23.857 161.31l4.6701 8.2968a169.61 169.61 0 0 1-40.461-187.76c7.2615-18.672 29.046-53.944 31.121-74.691a171.16 171.16 0 0 0-10.374-59.648c-3.6307-7.2615-24.38-43.048-30.604-44.604-7.7801-5.7054-14.521-5.1868-21.264-5.1868-1.0374 0-2.0747 1.0414-2.5934 1.5601-4.1494 5.1868 2e-3 12.44 4.6701 17.627 2.5934 3.112 8.2988 10.382 12.967 18.68 7.2615 12.967 12.963 28.527 11.407 44.087v1.0333l-38.384-7.2635c-5.1868-1.0374-9.3341-2.5873-13.484-4.1433-4.1494-1.556-8.3008-3.1181-12.45-3.6368-8.2988-1.0374-18.148 10.378-19.704 17.12-1.0374 7.7801 9.3362 18.672 10.374 20.747 7.2615 8.2988 12.969 12.446 17.637 13.484a36.307 36.307 0 0 0 22.297-4.1535c3.1121-2.0747 7.2594-1.556 16.077 0l4.6701 0.52678c-8.8175 17.116-20.747 34.743-25.934 46.154a171.16 171.16 0 0 0-15.56 75.735c2.5934 82.988 70.027 151.45 161.83 174.27a268.16 268.16 0 0 0 150.42-5.1868h-0.52678c90.25-29.046 154.05-101.66 151.46-184.65a160.79 160.79 0 0 0-20.747-73.658c-6.2241-11.411-18.67-28.523-29.044-45.121l3.6267-0.51665c8.8175-2.0747 13.482-3.1161 16.594-1.5601a36.307 36.307 0 0 0 22.307 2.5934c4.6681-1.0374 10.369-5.7095 16.594-14.527h0.52677c1.556-1.556 10.886-12.965 9.3301-21.264-2.0747-6.7428-12.967-17.116-20.747-15.56-4.6681 1.0374-8.3008 2.5954-12.45 4.6701a1383.3 1383.3 0 0 1-50.308 14.527v-1.0434a78.839 78.839 0 0 1 8.8134-45.121c4.1494-8.2988 9.3422-16.083 11.417-19.714 4.1494-5.1868 8.2948-11.926 3.6267-16.594 0-1.0374-1.0353-2.0767-3.11-2.0767z" style="fill:#fff;stroke-width:5.1868"/>
 </g>
</svg>
