<?xml version="1.0" encoding="UTF-8"?>
<svg version="1.1" viewBox="0 0 1024 1024" xmlns="http://www.w3.org/2000/svg">
 <circle cx="512" cy="512" r="512" style="fill:#f8c18c"/>
 <path d="m721.39 256h-113.21a116.59 116.59 0 0 0-116.59 115.33v-92.937c0-12.673-9.7162-22.389-21.122-22.389h-94.627c-11.406 0-21.122 9.7162-21.122 22.389v468.49a21.122 21.122 0 0 0 21.122 21.122h94.627a21.122 21.122 0 0 0 21.122-21.122v-292.33a149.12 149.12 0 0 1 40.554-83.221c30.416-31.261 72.66-48.581 119.13-48.581 3.3796 0 5.9142 2.5346 5.9142 5.4918 0 3.3795-2.1122 5.9142-5.0693 6.3366-0.84488 0-64.634 10.139-100.96 61.254-12.251 17.32-20.277 37.175-23.657 59.564h84.066a116.17 116.17 0 0 0 116.17-116.17v-76.462c0-3.802-2.9571-6.7591-6.7591-6.7591" fill="#fd6400" style="fill:#fff;stroke-width:42.244"/>
</svg>
