<?xml version="1.0" encoding="UTF-8"?>
<svg version="1.1" viewBox="0 0 1024 1024" xmlns="http://www.w3.org/2000/svg">
 <circle cx="512" cy="512" r="512" style="fill:#9abeff"/>
 <path d="m467.08 423.79-23.26 5.2335v76.176c0 23.26 17.445 41.868 39.542 41.868 22.097 0 39.542-18.608 39.542-41.868 0-23.26-17.445-40.705-40.123-40.705-5.815 0-11.63 1.163-16.282 3.489v-44.194zm-0.5815 81.991c0-10.467 6.978-19.189 16.863-19.189 9.8855 0 16.863 8.7225 16.863 18.608 0 9.8855-6.978 19.771-17.445 19.771-10.467 0-16.282-8.7225-16.282-19.771m-118.04-81.41-22.678 5.2335v118.04h22.678zm-47.683 0c-30.819 0-44.775 18.608-44.775 40.705v82.573h22.678v-61.639h27.912v-20.352h-27.33c0-11.63 6.978-20.934 22.097-20.934h18.026v-20.352zm400.65 65.709c0 9.8855 7.5595 17.445 22.678 20.934h1.163c15.119 4.652 21.515 6.978 21.515 12.793l-2.326 4.652c-1.7445 1.7445-5.815 2.9075-9.304 2.9075-1.163 0-11.63 0-12.211-8.7225v-1.163l-22.678 5.815c4.0705 14.537 19.771 20.934 34.89 20.934 11.63 0 21.515-3.489 27.912-9.8855a23.26 23.26 0 0 0 6.978-17.445c0-16.863-16.863-20.352-30.819-23.841-9.8855-2.326-14.537-5.815-14.537-8.7225 0-3.489 2.9075-6.978 9.304-6.978 8.141 0 9.8855 4.0705 10.467 7.5595v0.58151l22.097-5.2335c-4.652-14.537-18.608-19.189-31.982-19.189-19.189 0-33.145 11.049-33.145 25.586zm-32.564-19.189v38.379c0 10.467-5.2335 16.863-15.119 16.863s-14.537-5.815-14.537-16.863v-43.612l-23.26 5.2335v38.379c0 23.26 15.7 38.96 37.797 38.96 5.815 0 10.467-1.163 15.119-2.9075v13.956c0 13.374-7.5595 17.445-14.537 17.445h-5.815v22.097h6.3965c22.678 0 36.634-15.119 36.634-39.542v-93.621l-23.26 5.2335zm-86.062 0v38.379c0 10.467-4.652 16.863-14.537 16.863-9.8855 0-15.119-5.815-15.119-16.863v-43.612l-22.678 5.2335v38.379c0 23.26 15.119 38.96 37.797 38.96 22.678 0 37.216-15.7 37.216-38.96v-43.612zm-172.12 0v38.379c0 10.467-4.652 16.863-14.537 16.863-9.8855 0-15.119-5.815-15.119-16.863v-43.612l-22.678 5.2335v38.379c0 23.26 15.119 38.96 37.797 38.96 5.815 0 10.467-1.163 14.537-2.9075v13.956c0 13.374-7.5595 17.445-13.956 17.445h-5.815v22.097h5.815c23.26 0 36.634-15.119 36.634-39.542v-93.621z" fill="#007cc2" style="fill:#fff;stroke-width:5.815"/>
</svg>
