<svg xmlns="http://www.w3.org/2000/svg" viewBox="0 0 1024 1024">
   <circle cx="512" cy="512" r="512" style="fill:#f58f8a"/>
   <path d="M767.74 512.08c0 141.35-114.35 255.96-255.38 255.96-56.974 0-109.6-18.706-152.08-50.302 24.888 13.988 64.627 30.25 115.01 30.261 59.278 0 116.34-22.486 159.79-62.833a235.9 235.9 0 0 0 74.663-154.91 177 177 0 0 0 1.066-16.797c.214-8.903-1.412-23.021-1.6-27.641l-.219.222a512 512 0 0 0-2.171-17.373h-185.29c-15.965 29.819-31.696 59.764-47.484 89.675h140.02a147.4 147.4 0 0 1-22.923 43.059 145.5 145.5 0 0 1-51.256 42.26 144.96 144.96 0 0 1-64.642 15.107c-17.158 0-34.183-3.11-50.28-9.065a146 146 0 0 1-69.61-53.634 147.03 147.03 0 0 1-26.38-83.986 146.8 146.8 0 0 1 11.13-56.123 147.6 147.6 0 0 1 31.7-47.593 145.5 145.5 0 0 1 47.487-31.773c17.778-7.331 36.798-11.153 55.997-11.153a145.47 145.47 0 0 1 86.237 28.172c14.133-26.398 28.09-52.887 42.075-79.364-73.053-47.706-166.58-50.682-242.61-8.443 42.434-31.195 94.749-49.68 151.37-49.68 141.04 0 255.38 114.61 255.38 255.96" style="fill:#fff"/>
</svg>
