<?xml version="1.0" encoding="UTF-8"?>
<svg version="1.1" viewBox="0 0 1024 1024" xmlns="http://www.w3.org/2000/svg">
 <circle cx="512" cy="512" r="512" style="fill:#f9de81"/>
 <path d="m511.97 256a160.67 160.67 0 0 0-130.7 254.2l4.7962 6.395 83.934 118.31s10.392 16.387 31.975 16.387h20.384c22.383 0 32.774-16.387 32.774-16.387l83.535-118.31 4.7962-6.395a161.47 161.47 0 0 0-131.5-254.2m66.348 209.04-4.7963 5.5956-61.552 87.532-61.552-87.532-4.3966-6.395a80.737 80.737 0 0 1-15.588-47.963 81.536 81.536 0 0 1 81.536-81.536 81.536 81.536 0 0 1 81.536 81.137 83.535 83.535 0 0 1-15.188 48.762m-111.91 259.8c0-24.381 19.585-44.365 45.165-44.365 26.379 0 44.765 19.185 44.765 43.966 0 23.981-19.185 43.966-45.165 43.966a43.966 43.966 0 0 1-43.966-43.966" fill="#00a082" style="fill:#fff;stroke-width:39.969"/>
</svg>
