<?xml version="1.0" encoding="UTF-8"?>
<svg version="1.1" viewBox="0 0 1024 1024" xmlns="http://www.w3.org/2000/svg">
 <defs>
  <style>.cls-2,.cls-3{fill:#0074bf}.cls-14,.cls-2,.cls-20,.cls-7{opacity:.5}.cls-10,.cls-12,.cls-17,.cls-21,.cls-3,.cls-4{opacity:.7}.cls-4,.cls-5,.cls-6{fill:#0082bf}.cls-15,.cls-18,.cls-5,.cls-8{opacity:.8}.cls-7,.cls-8,.cls-9{fill:#008fbf}.cls-10,.cls-11{fill:#009dbf}.cls-12,.cls-13{fill:#00abbf}.cls-14,.cls-15,.cls-16{fill:#00b9bf}.cls-17,.cls-18,.cls-19{fill:#00c6bf}.cls-20,.cls-21{fill:#00d4bf}</style>
 </defs>
 <circle cx="512" cy="512" r="512" style="fill:#96dfd3"/>
 <path d="m352.64 479.39 32.547-72.843c11.856-18.676 10.287-41.555-2.6929-54.535a33.302 33.302 0 0 0-5.7151-4.5721 35.957 35.957 0 0 0-30.048-3.5066 49.072 49.072 0 0 0-27.122 20.981s-44.558 103.96-61.142 150.68c-16.583 46.728-9.9578 132.42 53.974 196.48 67.806 67.806 165.99 83.305 228.6 36.305a39.269 39.269 0 0 0 7.3424-4.7852l192.96-161.13c9.3766-7.7493 23.248-23.713 10.791-41.924-12.147-17.765-35.162-5.6763-44.558 0.32935l-111.05 80.747a4.9983 4.9983 0 0 1-7.1681-0.83304c-2.8285-3.4678-3.3322-12.651 1.1043-16.293l170.23-144.47c14.704-13.251 16.758-32.508 4.8433-45.701-11.624-12.922-30.087-12.534-44.926 0.83305l-153.26 119.82a6.8 6.8 0 0 1-9.8028-1.2786c-3.0222-3.3903-4.1846-9.1829-0.77492-12.573l173.58-168.45a33.942 33.942 0 0 0 1.7048-47.929 32.411 32.411 0 0 0-23.577-10.093 34.562 34.562 0 0 0-24.371 9.6866l-177.36 166.61c-4.2427 4.2427-12.554 0-13.561-4.9595a5.4051 5.4051 0 0 1 1.5111-4.9595l135.77-154.58a33.457 33.457 0 1 0-47.212-47.367l-205.88 227.62c-7.3812 7.3812-18.25 7.7493-23.422 3.4678a7.7493 7.7493 0 0 1-1.3174-10.791z" fill="#fff" style="stroke-width:1.9373"/>
</svg>
