<?xml version="1.0" encoding="UTF-8"?>
<svg version="1.1" viewBox="0 0 1024 1024" xmlns="http://www.w3.org/2000/svg">
 <circle cx="512" cy="512" r="512" style="fill:#f8c18c"/>
 <g transform="translate(345.5 273.36)" style="fill:none">
  <path d="m91.299 112.79h-63.462c-22.588 0-40.874 18.286-40.874 40.874v300.1c0 22.588 18.286 40.874 40.874 40.874h63.462c22.588 0 40.874-18.286 40.874-40.874v-300.1c0-22.588-18.286-40.874-40.874-40.874m0-130.15h-63.462c-22.588 0-40.874 18.286-40.874 40.874v8.605c0 22.588 18.286 40.874 40.874 40.874h63.462c22.588 0 40.874-18.286 40.874-40.874v-8.605c0-22.588-18.286-40.874-40.874-40.874" fill="#ff8200" style="fill:#fff;stroke-width:1.0756"/>
  <path d="m304.27 112.79h-63.462c-22.588 0-40.874 18.286-40.874 40.874v300.1c0 22.588 18.286 40.874 40.874 40.874h63.462c22.588 0 40.874-18.286 40.874-40.874v-300.1c0-22.588-18.286-40.874-40.874-40.874m0-130.15h-63.462c-22.588 0-40.874 18.286-40.874 40.874v8.605c0 22.588 18.286 40.874 40.874 40.874h63.462c22.588 0 40.874-18.286 40.874-40.874v-8.605c0-22.588-18.286-40.874-40.874-40.874" fill="#d21f2a" style="fill:#fff;stroke-width:1.0756"/>
 </g>
</svg>
