<?xml version="1.0" encoding="UTF-8"?>
<svg version="1.1" viewBox="0 0 1024 1024" xmlns="http://www.w3.org/2000/svg">
 <circle cx="512" cy="512" r="512" style="fill:#ff837d"/>
 <g transform="matrix(5.1665 0 0 5.1665 256 288.28)">
  <path d="m49.5 6.7c-16.3-0.3-32 5.1-44.6 15.2v43a68.6 68.6 0 0 0 44.6 15.1c16.3 0.3 32-5.1 44.5-15.3v-43a69.3 69.3 0 0 0-44.5-14.9z" fill="#f9f9f9" style="fill:none"/>
  <path d="m96 16.7a71.3 71.3 0 0 0-46.6-16.7 71.3 71.3 0 0 0-46.6 16.7 7.3 7.3 0 0 0-2.8 5.8v41.6a7.6 7.6 0 0 0 3 5.8 70.6 70.6 0 0 0 46.6 16.7 70.5 70.5 0 0 0 46.6-16.7 7.6 7.6 0 0 0 2.9-6v-41.4a7.3 7.3 0 0 0-3-5.8zm-5.7 46.9a61.5 61.5 0 0 1-40.8 14.4 61.6 61.6 0 0 1-40.9-14.4v-40.6a62.4 62.4 0 0 1 40.9-14.4 62.3 62.3 0 0 1 40.8 14.4zm-6-34.9a2.2 2.2 0 0 0 0.8-3 2.3 2.3 0 0 0-3-0.8l-32.6 18.8-32.5-18.7a2.2 2.2 0 0 0-3 0.8 2.2 2.2 0 0 0 0.8 3l25.2 14.5-25.3 14.7a2.2 2.2 0 0 0-0.8 3 2.2 2.2 0 0 0 3 0.8l27.6-16 5 3 5-3 27.6 16a2.2 2.2 0 0 0 3-0.9 2.2 2.2 0 0 0-0.8-3l-25.3-14.5z" fill="#cc0717" style="fill:#fff"/>
 </g>
</svg>
