<?xml version="1.0" encoding="UTF-8"?>
<svg version="1.1" viewBox="0 0 1024 1024" xmlns="http://www.w3.org/2000/svg" xmlns:xlink="http://www.w3.org/1999/xlink">
 <defs>
  <linearGradient id="a" x1="2.4" x2="60.4" y1="78.8" y2="-5.3" gradientUnits="userSpaceOnUse">
   <stop stop-color="#ff670d" offset=".3"/>
   <stop stop-color="#ff5317" offset="1"/>
  </linearGradient>
  <linearGradient id="c" x1="121.3" x2="197.1" y1="254.5" y2="122.4" gradientUnits="userSpaceOnUse">
   <stop stop-color="#ff7207" offset="0"/>
   <stop stop-color="#ff7208" stop-opacity="0" offset="1"/>
  </linearGradient>
  <linearGradient id="e" x1="-38.5" x2="297.7" y1="291.6" y2="86.4" gradientUnits="userSpaceOnUse">
   <stop stop-color="#ff8000" offset="0"/>
   <stop stop-color="#ff4020" offset="1"/>
  </linearGradient>
  <radialGradient id="d" cx="-222.2" cy="719.2" r="1" gradientTransform="matrix(32 2 2 -34 5889.9 25146)" gradientUnits="userSpaceOnUse">
   <stop stop-color="#ff7307" offset="0"/>
   <stop stop-color="#ff7408" stop-opacity="0" offset="1"/>
  </radialGradient>
  <path id="b" d="M294.1 177.5 36.8 325.9v-63.6l201.9-116.5-36.6-21.2-193 111.2A18.4 18.4 0 0 0 0 251.7v106c0 6.6 3.5 12.7 9.2 16a18.4 18.4 0 0 0 18.4 0L340 193.4a18.4 18.4 0 0 0 0-31.9l-91.6-52.8-.6-.3-91.7-53a18.4 18.4 0 0 0-18.3 0L9.2 129.8a18.4 18.4 0 0 0 9.2 34.3c3.2 0 6.4-.8 9.2-2.5L147 92.6l147 84.9Z"/>
 </defs>
 <circle cx="512" cy="512" r="512" style="fill:#f8c18c"/>
 <g transform="matrix(1.3781 0 0 1.3781 298.05 252.75)">
  <path d="m18.4 58a18.4 18.4 0 0 1-9.2-34.3l36.8-21.2a18.4 18.4 0 0 1 25 6.7 18.4 18.4 0 0 1-6.7 25l-36.7 21.4a18.4 18.4 0 0 1-9.2 2.4" fill="url(#a)" style="fill:#fff"/>
  <use fill="url(#c)" style="fill:#ffffff" xlink:href="#b"/>
  <use fill="url(#d)" style="fill:#ffffff" xlink:href="#b"/>
  <path d="m294.1 177.5-257.3 148.4v-63.6l11.6-6.7-20.8-30.4-18.4 10.6a18.4 18.4 0 0 0-9.2 15.9v106c0 6.6 3.5 12.7 9.2 16a18.4 18.4 0 0 0 18.4 0l312.4-180.3a18.4 18.4 0 0 0 0-31.9l-91.6-52.8-0.6-0.3-91.7-53a18.4 18.4 0 0 0-18.3 0l-128.6 74.4a18.4 18.4 0 0 0 9.2 34.3c3.2 0 6.4-0.8 9.2-2.5l119.4-69 147 84.9z" fill="url(#e)" style="fill:#fff"/>
 </g>
</svg>
