<?xml version="1.0" encoding="UTF-8"?>
<svg version="1.1" viewBox="0 0 1024 1024" xmlns="http://www.w3.org/2000/svg">
 <circle cx="512" cy="512" r="512" style="fill:#f9de81"/>
 <path d="M256 .5V1024M768 0v1024m256-768H0m1024 512H0" style="fill:none;stroke-dasharray:2;stroke-miterlimit:10;stroke-width:2;stroke:#1ded7e"/>
 <path d="M128 .5V1024m768-.5V0" style="fill:none;stroke-dasharray:2;stroke-miterlimit:10;stroke-width:2;stroke:#1ded7e"/>
 <path d="m572.87 648.87h-110.26c-29.149 0-34.218-32.95-29.149-45.624 2.5347-6.3366 8.8713-15.208 15.208-22.812a147.01 147.01 0 0 0 70.97 19.01 148.28 148.28 0 0 0 148.28-148.28 147.01 147.01 0 0 0-49.426-110.26l3.802-2.5347a38.02 38.02 0 0 1 30.416-11.406l17.743 2.5346v-73.505h-30.416a84.911 84.911 0 0 0-78.574 53.228 147.01 147.01 0 0 0-41.822-6.3366 148.28 148.28 0 0 0-105.19 44.356 148.28 148.28 0 0 0-43.089 103.92 147.01 147.01 0 0 0 29.149 87.446l-8.8713 7.604a57.03 57.03 0 0 0-3.802 3.802 110.26 110.26 0 0 0-36.752 105.19c5.0693 21.545 24.079 45.624 43.089 57.03a86.178 86.178 0 0 0 45.624 13.941l122.93-5.0693a40.554 40.554 0 0 1 34.218 19.01l15.208 27.881 77.307-25.347-13.941-27.881a114.06 114.06 0 0 0-102.65-65.901zm-53.228-268.67a70.97 70.97 0 0 1 70.97 70.97 70.97 70.97 0 0 1-70.97 70.97 70.97 70.97 0 0 1-70.97-70.97 70.97 70.97 0 0 1 70.97-70.97z" fill="#191919" style="fill:#fff;stroke-width:1.2673"/>
</svg>
