<?xml version="1.0" encoding="UTF-8"?>
<svg version="1.1" viewBox="0 0 1024 1024" xmlns="http://www.w3.org/2000/svg" xmlns:xlink="http://www.w3.org/1999/xlink">
 <circle cx="512" cy="512" r="512" style="fill:#8c72bd"/>
 <g transform="translate(0 .00064628)">
  <g transform="matrix(60.47 0 0 60.47 256.09 256.06)">
   <path transform="matrix(1.6221 0 0 1.5633 -346.83 -307.74)" d="m214.85 198.34-0.695 6e-3c-0.293 0-0.39 0.184-0.319 0.449l0.64 2.845c0.142 0.526 0.236 0.62 0.332 0.62h0.186c0.366 0 0.496-0.22 0.639-0.62l1.012-2.845h-1.333c-0.095-0.213-0.128-0.454-0.462-0.454z" style="fill:#fff"/>
   <path transform="matrix(1.6221 0 0 1.5633 -346.83 -307.74)" d="m217.08 196.85h1.631c0.131 0 0.403 0.074 0.296 0.387l-1.356 4.547c-0.14 0.393-0.268 0.482-0.68 0.482h-2.165c0.113 0 0.232-0.22 0.375-0.62l1.289-4.36c0.094-0.25 0.22-0.436 0.61-0.436z" style="fill:#fff"/>
  </g>
 </g>
</svg>
