<?xml version="1.0" encoding="UTF-8"?>
<svg version="1.1" viewBox="0 0 1024 1024" xmlns="http://www.w3.org/2000/svg">
 <circle cx="512" cy="512" r="512" style="fill:#9abeff"/>
 <g transform="translate(.011159 .010752)">
  <path d="m396.99 727.3c-5.1209 0-11.406-3.6284-13.966-8.0632l-115-199.19c-2.5605-4.4347-2.5605-11.692 0-16.126l115-199.19c2.5605-4.4347 8.8453-8.0631 13.966-8.0631h230c5.1209 0 11.406 3.6284 13.966 8.0631l115 199.19c2.5605 4.4347 2.5605 11.693 0 16.126l-115 199.19c-2.5605 4.4347-8.8453 8.0632-13.966 8.0632z" fill="#1565c0" style="fill:none;stroke-width:19.429;stroke:#fff"/>
  <path d="m512 627.91c-63.148 0-114.52-51.375-114.52-114.52s51.375-114.52 114.52-114.52 114.52 51.375 114.52 114.52-51.375 114.52-114.52 114.52zm0-208.56c-51.853 0-94.039 42.186-94.039 94.039s42.186 94.039 94.039 94.039c51.853 0 94.039-42.186 94.039-94.039s-42.186-94.039-94.039-94.039z" fill="#e3f2fd" style="fill:#fff;stroke-width:.93113"/>
  <polygon transform="matrix(.93108 0 0 .93108 257.91 256.95)" points="377.17 321.54 377.17 316.26 336.53 316.39 336.53 230.29 272.9 296.92 209.02 230.42 209.02 316.42 176.23 316.43 181.73 335.93 230.73 335.93 230.73 283.93 272.9 326.92 314.87 283.05 314.87 335.8 362.78 335.93" fill="#e3f2fd" style="fill:#fff"/>
 </g>
</svg>
