<?xml version="1.0" encoding="UTF-8"?>
<svg width="1024" height="1024" fill="none" version="1.1" viewBox="0 0 1024 1024" xmlns="http://www.w3.org/2000/svg">
 <g clip-path="url(#clip0_2_2700)">
  <path d="m512 1024c282.77 0 512-229.23 512-512s-229.23-512-512-512-512 229.23-512 512 229.23 512 512 512z" fill="#ff837d"/>
  <path d="m458.15 617.7 18.8-107.3c-9.388-7.296-16.257-17.347-19.644-28.745-3.386-11.397-3.119-23.569 0.763-34.807s11.185-20.979 20.884-27.856c9.699-6.878 21.307-10.547 33.197-10.492v-119.1h-145.2c-14.929 8e-3 -29.245 5.942-39.801 16.499-10.557 10.556-16.491 24.872-16.499 39.801v275.8c-0.029 5.194 1.134 10.326 3.4 15 12.2 24.6 60.2 103.7 197.9 164.5v-178.9c-18.027 0.084-36.027-1.388-53.8-4.4zm198.7-328.7h-144.9v119.1c11.832-0.074 23.392 3.544 33.07 10.352 9.677 6.807 16.99 16.464 20.92 27.624 3.929 11.161 4.279 23.269 1 34.638-3.278 11.369-10.021 21.431-19.29 28.786l18.8 107.8c-17.983 3.114-36.199 4.686-54.45 4.7v178.6c137.5-60.5 185.7-139.9 197.9-164.5 2.266-4.674 3.429-9.806 3.4-15v-275.6c0.053-7.421-1.369-14.779-4.184-21.646-2.816-6.867-6.968-13.106-12.216-18.354-10.644-10.578-25.044-16.51-40.05-16.5z" fill="#fff"/>
 </g>
 <defs>
  <clipPath id="clip0_2_2700">
   <rect width="1024" height="1024" fill="#fff"/>
  </clipPath>
 </defs>
</svg>
