<?xml version="1.0" encoding="UTF-8"?>
<svg version="1.1" viewBox="0 0 1024 1024" xmlns="http://www.w3.org/2000/svg">
 <circle cx="512" cy="512" r="512" style="fill:#96dfd3"/>
 <g transform="matrix(8.1529 0 0 8.1529 256 307.76)">
  <path d="m6.8999-6.2631e-5a6.9 6.9 0 0 0-6.8999 6.8v43.5l9.5001-9.3001h46.4c3.8 0 6.8999-3.1 6.8999-6.8v-27.4a7 7 0 0 0-7-6.8h-48.9zm5.9002 9.4c1 0 1.7998 0.80008 1.7998 1.8001v19.4c0 1-0.79984 1.8001-1.7998 1.8001s-1.8001-0.80008-1.8001-1.8001v-19.4c0-1 0.80008-1.8001 1.8001-1.8001zm8.4999 0.50021h0.20004a2 2 0 0 1 1.9999 1.9999v0.099898a2 2 0 0 1-1.9999 2.0001h-0.20004a2 2 0 0 1-2.0001-2.0001v-0.099898c0-1.1 0.90011-1.9999 2.0001-1.9999zm10.2 3.3c0.6 0 1.0002 0.49994 1.0002 0.99994v1.9h2.8999c0.9 0 1.6999 0.70004 1.6999 1.6s-0.69994 1.6-1.6999 1.6h-2.8999v8.7c0 1.2 0.5999 1.2999 1.4999 1.2999l1.1001-0.099898 0.7-0.10014c0.7 0 1.6 0.60014 1.6 1.5001 0 0.6-0.40018 1.1-1.0002 1.4-0.9 0.4-1.6999 0.59987-2.6999 0.59987-3.2 0-4.9-1.4998-4.9-4.3998v-8.8001h-1.6999a1 1 0 0 1-1.0002-0.99994c0-0.3 0.10007-0.60004 0.40007-0.90004l4-4c0.2 0 0.49994-0.29993 0.99994-0.29993zm15.3 2.6c5.2 0 7.5999 4.1 7.5999 8 0 1-0.80008 1.8001-1.8001 1.8001h-9.5998c0.5 2.3 2.1 3.5999 4.7 3.5999 1.9 0 2.8998-0.40004 3.8998-0.90004l0.7-0.20004c0.9 0 1.6999 0.70004 1.6999 1.6 0 0.6-0.39994 1.0999-0.99994 1.4999-1.3 0.7-2.6999 1.4-5.4999 1.4-5.2 0-8.3001-3.0998-8.3001-8.3998-0.1-6.1 4.1001-8.4 7.6001-8.4zm-25.4 0.20004c1 0 1.8001 0.79984 1.8001 1.7998v12.8c0 1-0.80008 1.8001-1.8001 1.8001s-1.7998-0.80008-1.7998-1.8001v-12.8c0-1 0.79984-1.7998 1.7998-1.7998zm25.5 3.0999c-1.7 0-3.5998 1-3.8998 3.5h7.8998c-0.5-2.5-2.3-3.5-4-3.5z" style="fill:#fff"/>
 </g>
</svg>
