<?xml version="1.0" encoding="UTF-8"?>
<svg version="1.1" viewBox="0 0 1024 1024" xmlns="http://www.w3.org/2000/svg" xmlns:xlink="http://www.w3.org/1999/xlink">
 <circle cx="512" cy="512" r="512" style="fill:#8c72bd"/>
 <g transform="matrix(1.7069 0 0 1.7069 238.9 213.05)">
  <g transform="matrix(.97093 0 0 .951 34.424 35.891)">
   <g transform="matrix(2.1287 0 0 2 -90.126 15.218)" style="fill:none">
    <path transform="translate(5.8501 19.943)" d="m92.899-25.467-69.282 120a5 5 60 0 0 4.3301 7.5h138.56a5 5 120 0 0 4.3301-7.5l-69.282-120a5 5-180 0 0-8.6603 0z" style="fill:#fff"/>
    <path transform="translate(-.5188 .0736)" d="m103.62 27.033-43.301 75h17.32l12.99-22.5 12.99 22.5 12.992-22.5 12.99 22.5h17.32zm0 15 10.827 18.75a7.4998 7.4998 90 0 1 0 7.5005l-10.827 18.75-10.825-18.75a7.5009 7.5009 90 0 1 0-7.5008z" style="fill:#8c72bd"/>
    <path transform="matrix(1.0012 0 0 1.0031 5.7535 19.687)" d="m27.947 102.03h138.56a5 5 120 0 0 4.3301-7.5l-7.2169-12.5h-40.415l-12.99-22.5-12.99 22.5-12.99-22.5-12.99 22.5h-40.415l-7.2169 12.5a5 5 60 0 0 4.3301 7.5z" style="fill:#fff"/>
   </g>
  </g>
 </g>
</svg>
