<?xml version="1.0" encoding="UTF-8"?>
<svg version="1.1" viewBox="0 0 1024 1024" xmlns="http://www.w3.org/2000/svg">
 <circle cx="512" cy="512" r="512" style="fill:#f8c18c"/>
 <g transform="matrix(6.6477 0 0 6.6477 259.06 279.33)" style="stroke-linejoin:round">
  <path d="m71.9 0.5-29.4 21.6 5.5-12.8z" fill="#e17726" stroke="#e17726" style="fill:#fff;stroke:#fff"/>
  <g fill="#e27625" stroke="#e27625">
   <path d="m4.2 0.5 29 21.8-5.1-13zm57.1 50-7.8 11.8 16.7 4.7 4.8-16.2zm-60.2 0.3 4.9 16.1 16.7-4.6-7.8-11.8z" style="fill:#fff;stroke:#fff"/>
   <path d="m21.7 30.5-4.7 7 16.6 0.7-0.6-17.7zm32.8 0-11.6-10.2-0.3 17.9 16.5-0.8-4.7-7zm-32 31.8 10-4.8-8.5-6.5zm21-4.8 10 4.8-1.3-11.3z" style="fill:#fff;stroke:#fff"/>
  </g>
  <path d="m53.5 62.3-10-4.8 0.9 6.5-0.1 2.7zm-31 0 9.4 4.4-0.1-2.7 0.8-6.5z" fill="#d5bfb2" stroke="#d5bfb2" style="fill:#fff;stroke:#fff"/>
  <path d="m32 46.6-8.3-2.4 5.9-2.7zm12 0 2.5-5 6 2.6z" fill="#233447" stroke="#233447" style="fill:none"/>
  <path d="m22.6 62.3 1.4-11.8-9.2 0.3zm29.4-11.8 1.4 11.8 7.8-11.5zm7-13-16.5 0.7 1.5 8.4 2.5-5 5.9 2.6 6.6-6.8zm-35.3 6.8 5.9-2.8 2.3 5.1 1.6-8.4-16.6-0.8z" fill="#cc6228" stroke="#cc6228" style="fill:#fff;stroke:#fff"/>
  <path d="m17 37.4 7 13.6-0.3-6.7-6.7-6.8zm35.4 6.8-0.2 6.7 6.8-13.5-6.7 6.8zm-18.8-6-1.6 8.4 2 10 0.4-13.1zm9 0-0.9 5.2 0.4 13.2 2-10z" fill="#e27525" stroke="#e27525" style="fill:#fff;stroke:#fff"/>
  <path d="m44 46.6-1.8 10 1.3 1 8.7-6.7 0.2-6.7zm-20.3-2.4 0.2 6.7 8.7 6.6 1.4-1-2-9.9z" fill="#f5841f" stroke="#f5841f" style="fill:#fff;stroke:#fff"/>
  <path d="m44.3 66.7v-2.7l-0.7-0.7h-11l-0.8 0.7v2.7l-9.3-4.4 3.3 2.7 6.6 4.5h11.3l6.6-4.5 3.2-2.7z" fill="#c0ac9d" stroke="#c0ac9d" style="fill:#fff;stroke:#fff"/>
  <path d="m43.5 57.5-1.4-1h-8.1l-1.4 1-0.8 6.5 0.7-0.7h11.1l0.8 0.7-0.8-6.5z" fill="#161616" stroke="#161616" style="fill:none"/>
  <path d="m73.1 23.5 2.5-12-3.6-10.9-28.5 20.7 11 9.2 15.4 4.4 3.4-3.9-1.5-1 2.3-2.2-1.8-1.4 2.4-1.7zm-72.6-12 2.5 12-1.6 1.1 2.4 1.8-1.8 1.4 2.3 2.2-1.3 1 3.4 4 15.4-4.5 10.9-9.2-28.5-20.8z" fill="#763e1a" stroke="#763e1a" style="fill:#fff;stroke:#fff"/>
  <path d="m69.9 35-15.5-4.5 4.7 7-7 13.4 9.2-0.1h13.7l-5-15.8zm-48.2-4.5-15.4 4.5-5.3 15.8h23l-7-13.4 4.7-7zm20.8 7.7 1-16.9 4.5-12h-19.9l4.5 12 1 16.9 0.3 5.3v13h8.3v-13l0.4-5.3z" fill="#f5841f" stroke="#f5841f" style="fill:#fff;stroke:#fff"/>
 </g>
</svg>
