<?xml version="1.0" encoding="UTF-8" standalone="no"?>
<svg
   width="1024"
   height="1024"
   viewBox="0 0 1024 1024"
   fill="none"
   version="1.1"
   id="svg13"
   sodipodi:docname="MongoDB.svg"
   inkscape:version="1.2.2 (732a01da63, 2022-12-09)"
   xmlns:inkscape="http://www.inkscape.org/namespaces/inkscape"
   xmlns:sodipodi="http://sodipodi.sourceforge.net/DTD/sodipodi-0.dtd"
   xmlns="http://www.w3.org/2000/svg"
   xmlns:svg="http://www.w3.org/2000/svg">
  <sodipodi:namedview
     id="namedview15"
     pagecolor="#505050"
     bordercolor="#eeeeee"
     borderopacity="1"
     inkscape:showpageshadow="0"
     inkscape:pageopacity="0"
     inkscape:pagecheckerboard="0"
     inkscape:deskcolor="#505050"
     showgrid="false"
     inkscape:zoom="0.83398438"
     inkscape:cx="348.9274"
     inkscape:cy="512"
     inkscape:window-width="1920"
     inkscape:window-height="1009"
     inkscape:window-x="1072"
     inkscape:window-y="479"
     inkscape:window-maximized="1"
     inkscape:current-layer="svg13" />
  <g
     clip-path="url(#clip0_2_2835)"
     id="g6">
    <path
       d="M512 1024C794.77 1024 1024 794.77 1024 512C1024 229.23 794.77 0 512 0C229.23 0 0 229.23 0 512C0 794.77 229.23 1024 512 1024Z"
       fill="#98DC9A"
       id="path2"
       style="fill:#71a372" />
    <path
       d="M648.86 449.44C616.52 306.71 540.09 259.78 531.86 241.85C522.86 229.2 513.74 206.7 513.74 206.7C513.59 206.32 513.35 205.65 513.07 205C512.14 217.65 511.66 222.53 499.7 235.29C481.18 249.77 386.16 329.5 378.43 491.66C371.22 642.9 487.68 733.02 503.43 744.51L505.22 745.78V745.67C505.32 746.43 510.22 781.67 513.66 819.01H526C528.896 792.615 533.236 766.399 539 740.48L540 739.83C547.046 734.779 553.763 729.284 560.11 723.38L560.83 722.73C594.31 691.8 654.5 620.26 653.91 506.2C653.786 487.174 652.097 468.19 648.86 449.44ZM512.35 659.12C512.35 659.12 512.35 447 519.35 447.04C524.81 447.04 531.88 720.65 531.88 720.65C522.16 719.48 512.35 675.62 512.35 659.12Z"
       fill="white"
       id="path4" />
  </g>
  <defs
     id="defs11">
    <clipPath
       id="clip0_2_2835">
      <rect
         width="1024"
         height="1024"
         fill="white"
         id="rect8" />
    </clipPath>
  </defs>
</svg>
