<?xml version="1.0" encoding="UTF-8"?>
<svg version="1.1" viewBox="0 0 1024 1024" xmlns="http://www.w3.org/2000/svg">
 <circle cx="512" cy="512" r="512" style="fill:#ff837d"/>
 <g transform="matrix(2.2456 0 0 2.2456 177.4 298.67)" style="fill:none">
  <g>
   <title>Layer 1</title>
   <path d="m239 83c-11.183 0-20.58-7.649-23.244-18h-27.508c-5.866 0-10.872 4.241-11.836 10.027l-0.987 5.919c-0.936 5.619-3.779 10.509-7.799 14.054 4.02 3.545 6.863 8.435 7.799 14.054l0.987 5.919c0.964 5.786 5.97 10.027 11.836 10.027h3.508c2.664-10.351 12.061-18 23.244-18 13.255 0 24 10.745 24 24s-10.745 24-24 24c-11.183 0-20.58-7.649-23.244-18h-3.508c-11.732 0-21.744-8.482-23.673-20.054l-0.987-5.919c-0.964-5.786-5.97-10.027-11.836-10.027h-9.508c-2.664 10.351-12.061 18-23.244 18s-20.58-7.649-23.244-18h-13.512c-2.664 10.351-12.061 18-23.244 18-13.255 0-24-10.745-24-24s10.745-24 24-24c11.183 0 20.58 7.649 23.244 18h13.512c2.664-10.351 12.061-18 23.244-18s20.58 7.649 23.244 18h9.508c5.866 0 10.872-4.241 11.836-10.027l0.987-5.919c1.929-11.572 11.941-20.054 23.673-20.054h27.508c2.664-10.351 12.061-18 23.244-18 13.255 0 24 10.745 24 24s-10.745 24-24 24zm0-12c6.627 0 12-5.373 12-12s-5.373-12-12-12-12 5.373-12 12 5.373 12 12 12zm-180 36c6.627 0 12-5.373 12-12s-5.373-12-12-12c-6.6274 0-12 5.373-12 12s5.3726 12 12 12zm72-12c0 6.627-5.373 12-12 12s-12-5.373-12-12 5.373-12 12-12 12 5.373 12 12zm96 36c0 6.627-5.373 12-12 12s-12-5.373-12-12 5.373-12 12-12 12 5.373 12 12z" clip-rule="evenodd" fill="#ea4b71" fill-rule="evenodd" style="fill:#fff"/>
  </g>
 </g>
</svg>
