<?xml version="1.0" encoding="UTF-8" standalone="no"?>
<svg
   viewBox="0 0 1024 1024"
   version="1.1"
   id="svg6"
   sodipodi:docname="NameSilo.svg"
   inkscape:version="1.2.2 (732a01da63, 2022-12-09)"
   xmlns:inkscape="http://www.inkscape.org/namespaces/inkscape"
   xmlns:sodipodi="http://sodipodi.sourceforge.net/DTD/sodipodi-0.dtd"
   xmlns="http://www.w3.org/2000/svg"
   xmlns:svg="http://www.w3.org/2000/svg">
  <defs
     id="defs10" />
  <sodipodi:namedview
     id="namedview8"
     pagecolor="#505050"
     bordercolor="#eeeeee"
     borderopacity="1"
     inkscape:showpageshadow="0"
     inkscape:pageopacity="0"
     inkscape:pagecheckerboard="0"
     inkscape:deskcolor="#505050"
     showgrid="false"
     inkscape:zoom="0.83398438"
     inkscape:cx="348.9274"
     inkscape:cy="512"
     inkscape:window-width="1920"
     inkscape:window-height="1009"
     inkscape:window-x="1072"
     inkscape:window-y="479"
     inkscape:window-maximized="1"
     inkscape:current-layer="svg6" />
  <circle
     cx="512"
     cy="512"
     r="512"
     style="fill:#54688c"
     id="circle2" />
  <path
     d="M666.65 272H357.33c-47.12 0-85.33 38.21-85.33 85.33v309.35c0 47.12 38.21 85.33 85.33 85.33h309.32c47.14 0 85.35-38.21 85.35-85.33V357.33c0-47.12-38.21-85.33-85.35-85.33Zm-60.86 376.11c0 10-42.01 18.16-93.78 18.16s-93.81-8.16-93.81-18.16v-51.4c0 9.97 42.04 18.16 93.81 18.16s93.78-8.19 93.78-18.16v51.4Zm0-66.55c0 9.97-42.01 18.16-93.78 18.16s-93.81-8.19-93.81-18.16v-51.4c0 9.97 42.04 18.16 93.81 18.16s93.78-8.19 93.78-18.16v51.4Zm0-66.87c0 10.29-42.01 18.48-93.78 18.48s-93.81-8.19-93.81-18.48v-51.11c0 10 42.04 18.16 93.81 18.16s93.78-8.16 93.78-18.16v51.11Zm0-63.18c0 8.48-42.01 15.16-93.78 15.16S418.2 460 418.2 451.51v-33.32l93.81-60.49 93.78 60.49v33.32Z"
     style="fill:#fff"
     id="path4" />
</svg>
