<?xml version="1.0" encoding="UTF-8"?>
<svg version="1.1" viewBox="0 0 1024 1024" xmlns="http://www.w3.org/2000/svg">
 <circle cx="512" cy="512" r="512" style="fill:#728dbe"/>
 <style type="text/css">.st0{fill:#1F1E37;}
	.st1{fill:#FFFFFF;}
	.st2{fill:#02238F;}
	.st3{fill:#FA8080;}
	.st4{fill:#FFDB62;}</style>
 <g transform="matrix(2.6764 0 0 2.6764 244.36 388.71)">
  <path class="st1" d="m69.68 34.89c-2.66-2.92-5.95-4.39-9.86-4.39-2.41 0-4.63 0.46-6.67 1.39s-3.8 2.19-5.29 3.8c-1.48 1.62-2.65 3.5-3.51 5.68-0.86 2.17-1.29 4.52-1.29 7.06 0 2.49 0.4 4.76 1.19 6.81 0.8 2.04 1.91 3.79 3.35 5.25s3.15 2.6 5.13 3.42 4.15 1.23 6.51 1.23c1.07 0 2.06-0.08 2.96-0.23s1.76-0.4 2.58-0.74c0.82-0.35 1.62-0.79 2.42-1.32 0.79-0.54 1.62-1.22 2.48-2.03v8.67h-0.01v0.84h-10.92l-8.21 9.24v1.59h30.81v-49.75h-11.67zm-0.03 15.89c-0.41 0.92-0.95 1.73-1.61 2.42-0.67 0.69-1.46 1.22-2.38 1.61s-1.9 0.58-2.93 0.58c-1.08 0-2.08-0.19-3-0.58s-1.72-0.92-2.39-1.61-1.19-1.5-1.58-2.42-0.58-1.93-0.58-3c0-1.03 0.2-2 0.61-2.9s0.95-1.68 1.65-2.35c0.69-0.67 1.48-1.2 2.38-1.61s1.87-0.61 2.9-0.61c0.99 0 1.94 0.19 2.87 0.58 0.92 0.38 1.73 0.92 2.42 1.61s1.23 1.48 1.65 2.38c0.41 0.9 0.61 1.89 0.61 2.97-0.01 1.03-0.21 2.01-0.62 2.93z" style="fill:#fff"/>
  <path class="st1" d="m37.12 35.43c-0.62-0.73-1.32-1.36-2.07-1.92-0.67-0.49-1.38-0.92-2.15-1.27-0.37-0.17-0.76-0.31-1.17-0.44-0.59-0.19-1.23-0.32-1.89-0.43h-8.32l-5.5 6.27v-6.14h-11.67v33.08h11.67v-22.32h10.96l0.91-0.02v22.33h11.67v-20.69c0-1.76-0.17-3.33-0.51-4.71-0.34-1.37-0.98-2.61-1.93-3.74z" style="fill:#fff"/>
  <path class="st1" d="m115.67 31.41h-8.65-4.08l-5.06 5.7v-5.7h-11.68v33.08h11.7l0.01-22.14h8.49l9.27-10.48z" style="fill:#fff"/>
  <polygon class="st1" points="167.07 43.34 167.07 10.97 155.4 10.97 155.4 64.48 167.07 64.48 167.07 51.01 179.9 64.48 195.65 64.48 195.65 63.85 178.73 46.69 194.69 31.97 194.69 31.41 179.31 31.41" style="fill:#fff"/>
  <path class="st1" d="m146.28 35.18c-1.78-1.57-3.89-2.79-6.32-3.67s-5.06-1.32-7.9-1.32c-2.88 0-5.54 0.45-7.96 1.35-2.43 0.9-4.52 2.14-6.29 3.7-1.76 1.57-3.14 3.42-4.13 5.55s-1.48 4.42-1.48 6.87c0 2.71 0.49 5.17 1.48 7.38s2.35 4.11 4.1 5.7c1.74 1.59 3.81 2.82 6.22 3.68s5.03 1.29 7.87 1.29c2.88 0 5.55-0.43 8.03-1.29 2.47-0.86 4.59-2.07 6.35-3.65 1.76-1.57 3.15-3.44 4.16-5.61s1.52-4.56 1.52-7.19c0-2.62-0.5-5.02-1.48-7.19-1-2.16-2.39-4.03-4.17-5.6zm-7.29 15.66c-0.41 0.92-0.95 1.73-1.61 2.42-0.67 0.69-1.46 1.22-2.38 1.61-0.93 0.39-1.9 0.58-2.93 0.58s-2.01-0.19-2.94-0.58c-0.92-0.39-1.72-0.92-2.38-1.61-0.67-0.69-1.2-1.5-1.61-2.42s-0.61-1.94-0.61-3.06c0-1.03 0.2-2 0.61-2.9s0.94-1.69 1.61-2.38 1.46-1.23 2.38-1.61c0.93-0.39 1.9-0.58 2.94-0.58 1.03 0 2.01 0.19 2.93 0.58 0.92 0.38 1.72 0.92 2.38 1.61 0.67 0.69 1.2 1.5 1.61 2.42s0.61 1.9 0.61 2.93c0 1.07-0.2 2.07-0.61 2.99z" style="fill:#fff"/>
 </g>
</svg>
