<?xml version="1.0" encoding="UTF-8"?>
<svg fill="none" version="1.1" viewBox="0 0 1024 1024" xmlns="http://www.w3.org/2000/svg">
 <g clip-path="url(#clip0_2_2961)">
  <path d="m512 1024c282.77 0 512-229.23 512-512s-229.23-512-512-512-512 229.23-512 512 229.23 512 512 512z" fill="#728DBE" style="fill:#f9de81"/>
  <path d="m304.72 663.44c-31.775-44.094-48.824-97.09-48.72-151.44 0-142.49 114.62-258 256-258s256 115.51 256 258c0.104 54.354-16.949 107.36-48.729 151.45l-123-201.23-11.87 20.2 12 56.19-84.401-145.69-52.27 88.94 12.17 56.76-44.29-76.28-122.89 201.1z" fill="#fff"/>
 </g>
 <defs>
  <clipPath id="clip0_2_2961">
   <rect width="1024" height="1024" fill="#fff"/>
  </clipPath>
 </defs>
</svg>
