<?xml version="1.0" encoding="UTF-8"?>
<svg version="1.1" viewBox="0 0 1024 1024" xmlns="http://www.w3.org/2000/svg">
 <circle cx="512" cy="512" r="512" style="fill:#8c72bd"/>
 <g transform="translate(255.98 255.78)" style="fill:none">
  <g clip-path="url(#clip)">
   <path d="m165.9 478.3c41.4-84 40.2-144.2 22.6-187-16.2-39.6-46.3-64.5-70-80-0.6 2.3-1.3 4.4-2.2 6.5l-55.7 124.2a34 34 0 0 0 6.6 37.7l89.1 91.7a34 34 0 0 0 9.6 7z" fill="url(#logo-bottom-left)" style="fill:#fff"/>
   <path d="m278.4 307.8c11.2 1.2 22.2 3.6 32.8 7.6 34 12.7 65 41.2 90.5 96.3 1.8-3.1 3.6-6.2 5.6-9.2a1536 1536 0 0 0 44.8-70.6 17 17 0 0 0-1.3-19.2c-11-14.6-32-44.2-43.5-71.5-11.8-28.2-13.5-72-13.6-93.2 0-8.1-2.6-16-7.6-22.4l-88.5-112.4a34 34 0 0 0-1.5-1.7 96 96 0 0 1 2 54 198.3 198.3 0 0 1-17.6 41.3l-7.2 14.2a171 171 0 0 0-19.4 71c-1.2 29.4 4.8 66.4 24.5 115.8z" fill="url(#logo-top-right)" style="fill:#fff"/>
   <path d="m278.4 307.8c-19.7-49.4-25.8-86.4-24.5-115.9a171 171 0 0 1 19.4-71c2.3-4.8 4.8-9.5 7.2-14.1 7.1-13.9 14-27 17.6-41.4a96 96 0 0 0-2-54 34.1 34.1 0 0 0-48.1-2.4l-105.4 94.8a34.1 34.1 0 0 0-10.9 20.3l-12.8 85-0.5 2.3c23.8 15.5 54 40.4 70.1 80a147 147 0 0 1 7.8 24.8c28-6.8 55.7-11 82.1-8.3z" fill="url(#logo-top-left)" style="fill:#fff"/>
   <path d="m333.6 511c22.7 6.2 45.6-12 48.7-35.4a187 187 0 0 1 19.4-63.9c-25.6-55-56.5-83.6-90.4-96.3-36-13.4-75.2-9-115 0.7 8.9 40.4 3.6 93.3-30.4 162.2 4 1.8 8.1 3 12.5 3.3 0 0 24.4 2 53.6 4.1 29 2 72.4 17.1 101.6 25.2z" fill="url(#logo-bottom-right)" style="fill:#fff"/>
   <g clip-rule="evenodd" fill-rule="evenodd">
    <path d="m254.1 190c-1.3 29.2 2.4 62.8 22.1 112.1l-6.2-0.5c-17.7-51.5-21.5-78-20.2-107.6a174.7 174.7 0 0 1 20.4-72c2.4-4.9 8-14.1 10.5-18.8 7.1-13.7 11.9-21 16-33.6 5.7-17.5 4.5-25.9 3.8-34.1 4.6 29.9-12.7 56-25.7 82.4a177.1 177.1 0 0 0-20.7 72z" fill="url(#logo-top-edge)" style="fill:#8c72bd"/>
    <path d="m194.3 293.4c2.4 5.4 4.6 9.8 6 16.5l-5.3 1.1c-2.1-7.8-3.8-13.4-6.8-20-17.8-42-46.3-63.6-69.7-79.5 28.2 15.2 57.2 39 75.7 81.9z" fill="url(#logo-left-edge)" style="fill:#8c72bd"/>
    <path d="m200.6 315.1c9.8 46-1.2 104.2-33.6 160.9 27.1-56.2 40.2-110.1 29.3-160z" fill="url(#logo-bottom-edge)" style="fill:#8c72bd"/>
    <path d="m312.5 311c53.1 19.9 73.6 63.6 88.9 100-19-38.1-45.2-80.3-90.8-96-34.8-11.8-64.1-10.4-114.3 1l-1.1-5c53.2-12.1 81-13.5 117.3 0z" fill="url(#logo-middle-edge)" style="fill:#8c72bd"/>
   </g>
  </g>
 </g>
</svg>
