<?xml version="1.0" encoding="UTF-8"?>
<svg version="1.1" viewBox="0 0 1024 1024" xmlns="http://www.w3.org/2000/svg">
 <circle cx="512" cy="512" r="512" style="fill:#56595b"/>
 <g transform="matrix(7.3974 0 0 7.3974 164.37 421.4)" style="fill:none">
  <g fill="#fff">
   <path d="m81.6 24c6.6274 0 12-5.3726 12-12s-5.3726-12-12-12-12 5.3726-12 12 5.3726 12 12 12z"/>
   <path d="m12 24c6.6274 0 12-5.3726 12-12s-5.3726-12-12-12-12 5.3726-12 12 5.3726 12 12 12z"/>
   <path d="m26.4 24c6.6272 0 12-5.3728 12-12s-5.3728-12-12-12z"/>
   <path d="m67.2 24c-6.6272 0-12-5.3728-12-12s5.3728-12 12-12z"/>
   <path d="m52.8 0h-12v24h12z"/>
  </g>
 </g>
</svg>
