<?xml version="1.0" encoding="UTF-8" standalone="no"?>
<svg
   viewBox="0 0 1024 1024"
   version="1.1"
   id="svg6"
   sodipodi:docname="OpenVPN.svg"
   inkscape:version="1.2.2 (732a01da63, 2022-12-09)"
   xmlns:inkscape="http://www.inkscape.org/namespaces/inkscape"
   xmlns:sodipodi="http://sodipodi.sourceforge.net/DTD/sodipodi-0.dtd"
   xmlns="http://www.w3.org/2000/svg"
   xmlns:svg="http://www.w3.org/2000/svg">
  <defs
     id="defs10" />
  <sodipodi:namedview
     id="namedview8"
     pagecolor="#505050"
     bordercolor="#eeeeee"
     borderopacity="1"
     inkscape:showpageshadow="0"
     inkscape:pageopacity="0"
     inkscape:pagecheckerboard="0"
     inkscape:deskcolor="#505050"
     showgrid="false"
     inkscape:zoom="0.83398438"
     inkscape:cx="368.11241"
     inkscape:cy="512"
     inkscape:window-width="1920"
     inkscape:window-height="1009"
     inkscape:window-x="1072"
     inkscape:window-y="479"
     inkscape:window-maximized="1"
     inkscape:current-layer="svg6" />
  <circle
     cx="512"
     cy="512"
     r="512"
     style="fill:#f8c18c"
     id="circle2" />
  <path
     d="M597.2 505.5c0-47.7-38.4-86.1-86.1-86.1-47.7 0-86.1 38.4-86.1 86.1 0 37.2 23.3 68.5 55.8 80.2l-33.7 176.7H575l-32.5-176.7c31.4-12.9 54.7-43.1 54.7-80.2m186.8 5.8c0-148.8-122.1-269.7-272-269.7S240 362.4 240 511.3c0 98.8 53.4 184.8 133.7 231.3l17.4-115.1c-25.6-27.9-41.9-66.3-41.9-106.9 0-88.3 72-160.4 161.6-160.4s161.6 72 161.6 160.3c0 41.9-16.3 79-41.9 108.1L648 743.8c81.4-46.6 136-133.8 136-232.5"
     style="fill:#fff"
     id="path4" />
</svg>
