<?xml version="1.0" encoding="UTF-8"?>
<svg version="1.1" viewBox="0 0 1024 1024" xmlns="http://www.w3.org/2000/svg">
 <circle cx="512" cy="512" r="512" style="fill:#9abeff"/>
 <g transform="matrix(7.6798 0 0 7.6798 108.05 149.13)">
  <path d="m86.3 58.5c0 0.2-0.1 0.4-0.3 0.5-1.1 0.5-4.8 2.2-6.4 4.4-4 5.5-7 14.3-13.8 14.3h-28.5c-10.1 0-18.5-8-18.4-18.6 0-0.3 0.2-0.5 0.5-0.5h13.4c0.5 0 0.8 0.4 0.8 0.8v2.6c0 1.4 1.1 2.5 2.5 2.5h10.2v-5.9h-7a29.8 29.8 0 0 0-1.5-38.7c3 0.3 5.8 0.9 8.4 1.7v-1.7c0-1.7 1.4-3.1 3.1-3.1s3.1 1.4 3.1 3.1v4c9.5 4.4 15.8 11.8 15.8 20.2a19 19 0 0 1-5.8 13.3c-0.7 0.7-1.7 1.1-2.7 1.1h-7.2v5.9h9c1.9 0 5.4-3.7 7.1-5.9l0.3-0.2 16.6-3.8c0.3-0.1 0.7 0.2 0.7 0.5zm-50.7-32.6a23.2 23.2 0 0 1 1.2 26.7h-16.6" fill="#fff"/>
 </g>
</svg>
