<?xml version="1.0" encoding="UTF-8" standalone="no"?>
<svg
   viewBox="0 0 1024 1024"
   version="1.1"
   id="svg6"
   sodipodi:docname="OwnCube.svg"
   inkscape:version="1.2.2 (732a01da63, 2022-12-09)"
   xmlns:inkscape="http://www.inkscape.org/namespaces/inkscape"
   xmlns:sodipodi="http://sodipodi.sourceforge.net/DTD/sodipodi-0.dtd"
   xmlns="http://www.w3.org/2000/svg"
   xmlns:svg="http://www.w3.org/2000/svg">
  <defs
     id="defs10" />
  <sodipodi:namedview
     id="namedview8"
     pagecolor="#505050"
     bordercolor="#eeeeee"
     borderopacity="1"
     inkscape:showpageshadow="0"
     inkscape:pageopacity="0"
     inkscape:pagecheckerboard="0"
     inkscape:deskcolor="#505050"
     showgrid="false"
     inkscape:zoom="0.83398438"
     inkscape:cx="368.11241"
     inkscape:cy="512"
     inkscape:window-width="1920"
     inkscape:window-height="1009"
     inkscape:window-x="1072"
     inkscape:window-y="479"
     inkscape:window-maximized="1"
     inkscape:current-layer="svg6" />
  <circle
     cx="512"
     cy="512"
     r="512"
     style="fill:#9abeff"
     id="circle2" />
  <path
     d="M452.1 493.8H310c-21 0-38-17-38-38V313.7c0-21 17-38 38-38h142.1c21 0 38 17 38 38v142.1c0 21-17 38-38 38zM752 455.9V313.7c0-21-17-38-38-38H571.9c-21 0-38 17-38 38v142.1c0 21 17 38 38 38H714c21 0 38-17 38-37.9zM490.1 710.3V568.1c0-21-17-38-38-38H310c-21 0-38 17-38 38v142.1c0 21 17 38 38 38h142.1c21 .1 38-16.9 38-37.9zm261.9 0V568.1c0-21-17-38-38-38H571.9c-21 0-38 17-38 38v142.1c0 21 17 38 38 38H714c21 .1 38-16.9 38-37.9z"
     style="fill:#fff"
     id="path4" />
</svg>
