<?xml version="1.0" encoding="UTF-8"?>
<svg version="1.1" viewBox="0 0 1024 1024" xmlns="http://www.w3.org/2000/svg">
 <circle cx="512" cy="512" r="512" style="fill:#f8c18c"/>
 <path d="m676.96 426.41c10.049 0 18.193 8.1459 18.193 18.193 0 10.049-8.1444 18.195-18.193 18.195-10.049 0-18.195-8.1459-18.195-18.195 0-10.047 8.1459-18.193 18.195-18.193zm71.426 75.926c-1.8256 60.433-47.967 140.32-110.52 160.86-73.069 23.996-128.55-12.006-146.14-54.212-13.7-32.883-3.3475-72.221 22.225-88.872 21.592-14.06 61.804-17.774 95.598 4.4428-11.873-31.104-43.841-51.546-72.155-57.767-28.314-6.2212-57.542 0.88915-78.549 11.555 26.945-29.773 90.03-58.683 158.62-22.219 45.973 24.439 65.762 58.655 85.247 104.87 51.148-78.208 15.527-172.41-46.581-228.4-63.324-57.084-148.88-79.986-214.33-76.412 21.603 13.33 46.988 32.362 70.436 54.637-103.62-12.886-189.02 10.666-241.85 82.504 29.509-5.8198 68.421-9.4789 107.16-7.5667-75.492 53.188-119.33 142.65-97.047 236.01 13.621-23.804 33.994-52.398 58.238-78.313-7.4549 69.679 2.8958 163.88 92.493 224.74-4.5734-19.106-8.2718-42.34-9.9637-66.933 41.912 32.697 102.76 59.648 178.24 41.035 133.35-32.883 168.97-161.75 148.88-239.96" style="fill:#fff"/>
</svg>
