<?xml version="1.0" encoding="UTF-8"?>
<svg version="1.1" viewBox="0 0 1024 1024" xmlns="http://www.w3.org/2000/svg">
 <circle cx="512" cy="512" r="512" style="fill:#71a372"/>
 <style type="text/css">.st0{fill:#FFFFFF;}</style>
 <path class="st0" d="m391.3 747.22c-2.5222-11.89-7.5064-35.791-8.167-35.791-106.11-63.475-93.56-173.37-58.43-236.24 7.5064 79.148 147.61 133.79 65.937 230.54-0.66059 1.201 3.7232 16.334 7.5064 30.146 16.334-27.624 40.835-60.892 39.514-64.075-100.47-244.95 213.6-263.75 278.88-415.8 29.485 147.01-15.073 374.42-267.53 432.19-1.201 0.66056-45.819 79.148-47.741 79.809 0-1.201-18.856-0.66056-16.334-6.9059 1.3812-3.8433 3.8433-8.8276 6.3655-13.872zm-3.1227-59.031c32.008-37.112-5.6448-100.53-28.284-121.24 38.313 65.937 35.791 104.25 28.284 121.24z" style="stroke-width:.60052"/>
</svg>
