<?xml version="1.0" encoding="UTF-8"?>
<svg version="1.1" viewBox="0 0 1024 1024" xmlns="http://www.w3.org/2000/svg">
 <circle cx="512" cy="512" r="512" style="fill:#54688c"/>
 <g transform="matrix(.72429 0 0 .72429 170.46 115.49)">
  <ellipse cx="471.56" cy="390.28" rx="233.66" ry="207" fill="#37474f" style="fill:#fff"/>
  <path d="m705.22 849c-36.69 21.14-123.09 64.32-240.64 62.57a469.81 469.81 0 0 1-226.69-62.57v-454.24h467.33z" fill="#37474f" style="fill:#fff"/>
  <path d="m658.81 405.01v495.89a478.12 498.32 0 0 1-374.19 0v-495.89c0-99.587 83.78-180.31 187.1-180.31s187.09 80.722 187.09 180.31z" fill="#fff" style="fill:#54688c;stroke-width:1.0209"/>
  <polygon transform="matrix(1 0 0 1.0688 0 -35.375)" points="378.09 431.68 565.02 431.68 471.56 514.49" fill="#46509e" style="fill:#fff"/>
  <g fill="#37474f">
   <ellipse cx="378.09" cy="369.58" rx="23.37" ry="20.7" style="fill:#fff"/>
   <ellipse cx="565.02" cy="369.58" rx="23.37" ry="20.7" style="fill:#fff"/>
   <path d="m658.49 400.63c0-40-36.6-72.45-81.79-72.45s-81.78 32.41-81.78 72.45a64.79 64.79 0 0 0 7.9 31.05h-62.53a64.79 64.79 0 0 0 7.9-31.05c0-40-36.59-72.45-81.78-72.45s-81.79 32.41-81.79 72.45l-46.73-10.35c0-114.31 104.64-207 233.67-207s233.66 92.69 233.66 207z" style="fill:#fff"/>
  </g>
 </g>
</svg>
