<?xml version="1.0" encoding="UTF-8"?>
<svg version="1.1" viewBox="0 0 1024 1024" xmlns="http://www.w3.org/2000/svg">
 <circle cx="512" cy="512" r="512" style="fill:#9abeff"/>
 <path d="m702.33 339.32c-39.763-34.535-95.379-54.416-160.08-54.416-168.65 0-283.31 129.31-283.31 129.31l32.307 50.903s17.91 1.4568 8.3981-28.536c8.2267-15.339 24.166-35.992 55.445-59.815v339.35c-13.454 3.7706-31.279 10.883-19.11 22.966h92.808c12.254-12.169-7.027-19.538-18.853-22.966v-80.039s63.671 24.852 132.31 24.852c60.244 0 115.09-17.825 155.97-50.046a169.42 169.42 0 0 0 66.842-134.37 179.1 179.1 0 0 0-62.729-137.11zm-49.189 244.75a164.79 164.79 0 0 1-116.55 45.161c-52.788 0-97.264-10.112-126.57-24.509v-254.51c32.136-22.795 84.41-36.849 126.57-36.678 51.246 0 91.437 19.281 118.69 48.418 27.165 29.393 41.991 68.385 42.076 113.72a148.25 148.25 0 0 1-44.219 108.32z" fill="#0096fa" fill-rule="evenodd" style="fill:#fff;stroke-width:8.5695"/>
</svg>
