<?xml version="1.0" encoding="UTF-8"?>
<svg version="1.1" viewBox="0 0 1024 1024" xmlns="http://www.w3.org/2000/svg">
 <circle cx="512" cy="512" r="512" style="fill:#96dfd3"/>
 <path id="rectangle" transform="matrix(9.3485 0 0 9.3485 376.24 345.47)" d="m1.6513e-5 1.638e-5v30.592h24.009v-30.592h-24.009zm13.554 3.872a3.872 3.872 0 0 1 3.872 3.872 3.873 3.873 0 0 1-3.872 3.872 3.873 3.873 0 0 1-3.872-3.872 3.872 3.872 0 0 1 3.872-3.872zm-4.6479 10.456h10.456v3.1h-10.456v-3.1z" style="fill:#fff"/>
 <path transform="matrix(9.3485 0 0 9.3485 256.78 1222.5)" d="m16.932-98.073c-9.35 0-16.932 7.136-16.932 16.5v5.573 8.36e-4 5.573c0 9.362 7.5821 16.5 16.934 16.5h15.6a4.259 4.259 0 0 0 4.256-4.262v-5.3518h-7.2551c-7.52 0-14.945-5.3222-16.468-12.459h0.001045a12.817 12.817 0 0 1-2.09e-4 -6.27e-4 12.817 12.817 0 0 1 0-2.09e-4 12.817 12.817 0 0 1-0.28769-2.6761l-0.001044 0.002925c0-8.446 8.3199-15.136 16.756-15.136h7.253a4.259 4.259 0 0 0-4.256-4.2639h-15.6zm-9.9611 18.201a3.874 3.874 0 0 1 3.872 3.8728 3.873 3.873 0 0 1-3.872 3.872 3.872 3.872 0 0 1-3.872-3.872 3.875 3.875 0 0 1 3.872-3.8728z" style="fill:#fff"/>
 <path transform="matrix(9.3485 0 0 9.3485 -282.74 1514.4)" d="m82.495-120a1.163 1.163 0 0 0-1.162 1.161 1.164 1.164 0 0 0 1.162 1.163 1.164 1.164 0 0 0 1.162-1.163 1.163 1.163 0 0 0-1.162-1.161" fill="#fff" data-name="Path 533"/>
 <path d="m716.45 396.07a172.69 172.69 0 0 0-115.76-50.603v179.92l115.76 115.8a173.29 173.29 0 0 0 0-245.09m-115.76 184.71v86.062a124.34 124.34 0 0 0 64.159-21.904z" fill="#404953" style="fill:#fff;stroke-width:9.3485" data-name="Path 536"/>
 <path transform="matrix(9.3485 0 0 9.3485 -35.094 1222.5)" d="m44.288-76h-0.288v12.614a5.2 5.2 0 0 0 5.219 5.2l18.79-0.07v-5.284h-7.253c-7.52 0-14.945-5.322-16.468-12.459" fill="#3a4287" style="fill:#fff" data-name="Path 537"/>
</svg>
