<?xml version="1.0" encoding="UTF-8"?>
<svg version="1.1" viewBox="0 0 1024 1024" xmlns="http://www.w3.org/2000/svg">
 <circle cx="512" cy="512" r="512" style="fill:#f9de81"/>
 <g transform="translate(-55.303 33.849)">
  <g transform="matrix(1.0837 .0027096 .00065919 .92279 -805.82 -508.3)" style="fill:#3130ce">
   <path d="m1029.9 1208.3v-285.76h92.589c35.086 2.9e-4 57.957 1.4297 68.613 4.2883 16.374 4.2886 30.083 13.612 41.129 27.972 11.045 14.36 16.568 32.91 16.569 55.651-3e-4 17.543-3.184 32.293-9.5513 44.248-6.3678 11.956-14.457 21.344-24.268 28.167-9.8114 6.8226-19.785 11.338-29.921 13.547-13.775 2.729-33.722 4.0935-59.842 4.0934h-37.62v107.79zm57.698-237.42v81.089h31.578c22.741 2e-4 37.945-1.4943 45.612-4.4833 7.6669-2.9886 13.677-7.6668 18.03-14.034 4.3532-6.3674 6.5298-13.774 6.5301-22.221-3e-4 -10.396-3.0541-18.972-9.1615-25.73-6.1078-6.7572-13.84-10.981-23.196-12.67-6.8876-1.2993-20.727-1.949-41.519-1.9493z" style="fill:#fff;stroke-width:.6507"/>
   <path d="m1360.9 1208.3v-237.42h-84.792v-48.341h227.09v48.341h-84.597v237.42z" style="fill:#fff;stroke-width:.6507"/>
  </g>
 </g>
</svg>
