<?xml version="1.0" encoding="UTF-8"?>
<svg version="1.1" viewBox="0 0 1024 1024" xmlns="http://www.w3.org/2000/svg">
 <circle cx="512" cy="512" r="512" style="fill:#bd9aff"/>
 <path d="m768 396.69v272.85c0 29.013-23.68 52.523-52.949 52.523h-34.56v-274.07a62.4 62.4 0 0 0-62.507-62.165l-200.96 1.1307a20.117 20.117 0 0 1-11.733-3.6693l-44.651-31.445a62.251 62.251 0 0 0-36.139-11.435h-66.368a52.693 52.693 0 0 1 50.816-38.549h99.349c10.027 0 19.797 3.1573 27.84 9.0453l33.259 24.192c8.1067 5.888 17.856 9.0453 27.904 9.0453h217.75a52.715 52.715 0 0 1 52.949 52.544zm-108.86 51.307v274.13h-350.19a52.715 52.715 0 0 1-52.949-52.544v-307.84h68.48c8.5333 0 16.896 2.6027 23.851 7.5307l44.693 31.488a41.387 41.387 0 0 0 24.107 7.5307l200.58-1.1093a41.003 41.003 0 0 1 41.429 40.811z" style="fill:#fff;stroke-width:21.333"/>
</svg>
