<?xml version="1.0" encoding="UTF-8"?>
<svg version="1.1" viewBox="0 0 1024 1024" xmlns="http://www.w3.org/2000/svg">
 <circle cx="512" cy="512" r="512" style="fill:#9abeff"/>
 <path d="m579.67 572.11v150.02h-91.221v-24.469c0-12.459 4.48-24.555 12.629-34.048l78.592-91.477zm-105.17 125.53c0-15.808 5.6747-31.147 16-43.136l99.691-113.49c11.136-12.608 32.512-19.627 48.256-19.627h20.629v-115.9a40.939 40.939 0 0 0-41.131-40.832h-361.94v304.96c0 29.013 23.68 52.523 52.949 52.523h165.55v-24.469zm182.57-330.77c10.304 10.347 15.979 24.064 15.936 38.613v115.93h94.997v-167c0-29.013-23.68-52.523-52.949-52.523h-406.1a52.757 52.757 0 0 0-52.821 48.789h361.81c14.805 0 28.693 5.76 39.125 16.213zm7.2533 314.5c17.429 0 30.933-9.6213 30.933-24.235a20.331 20.331 0 0 0-16.853-20.715v-0.27734a20.523 20.523 0 0 0 10.347-7.3813 20.139 20.139 0 0 0 3.9467-12.053c0-13.483-11.712-23.061-28.651-23.061-21.12 0-29.525 15.189-30.187 25.813h17.984a11.52 11.52 0 0 1 12.309-10.56c6.784 0 11.712 4.1813 11.712 10.24 0 6.0373-4.544 10.091-15.616 10.091h-6.4v15.211h7.3813c11.435 0 17.216 3.7547 17.216 10.496s-5.5467 11.349-13.973 11.349a14.357 14.357 0 0 1-14.635-10.88h-18.624c1.344 15.637 14.571 26.069 33.088 25.963zm42.667-72.32v17.195l16.853-11.349v65.28h17.493v-85.077h-13.547l-20.779 13.973z" style="fill:#fff;stroke-width:21.333"/>
</svg>
