<?xml version="1.0" encoding="UTF-8"?>
<svg version="1.1" viewBox="0 0 1024 1024" xmlns="http://www.w3.org/2000/svg">
 <circle cx="512" cy="512" r="512" style="fill:#96dfd3"/>
 <path d="m472.61 686.01 18.527-27.64 140.64-212.44c12.308-18.571 0.56143-43.49-21.702-46.016l-349.04-40.143 180.8 325.09a18.139 18.139 0 0 0 30.749 1.1229h0.0217zm289.57-278.95-208.64 315.48c-22.371 33.837-72.987 31.916-92.702-3.4982l-2.0082-3.6278c6.4781-0.21593 12.827-1.857 18.463-5.0745a39.948 39.948 0 0 0 13.215-12.308l18.571-27.64 140.7-212.57c9.9331-14.986 11.337-33.686 3.7357-49.968a51.285 51.285 0 0 0-41.006-29.454l-349-40.1-10.279-1.166c-3.8869-32.606 23.408-63.745 59.75-59.577l410.09 46.642c40.078 4.5347 61.218 49.428 39.128 82.877z" style="fill:#fff;stroke-width:21.594"/>
</svg>
