<?xml version="1.0" encoding="UTF-8"?>
<svg version="1.1" viewBox="0 0 1024 1024" xmlns="http://www.w3.org/2000/svg">
 <circle cx="512" cy="512" r="512" style="fill:#8c72bd"/>
 <path d="m581.12 447.93 77.995-65.557v337.28h-350.17c-29.269 0-52.949-24.021-52.949-53.589v-261.95l161.71 136.11a46.635 46.635 0 0 0 61.248-0.896l102.23-91.392zm-116.39 75.477 38.592-34.475a52.011 52.011 0 0 1-25.131-11.371l-202.88-170.5a11.776 11.776 0 0 0-19.307 9.1947v59.968l175.49 147.69a25.301 25.301 0 0 0 33.237-0.51199zm300.52-214.89a11.755 11.755 0 0 0-16.555-1.4507l-68.245 57.344v355.26h34.624c29.248 0 52.928-24.043 52.928-53.611v-349.85a11.755 11.755 0 0 0-2.752-7.68z" style="fill:#fff;stroke-width:21.333"/>
</svg>
