<?xml version="1.0" encoding="UTF-8"?>
<svg version="1.1" viewBox="0 0 1024 1024" xmlns="http://www.w3.org/2000/svg">
 <circle cx="512" cy="512" r="512" style="fill:#728dbe"/>
 <g transform="translate(427.56 493.39)" style="fill:none">
  <path d="m208.84-21.35c3.7088-4.7307 5.9955-10.393 6.5972-16.34 0.60312-5.9469-0.50166-11.942-3.1886-17.302-2.1552-4.3577-5.2866-8.1779-9.1584-11.172-3.8703-2.9942-8.3809-5.0866-13.192-6.117-4.8093-1.0319-9.7944-0.97615-14.579 0.16299-4.785 1.1391-9.247 3.3315-13.047 6.4128-3.2872 2.6297-6.007 5.8798-8.0007 9.56-1.9923 3.6788-3.2186 7.7148-3.6045 11.868-0.27153 3.4773-1.2462 6.8673-2.8656 9.9716-1.6193 3.1028-3.8503 5.8554-6.5643 8.0993l-3.6988 2.857c-2.2767 1.8394-4.9951 3.0728-7.8949 3.5816-2.8999 0.50737-5.884 0.27441-8.6653-0.68029-2.7826-0.95328-5.268-2.594-7.2204-4.7664-1.9523-2.171-3.3043-4.8007-3.9289-7.6348 0 0-5.0766-22.143-8.4138-36.57-0.72031-3.4658-0.73175-7.0388-0.0343-10.509 0.69746-3.4701 2.0895-6.7702 4.0961-9.7043 2.3124-3.513 3.8888-7.4462 4.6349-11.567 0.74749-4.1212 0.65172-8.3481-0.28296-12.432-1.6908-7.9955-6.4171-15.054-13.213-19.736-6.7959-4.6821-15.15-6.6345-23.357-5.4591-8.2079 1.1755-15.651 5.3902-20.811 11.784-5.1609 6.3943-7.6491 14.486-6.9574 22.625 0.3573 5.1513 1.9837 10.139 4.7392 14.533s6.5558 8.0593 11.073 10.68c2.947 1.8337 5.4781 4.2447 7.4376 7.0831 1.9594 2.8384 3.3043 6.0441 3.9503 9.417 2.2481 10.856 5.2952 24.499 5.2952 24.499 0.67172 3.0628 0.47306 6.2499-0.57168 9.2098-1.0462 2.9599-2.8999 5.5796-5.3567 7.5705-2.4568 1.9923-5.4238 3.28-8.5752 3.7216-3.15 0.44164-6.3642 0.02066-9.2884-1.2177 0 0-13.492-5.8569-23.936-10.213-3.2543-1.4692-6.177-3.5673-8.5952-6.167-2.4168-2.6011-4.279-5.6539-5.4767-8.9754-1.8923-4.6378-4.8579-8.7753-8.6616-12.082-3.8035-3.3086-8.3396-5.6954-13.246-6.9702-4.9066-1.2763-10.048-1.4049-15.014-0.37588-4.9661 1.0276-9.6194 3.1843-13.589 6.2971-3.9696 3.1128-7.1453 7.0974-9.2743 11.632-2.1288 4.5363-3.1518 9.4999-2.9872 14.495 0.1645 4.9936 1.5121 9.8815 3.9352 14.272 2.4229 4.3905 5.8543 8.1622 10.02 11.016 4.5769 3.0085 9.8306 4.8722 15.305 5.4281 5.3888 0.55453 10.832-0.25726 15.813-2.3568 3.3296-1.2691 6.8875-1.8537 10.455-1.7179 3.5674 0.13434 7.0694 0.98615 10.291 2.5025l33.946 14.928c2.6726 1.1805 4.9965 3.0113 6.753 5.3195 1.7565 2.3082 2.887 5.0194 3.2857 7.8778 0.39875 2.857 0.05289 5.7683-1.0047 8.4566-1.059 2.6898-2.7955 5.0708-5.0451 6.9174l-4.6421 3.8574c-5.1294 4.239-11.749 6.3171-18.424 5.7854h-1.5235c-5.7883-0.59026-11.632 0.35873-16.922 2.7455-5.2906 2.3882-9.8345 6.1284-13.159 10.832-3.3248 4.7021-5.3092 10.197-5.7465 15.911-0.43748 5.714 0.68802 11.439 3.2593 16.58 2.1734 4.3434 5.3149 8.145 9.1899 11.125 3.8749 2.9785 8.3833 5.058 13.188 6.0813 4.805 1.0233 9.7829 0.96472 14.562-0.17149 4.7793-1.1376 9.2355-3.3215 13.037-6.3914 3.2743-2.6412 5.9869-5.894 7.9778-9.5714 1.9923-3.6773 3.2243-7.7077 3.6273-11.857 0.25297-3.503 1.2177-6.9202 2.837-10.05 1.6193-3.1285 3.8617-5.904 6.5929-8.1636 7.9778-6.2142 17.698-14.285 17.698-14.285 3.5359-2.8384 8.0679-4.1847 12.607-3.7431 4.5406 0.44163 8.7167 2.6355 11.621 6.0998l3.2629 4.0003c13.092 15.756 22.714 34.018 28.255 53.631 5.541 19.612 6.8816 40.145 3.9346 60.294-2.947 20.149-10.114 39.475-21.051 56.751-10.936 17.276-25.4 32.124-42.475 43.602l-0.58027 0.35729c0-4e-5 -213.11-139.21-213.11-302.35 0-55.693 22.468-109.11 62.461-148.49 39.993-39.381 94.234-61.505 150.79-61.505 56.558 0 110.8 22.124 150.79 61.505 39.992 39.381 62.461 92.794 62.461 148.49 0 5.4281 0 10.785-0.65315 16.143-6.5286 76.854-105.9 106.07-155.52 46.355l-0.58028-0.7146c-2.8827-3.4801-4.249-7.9435-3.8002-12.414 0.44877-4.4706 2.6755-8.5838 6.1942-11.442l17.046-13.928c2.7055-2.1352 5.824-3.7045 9.1669-4.6135 3.3415-0.90754 6.8373-1.1376 10.272-0.67172 5.5139 0.49165 11.065-0.3959 16.137-2.5812 5.0723-2.1852 9.5028-5.5968 12.877-9.9187z" fill="#0452fb" style="fill:#fff;stroke-width:14.292"/>
 </g>
</svg>
