<?xml version="1.0" encoding="UTF-8"?>
<svg version="1.1" viewBox="0 0 1024 1024" xmlns="http://www.w3.org/2000/svg">
 <circle cx="512" cy="512" r="512" style="fill:#728dbe"/>
 <g transform="matrix(0 10.613 -10.613 0 766.71 257.29)" fill="none" stroke="#444" stroke-linecap="square" stroke-miterlimit="10" stroke-width="2" style="fill:none;stroke:#fff">
  <polyline points="39 24 25 24 25 28" style="fill:none;stroke:#fff"/>
  <polyline points="35.879 10.121 32 14 25 14 25 18" style="fill:none;stroke:#fff"/>
  <path d="m13 26a10.29 10.29 0 0 1-7.2-3" style="fill:none;stroke:#fff"/>
  <path d="m17 31.6a5.826 5.826 0 0 1-4-5.6 5.731 5.731 0 0 1 2-4.4" style="fill:none;stroke:#fff"/>
  <path d="m35.879 37.879-3.879-3.879h-7v2a9.9 9.9 0 0 1-10 10 9.9 9.9 0 0 1-10-10 9.058 9.058 0 0 1 0.6-3.2 5.627 5.627 0 0 1-2.6-4.8 5.888 5.888 0 0 1 2.8-5 9.994 9.994 0 0 1-2.8-7 9.9 9.9 0 0 1 10-10h0.4a5.826 5.826 0 0 1 5.6-4 5.893 5.893 0 0 1 6 6" style="fill:none;stroke:#fff"/>
  <circle cx="38" cy="8" r="3" style="fill:none;stroke:#fff" data-color="color-2"/>
  <circle cx="42" cy="24" r="3" style="fill:none;stroke:#fff" data-color="color-2"/>
  <circle cx="38" cy="40" r="3" style="fill:none;stroke:#fff" data-color="color-2"/>
 </g>
</svg>
