<?xml version="1.0" encoding="UTF-8"?>
<svg version="1.1" viewBox="0 0 1024 1024" xmlns="http://www.w3.org/2000/svg">
 <circle cx="512" cy="512" r="512" style="fill:#71a372"/>
 <g transform="matrix(3.8032 0 0 3.8032 220.27 222.5)">
  <path d="m73.17 98.41c-13.6-0.04-24.59-11.09-24.55-24.69s11.09-24.59 24.69-24.55c13.55 0.04 24.52 11.02 24.55 24.57 0.03 13.6-10.98 24.64-24.57 24.66h-0.11" fill="#54565b" style="fill:#fff"/>
  <path d="m73.22 112.15c-21.21-0.03-38.38-17.24-38.35-38.45s17.24-38.38 38.45-38.35c21.2 0.03 38.37 17.24 38.35 38.44-0.02 21.21-17.23 38.38-38.44 38.36h-0.01m70.74 14.01c-2.29-1.95-14.75-12.72-18.73-16.11-0.57-0.49-0.57-0.85-0.15-1.45 8.42-12.69 12.02-26.62 10.26-41.76-1.95-17-9.68-30.92-22.96-41.71-11.36-9.21-24.48-13.66-39.36-13.87-0.68 0.03-1.69 0.09-2.69 0.13-5.84 0.22-11.61 1.3-17.14 3.21-11.93 4.11-21.88 10.98-29.47 21.04-12.23 16.19-15.93 34.28-10.99 53.93 3.5 13.94 11.27 25.23 22.68 33.91 22.05 16.78 52.52 17.01 74.82 0.57 0.44-0.32 0.76-0.6 1.33-0.11 3.6 3.07 16.81 14.15 19.79 16.65 0.4 0.33 0.72 0.67 1.25 0.03 3.79-4.52 7.6-9.02 11.42-13.51a0.54 0.54 0 0 0 0.15-0.74 0.51 0.51 0 0 0-0.22-0.19" fill="#009848" style="fill:#fff"/>
 </g>
</svg>
