<?xml version="1.0" encoding="UTF-8"?>
<svg version="1.1" viewBox="0 0 1024 1024" xmlns="http://www.w3.org/2000/svg">
 <defs>
  <linearGradient id="a" x1="14.079" x2="14.079" y1="1.349" y2="13.379" gradientUnits="userSpaceOnUse">
   <stop stop-color="#e98300" offset="0"/>
   <stop stop-color="#ef9f00" offset=".1"/>
   <stop stop-color="#f5b900" offset=".22"/>
   <stop stop-color="#f9cd00" offset=".36"/>
   <stop stop-color="#fddb00" offset=".51"/>
   <stop stop-color="#fee300" offset=".69"/>
   <stop stop-color="#ffe600" offset="1"/>
  </linearGradient>
  <linearGradient id="b" x1="27.887" x2="27.887" y1="12.582" y2="1.812" href="#a"/>
 </defs>
 <circle cx="512" cy="512" r="512" style="fill:#f9de81"/>
 <g transform="matrix(14.945 0 0 14.945 256 411.39)">
  <path d="m23.74 11.42c-4.23 1.75-6.98-0.56-8.78-2.66l-5.07-6.05a6.8 6.8 0 0 0-5.46-2.71h2.24c2.15-0.02 4.17 0.99 5.46 2.71l5.07 6.05a6.9 6.9 0 0 0 6.54 2.66" fill="url(#a)" style="fill:#fff"/>
  <path d="m25.38 9.72 5.43-6.47a16.3 16.3 0 0 1 3.45-3.23h-6.67c-2.15-0.02-4.17 0.99-5.46 2.71l-4.51 5.38c2.02 2.35 5.91 3.79 7.75 1.61z" fill="url(#b)" style="fill:#fff"/>
  <path d="m23.74 11.42c-4.23 1.75-6.98-0.56-8.78-2.66l-5.08-6.05a6.77 6.77 0 0 0-5.45-2.71h-4.43l1.85 1.49 1.97 1.73c0.73 0.74 1.13 1.32 1.67 2.06 1.52 2.07 2.69 3.63 4.31 5.15 1.27 1.19 1.96 1.6 2.4 1.84 2.04 1.09 3.93 1.11 4.95 1.11 3.12 0 5.48-1.25 6.6-1.96z" fill="#003478" style="fill:#fff"/>
 </g>
</svg>
