<?xml version="1.0" encoding="UTF-8"?>
<svg version="1.1" viewBox="0 0 1024 1024" xmlns="http://www.w3.org/2000/svg">
 <circle cx="512" cy="512" r="512" style="fill:#728dbe"/>
 <path d="m341.14 442.5c20.271 0 30.697-6.3711 30.697-28.959 0-11.005-5.7919-15.638-17.376-15.638h-9.8462l-9.8461 44.597zm139 30.697v-16.217l-1.1584-31.276 1.1584-28.38a301.18 301.18 0 0 1-12.742 34.172l-19.113 41.701zm90.353 62.552c-31.276 0-47.493-15.059-47.493-44.018 0-10.425 3.4751-26.643 8.1086-50.389 4.6335-21.43 8.6878-36.489 13.321-45.176 10.425-17.376 25.484-25.484 48.652-25.484 30.118 0 45.176 12.742 45.176 38.805 0 4.6335 0 9.267-1.1584 13.9h-32.434l1.1584-13.321q0-15.638-13.9-15.638c-13.9 0-14.48 5.7918-18.534 17.376a579.19 579.19 0 0 0-10.425 42.281c-4.0543 19.113-5.7918 32.434-5.7918 38.805 0 11.584 5.2127 17.376 14.48 17.376 12.742 0 17.376-8.6878 21.43-29.538h33.014c-5.2127 37.068-22.009 55.023-55.023 55.023zm128.58-11.584a15.638 15.638 0 0 1-12.742 8.6878h-30.697l-11.584-159.28h34.751l3.4751 81.665c0 17.376 1.1584 33.593 0 49.231a295.38 295.38 0 0 1 11.584-34.172l35.33-88.036a15.059 15.059 0 0 1 13.321-8.6878h25.484l-68.344 150.59zm-381.1 0a11.584 11.584 0 0 1-11.584 8.6878h-23.167l32.434-159.28h39.385c35.91 0 51.548 8.1086 51.548 31.855 0 30.118-12.742 46.335-40.543 49.81 16.796 1.7375 24.326 9.267 24.326 23.167l-1.1584 12.163-2.8959 19.113a79.928 79.928 0 0 0 0 23.167h-35.33c1.1584-26.063 6.371-42.86 6.371-52.127 0-11.005-5.7918-12.742-21.43-12.742h-5.7919zm68.344 8.6878 77.032-159.28h43.439l9.8461 159.28h-33.014l-1.7375-35.91h-44.018l-12.163 27.801a15.638 15.638 0 0 1-13.321 8.1086h-25.484z" fill="#1f5aa5" style="fill:#fff;stroke-width:5.7919"/>
 <path d="m526.48 558.33-5.7919 26.643q48.652-6.0814 97.303-8.6878c1.1584 0 2.3167 0 2.8959-1.7376l3.4751-17.376c-32.434-0.57918-65.448 0-98.462 1.1584zm-141.9 53.285a1152.6 1152.6 0 0 1 122.21-24.326c1.1584 0 2.8959-0.5792 3.4751-2.8959l5.7919-25.484c-41.122 2.3167-82.244 6.371-122.79 12.163zm250.21-54.443-4.0543 18.534h86.878s1.1584 0 1.7376-1.1584l5.7919-11.584a1378.5 1378.5 0 0 0-90.353-5.7919m-378.79 96.145a1170 1170 0 0 1 113.52-37.068c1.1584 0 4.0543-1.1584 4.6335-4.6335l8.6878-38.226c-38.226 5.7919-76.452 13.321-114.1 22.588l-12.742 56.76z" fill="#f8db00" style="fill:#fff;stroke-width:5.7919"/>
</svg>
