<svg xmlns="http://www.w3.org/2000/svg" viewBox="0 0 1024 1024">
   <circle cx="512" cy="512" r="512" style="fill:#e85e5c"/>
   <path d="M689.29 542.44q-20.877-27.321-48.198-39.985a402.6 402.6 0 0 0-62.151-22.218l-88.183-25.293q-32.888-8.23-52.717-21.187-19.829-12.956-19.812-38.284a49.64 49.64 0 0 1 12.939-33.85q12.973-14.691 34.521-22.544a124 124 0 0 1 46.239-7.2q39.641.688 69.728 22.905t38.266 59.814l86.791-14.279q-10.928-45.844-37.253-77.994a168.26 168.26 0 0 0-66.309-48.886q-40.002-16.753-89.901-17.458-51.257-.618-91.946 16.1-40.689 16.72-64.247 49.195-23.609 32.493-23.592 78.286 0 56.704 31.445 84.437t77.942 40.672l127.15 37.596q28.713 8.884 42.39 22.905a47.3 47.3 0 0 1 6.873 9.125h89.712q-3.883-31.05-19.692-51.858zm-93.664 130.57q-30.414 19.159-72.804 19.142-45.81 0-79.643-24.262t-44.676-68.027l-84.179 12.99q7.526 47.167 35.208 82.375a179.1 179.1 0 0 0 71.086 54.006q43.404 18.798 97.427 18.798 51.944 0 95.692-17.424t70.021-52.305q23.077-30.603 25.912-71.705h-83.99c-1.753 19.434-11.702 34.899-30.053 46.411z" class="cls-1" style="fill:#fff"/>
</svg>
