<svg xmlns="http://www.w3.org/2000/svg" viewBox="0 0 1024 1024">
   <circle cx="512" cy="512" r="512" style="fill:#f9de81"/>
   <path fill="#fdc201" d="M512 262.81c-141.02 0-256.03 112.27-256.03 249.19S370.98 761.19 512 761.19 768.03 648.92 768.03 512 653.02 262.81 512 262.81M360.02 365.5a218.25 218.25 0 0 1 303.96 0 179 179 0 0 1 34.229 45.183h-202.64a59.3 59.3 0 0 0-26.014 5.477 54.2 54.2 0 0 0-20.538 13.692 54.2 54.2 0 0 0-13.692 20.538 53.7 53.7 0 0 0-5.477 24.645 50.1 50.1 0 0 0 5.477 24.645 54.2 54.2 0 0 0 13.692 20.538 67.4 67.4 0 0 0 20.538 13.692 80 80 0 0 0 26.014 5.476h43.813a17.36 17.36 0 0 1 8.215 1.37 30 30 0 0 1 6.846 4.107 11.64 11.64 0 0 1 4.107 6.846 25.33 25.33 0 0 1 0 16.43 30 30 0 0 1-4.107 6.846 11.64 11.64 0 0 1-6.846 4.107 17.36 17.36 0 0 1-8.215 1.37h-230.02a184.5 184.5 0 0 1-12.323-68.459 202.2 202.2 0 0 1 62.982-146.5zm303.96 294.37a218.25 218.25 0 0 1-303.96 0 224.3 224.3 0 0 1-28.753-34.229h208.11a59.3 59.3 0 0 0 26.014-5.477 62.98 62.98 0 0 0 34.229-34.229 53.7 53.7 0 0 0 5.477-24.645 50.1 50.1 0 0 0-5.477-24.645 54.2 54.2 0 0 0-13.692-20.538 67.4 67.4 0 0 0-20.538-13.692 61.4 61.4 0 0 0-26.014-6.846h-43.813a17.36 17.36 0 0 1-8.215-1.369 30 30 0 0 1-6.846-4.107 11.64 11.64 0 0 1-4.107-6.846 17.36 17.36 0 0 1-1.37-8.215 17.36 17.36 0 0 1 1.37-8.215 30 30 0 0 1 4.107-6.846 11.64 11.64 0 0 1 6.846-4.107 17.36 17.36 0 0 1 8.215-1.37h221.81a210.9 210.9 0 0 1 8.215 58.874 206.33 206.33 0 0 1-61.613 146.5z" style="fill:#fff"/>
</svg>
