<?xml version="1.0" encoding="UTF-8"?>
<svg version="1.1" viewBox="0 0 1024 1024" xmlns="http://www.w3.org/2000/svg">
 <circle cx="512" cy="512" r="512" style="fill:#54688c"/>
 <path d="m768 477.87-113.28-196.05h-226.77l53.76 93.013 16.427 28.373-19.627 34.133h-39.04l-16.427-28.587-53.973-93.013-113.07 196.27 113.28 196.27 53.76-93.013 16.427-28.373h39.04l19.627 33.92-16.427 28.373-53.547 93.013h226.56l113.28-196.27h-140.16l-19.627-34.133 19.627-33.707h140.16zm-399.15-107.95 20.907 36.267-32 55.68h135.04l67.627-117.12h-64.427l-20.907-36.267h150.19l-110.51 191.57h-221.23zm106.24 346.03 20.907-36.267h64.427l-67.627-117.33h-135.25l32.213 55.893-20.907 36.267-75.307-130.13h221.23l29.013 50.347 81.493 141.23zm172.37-86.827 32-55.467h42.24l-75.307 130.13-66.133-114.77-44.373-76.8 52.267-90.88 58.24-100.69 75.307 130.13h-42.027l-32-55.467-68.053 116.69 67.627 117.12z" fill="#101227" style="fill:#fff;stroke-width:21.333"/>
</svg>
