<?xml version="1.0" encoding="UTF-8"?>
<svg version="1.1" viewBox="0 0 1024 1024" xmlns="http://www.w3.org/2000/svg">
 <circle cx="512" cy="512" r="512" style="fill:#ff837d"/>
 <path d="m499.2 608.2-200.57 87.308c-2.36 2.36-7.079 2.36-11.798 0q-7.08-3.54-7.079-7.08c-2.36-4.718-2.36-7.079 0-11.797 2.36-4.72 4.72-7.08 7.079-9.439l184.05-80.23zm-61.351-44.832-120.34 51.912c-4.72 2.358-7.079 2.358-11.798 0-4.72-2.36-7.079-4.72-9.439-7.08-2.36-4.718-2.36-7.079 0-11.797 2.36-4.72 4.72-7.08 7.08-9.44l120.34-51.91c4.72 9.438 7.078 18.876 14.158 28.314zm-4.72-101.46-2.36 35.394-283.16 120.34c-4.72 2.36-7.08 2.36-11.798 0q-7.08-3.537-7.08-7.078c-2.359-7.079 0-16.517 7.08-21.237zm167.54 28.315-7.08 70.789-56.631-42.474c-9.439-7.078-14.16-16.517-11.8-25.955l7.079-70.789 56.633 42.474c9.438 4.718 14.157 16.517 11.799 25.955m155.74 96.744c-40.114 127.42-174.61 198.21-302.03 160.46-7.078-2.36-11.8-4.72-18.877-7.08q-35.395-14.158-63.711-35.394l257.2-115.62h2.36l11.797-115.62c2.36-11.8-4.718-25.957-14.157-33.036l-89.666-66.071-4.72-2.358-257.2 117.98c2.36-23.597 7.079-44.834 14.158-66.07 7.079-16.518 16.517-33.035 25.956-47.193 66.07-101.46 200.57-139.22 311.47-87.306s165.17 179.33 127.42 297.31z" style="fill:#fff"/>
</svg>
