<?xml version="1.0" encoding="UTF-8"?>
<svg version="1.1" viewBox="0 0 1024 1024" xmlns="http://www.w3.org/2000/svg">
 <circle cx="512" cy="512" r="512" style="fill:#71a372"/>
 <g transform="translate(494.39 565.13)">
  <path d="m272.14-54.608c0 140.5-114.03 254.53-254.53 254.53-140.5 0-254.53-114.03-254.53-254.53 0-140.5 114.03-254.53 254.53-254.53 140.5 0 254.53 114.03 254.53 254.53" fill="#fff" style="stroke-width:7.9539"/>
  <path d="m43.658-201.45a161.91 161.91 0 0 0-51.477 0c-1.3674 0-2.0591-0.68368-0.68368-2.0591l26.768-20.591 26.768 20.591c0.68368 1.3674 0 2.0591-1.3674 2.0591m-43.916 127.66c-0.68368 0-1.3674 0.68368-1.3674 1.3674 5.4935 4.1181 8.928 13.73 20.591 13.73 11.663 0 15.097-9.6117 20.591-13.73 0-0.68368-0.68368-1.3674-1.3674-1.3674a120.33 120.33 0 0 1-38.439 0m18.532-15.789c-3.4345 0-4.1182-1.3674-6.1772-1.3674-2.7347 0-4.8018 1.3674-6.8609 3.4345 0 0.68368 0.68368 1.3674 0.68368 2.0591 4.8018 0.68368 6.8609 3.4345 11.663 3.4345 4.8018 0 7.5607-2.7347 11.663-3.4345 0.68368-0.68368 0.68368-1.3674 0.68368-2.0591-2.0591-2.0591-4.1182-2.7347-6.8609-3.4345-0.68368 0-1.3674 1.3674-4.8018 1.3674m256.7 48.742c0 6.1772-0.68368 12.354-1.3674 18.532-28.827 4.8018-39.814-21.274-69.333-19.907 2.0591 6.1772 3.4345 13.03 4.1182 19.223 24.709 0 34.321 22.65 61.772 19.907-1.3674 6.8609-3.4345 13.73-5.4936 20.591-21.958 2.0591-29.519-19.223-54.212-18.532v17.156c21.274 0 28.151 19.223 48.742 18.532l-8.2363 20.591c-14.414-0.68368-19.907-19.223-41.865-17.856l-2.7347 14.414c19.223-1.3674 23.325 16.473 37.063 17.856-3.4345 6.1772-7.5607 13.03-11.663 18.532-8.2363-4.1182-15.097-17.856-30.886-18.532l4.1181-15.097c-15.789-0.68368-30.886-6.8609-42.549-17.856 4.1181-24.709-33.621-49.418-33.621-67.266 0-19.223 9.6117-30.202 9.6117-56.279-0.68367-20.591-8.928-40.498-23.325-54.911-2.7347-2.7347-5.4935-4.8018-8.928-6.8609 14.414 15.789 22.65 35.688 23.325 56.97 0 24.709-11.663 37.747-11.663 60.405 0 22.658 32.945 42.549 32.945 65.89 0 8.928-2.7347 18.532-12.354 35.688 12.354 13.03 28.827 21.274 46.675 23.325 3.4345 0.68367 6.1772-1.3674 7.5606-4.8018 1.3674-2.7347 2.7347-5.4935 3.4345-8.2363 13.73 0.68367 19.907 13.03 27.452 17.856l-13.03 15.789c-4.8018-5.4936-11.663-15.097-21.958-17.856-2.0591 3.4345-3.4345 6.8609-5.4935 10.295 8.2363 2.0591 14.414 10.979 18.532 16.473l-15.097 14.414c-3.4345-6.1772-8.2363-10.979-14.414-15.097-2.0591 2.7347-4.1182 5.4935-6.8609 8.2363 4.8018 4.1182 8.928 8.928 11.663 14.414l-19.223 13.73c-3.4345-26.084-39.122-43.916-29.519-74.127-4.1181 6.1772-6.1772 13.03-6.8609 19.907 0 21.958 23.325 39.122 25.393 61.089l-15.186 8.2122c-0.68368-24.025-25.393-50.11-25.393-70.009 0-21.958 28.827-43.916 28.827-70.009 0-26.092-32.945-43.916-32.945-66.574 0-22.658 14.414-35.688 14.414-65.207 0-21.958-9.6117-42.549-26.084-56.97l-8.928-6.1772c15.097 17.856 23.325 33.621 23.325 58.338 0 27.452-15.789 42.549-15.789 69.333 0 26.784 32.253 41.865 32.253 66.574 0 24.709-30.202 45.983-30.202 72.068 0 23.325 26.768 46.675 26.768 74.802a190.3 190.3 0 0 1-17.848 6.8609c3.4345-28.151-26.768-56.97-26.768-79.628 0-25.393 31.57-46.675 31.57-73.435 0-26.76-32.253-39.814-32.253-67.266 0-27.452 19.907-43.241 19.907-73.435 0-22.65-10.979-44.616-28.827-58.338l-1.3674-0.68367c-1.3674-1.3674-2.7347 0-2.0591 1.3674 12.354 15.097 19.223 34.321 18.532 53.536 0 28.151-22.65 50.793-22.65 77.561 0 32.253 30.202 41.181 30.202 67.266 0 26.084-32.253 47.359-32.253 75.502 0 26.084 30.886 54.212 25.393 84.422l-18.532 4.1182c5.4936-37.063-24.709-63.831-24.709-87.857 0-26.084 33.621-49.418 33.621-75.502 0-24.025-24.025-32.253-27.452-56.97 0-3.4345-2.7347-5.4935-6.1772-5.4935h-0.68368a106.17 106.17 0 0 1-21.274 4.1182c-6.8609-0.68368-14.414-2.0591-21.274-4.1182-3.4345-0.68368-6.1772 1.3674-6.8609 4.8018v0.68368c-3.4345 24.709-27.452 32.945-27.452 56.97 0 26.084 33.621 49.418 33.621 75.502 0 24.025-30.202 50.793-24.709 87.857l-18.532-4.1182c-4.8018-29.519 26.084-58.338 26.084-84.422 0-28.151-32.253-48.742-32.253-75.502 0-26.76 30.202-35.688 30.202-67.266 0-27.452-22.65-50.11-22.65-77.561-0.68368-19.223 6.1772-38.447 18.532-53.536 1.3674-1.3674 0-2.7347-2.0591-1.3674l-1.3674 0.68368c-17.856 13.73-28.827 35.688-28.827 58.338 0 30.886 19.907 45.983 19.907 73.435 0 27.452-32.253 40.498-32.253 67.266 0 26.768 31.57 48.742 31.57 73.435 0 22.65-30.202 52.161-26.768 79.628a190.3 190.3 0 0 1-17.848-6.8609c0.68368-27.452 27.452-50.793 27.452-74.802 0-26.084-30.202-46.675-30.202-72.068 0-25.393 36.38-39.122 36.38-65.89 0-26.768-15.789-41.865-15.789-69.333 0-24.709 8.2363-40.498 23.325-58.338-3.4345 1.3674-6.1772 3.4345-8.928 6.1772-16.473 14.414-25.393 35.004-26.084 56.97 0 28.827 14.414 42.549 14.414 65.207 0 22.658-32.945 41.181-32.945 66.574 0 25.393 28.827 48.042 28.827 70.009 0 19.907-24.709 45.983-25.393 70.009-4.8018-2.7347-10.295-5.4935-15.097-8.2363 2.0591-21.958 25.393-39.122 25.393-61.089-0.68368-6.8609-2.7347-14.414-6.8609-19.907 9.6117 30.202-26.084 48.042-29.519 74.127-6.1772-4.1182-13.03-8.928-19.223-13.73 2.7347-5.4935 6.8609-10.295 11.663-14.414-2.0591-2.7347-4.8018-5.4935-6.8609-8.2363-5.4936 4.1182-10.295 8.928-14.414 15.097-5.4935-4.8018-10.295-9.6117-15.097-14.414 4.8018-5.4936 10.295-14.414 18.532-16.473-2.0591-3.4345-4.1182-6.8609-5.4935-10.295-9.6117 2.7347-16.473 11.663-21.958 17.856-4.8018-5.4935-8.928-10.295-13.03-15.789 7.5607-4.8018 13.73-17.156 27.452-17.856 1.3674 2.7347 2.0591 5.4935 3.4345 8.2363 1.3674 3.4345 4.1182 4.8018 7.5607 4.8018 17.856-2.0591 34.321-10.295 46.675-22.65-9.6117-17.856-12.354-26.768-12.354-35.688 0-23.325 32.945-43.241 32.945-65.89 0-22.65-11.663-35.688-11.663-60.405a90.004 90.004 0 0 1 23.333-57.654c-3.4345 2.0591-6.1772 4.1181-8.928 6.8609-14.414 14.414-22.65 34.321-23.325 54.911 0 26.084 9.6117 37.063 9.6117 56.279 0 17.856-37.747 42.549-33.621 67.266-11.663 10.979-26.768 17.156-42.549 17.156l4.1182 15.097c-15.789 0.68368-22.65 14.414-30.886 18.532-4.1182-6.1772-7.5607-12.354-11.663-18.532 13.73-1.3674 17.856-19.223 37.063-17.856-0.68367-4.8018-1.3674-9.6117-2.7347-14.414-21.958-1.3674-27.452 17.156-41.865 17.856-3.4345-6.8609-6.1772-13.73-8.2363-20.591 20.591 0.68368 27.452-18.532 48.742-18.532v-17.124c-25.393-0.68368-32.945 20.591-54.212 18.532-2.0591-6.8609-3.4345-13.73-5.4935-20.591 27.452 3.4345 37.063-19.907 61.772-19.907l4.1182-19.223c-29.519-1.3674-40.498 24.709-69.333 19.907-0.68368-6.1772-1.3674-12.354-1.3674-18.532 33.621 3.4345 46.675-24.025 77.561-20.591 2.7347-7.5607 6.8609-14.414 10.295-21.274-38.447-6.8609-51.477 25.393-87.857 20.591 4.0618-142.06 122.1-253.94 264.19-249.82 136.57 4.1181 246.41 113.25 249.82 249.82-35.688 4.8018-49.418-27.452-87.857-20.591 4.1181 6.8609 6.8609 13.73 10.295 21.274 32.945-4.1182 45.983 24.025 79.628 20.591m-367.19-108.42c-20.591-8.2363-43.241-5.4935-61.772 6.8609-2.7347-17.856-12.354-33.621-26.768-43.916a3.1369 3.1369 0 0 0-3.4345 0c-0.68368 0.68368-0.68368 1.3674-0.68368 2.0591 2.7347 38.447-19.223 72.068-47.359 101.59 28.827 8.2363 52.844-28.151 89.924-15.097 13.03-20.591 30.202-37.747 50.11-51.477m110.51-23.325c-24.025 0-43.916 13.73-49.418 30.886-0.68368 1.3674 0 2.0591 1.3674 1.3674 4.8018-2.0591 9.6117-2.7347 14.414-2.7347 8.928-0.68368 17.156 3.4345 23.325 9.6117 2.0591 8.2363 2.0591 16.473 0 24.025-4.1182-0.68368-5.4936-4.1182-9.6117-4.1182-4.1181 0-6.8609 2.7347-13.73 2.7347-6.8689 0-7.5607-3.4345-11.663-3.4345-4.1021 0-6.1772 5.4936-6.1772 10.979 0 26.768 24.709 63.14 50.109 63.14 25.401 0 50.11-36.38 50.11-63.14 0-6.1772-1.3674-10.979-6.8609-11.663-3.4345 2.7347-6.8609 4.1182-10.979 3.4345-6.8609 0-8.2363-2.7347-12.354-2.7347-4.1181 0-4.1181 10.295-9.6117 10.295-3.4345-9.6117-4.1181-20.591-0.68368-30.886 6.1772-6.8609 14.414-10.295 23.325-9.6117 4.8018 0 9.6117 0.68368 14.414 2.7347 1.3674 0.68367 2.0591 0 1.3674-1.3674-4.1181-15.789-24.025-29.519-47.359-29.519m37.063 38.447c-6.1772 0-12.354 2.0591-16.473 6.1772-0.68368 1.3674-0.68368 2.7347 0 4.8018 10.295-3.4345 19.223-3.4345 24.025 1.3674 2.0591-1.3674 2.7347-4.1182 2.7347-6.1772 0-4.1181-3.4345-6.1772-10.295-6.1772m-83.063 12.322c4.8018-4.8018 15.789-4.8018 26.768-0.68368 0.68368-5.4935-8.928-11.663-19.223-11.663-6.8609 0-10.295 2.0591-10.295 5.4936 0 2.7347 0.68368 5.4935 2.7347 6.8609m164.74-90.599c-17.856 1.3674-34.321 7.5606-48.042 18.532 5.4935-15.097 13.03-30.202 21.958-43.241-21.958 1.3674-42.549 10.979-59.038 26.084l-10.979-29.519 25.401-22.658-34.321-2.7347-13.73-31.57-13.73 31.57-34.321 2.7347 25.393 22.65-11.663 30.202c-15.789-15.789-36.38-24.709-59.038-26.084 8.928 13.73 16.473 28.151 21.958 43.241-13.73-10.979-30.886-17.856-48.742-18.532 11.663 14.414 21.274 30.202 28.827 46.675 0.68368 1.3674 2.7347 2.7347 4.1181 2.0591h0.68368a193.36 193.36 0 0 1 171.59 0c1.3674 0.68367 3.4345 0.68367 4.1182-0.68368v-0.68368c8.2363-17.856 17.856-33.621 29.519-48.042m41.181 113.93c37.063-13.03 61.089 24.025 89.924 15.097-27.452-29.519-50.11-62.456-47.359-101.59 0-1.3674-0.68369-2.7347-2.0591-2.7347-0.68368 0-1.3674 0-2.0591 0.68367-14.414 10.295-24.025 26.768-26.768 43.916-18.532-12.354-41.181-15.097-61.772-6.8609 19.907 14.414 37.063 31.57 50.11 51.477" fill="#006241" style="fill:#71a372;stroke-width:8.0432"/>
 </g>
</svg>
