<?xml version="1.0" encoding="UTF-8"?>
<svg version="1.1" viewBox="0 0 1024 1024" xmlns="http://www.w3.org/2000/svg">
 <circle cx="512" cy="512" r="512" style="fill:#96dfd3"/>
 <g transform="matrix(2.3819 0 0 2.3819 273.81 273.81)">
  <path d="m98.1 68.8a58 58 0 0 0-12.4 1.6v13.3c0.2 2.8 0.8 5.4 1.4 7.6 0.6 2.1 1.5 4 2.7 5.5 1.6 2.1 4.2 3.3 7.8 3.7h0.2l2-0.1 2.1 0.1h0.2c4.6 0.5 6.4 1.6 7.6 2.7 2.6 2.2 4.9 7 4.9 15.3v16h31v-15c0-6-0.5-11.8-2.1-17.4l-0.1-0.2c-1-3.4-2.1-6.7-3.6-9.9a39.4 39.4 0 0 0-16.8-17.9l-0.8-0.4a58 58 0 0 0-24-4.9zm-41.1 29c-2.2 7-3.4 14.4-3.3 21.8 0 9.2 1.7 17.3 5.1 24.2a71.5 71.5 0 0 0 12 17.5c4.6 4.9 9.6 9.5 14.8 13.6 4.8 3.8 9.4 7.7 13.5 11.6l3.2 3.2c12.3-0.3 24.3-3 35.4-8.3a76.6 76.6 0 0 0-9.3-12.5c-4.6-4.9-9.6-9.5-15-13.6-4.9-3.8-9.5-7.6-13.6-11.6-3.8-3.5-7-7.5-9.7-11.9l-0.3-0.5a37.3 37.3 0 0 1-29.3-21.3v-0.1l-1.5-3.7-1.5-6.2-0.5-2.2" fill="#ff4081" style="fill:#fff"/>
  <path d="m100 0a100 100 0 1 0 0 200 100 100 0 0 0 0-200zm0 11.8a88.2 88.2 0 1 1-37 8.3 67 67 0 0 0 9 12c4.8 5 9.7 9.5 14.9 13.6 4.8 3.7 9.3 7.6 13.5 11.6a54 54 0 0 1 9.7 11.9l0.4 0.7c4.2 0.8 8.1 2 11.6 3.8l0.8 0.4c4.5 2.4 8.3 5.5 11.3 9.3a44.2 44.2 0 0 1 9.2 18.7l0.2 0.6c2-6.2 3.1-13.5 3.1-21.1 0-9.2-1.7-17.3-5.1-24.2a71.5 71.5 0 0 0-12-17.5c-4.6-4.9-9.6-9.5-15-13.7-4.9-3.8-9.5-7.6-13.6-11.6l-2.6-2.7zm-44.3 53.7v15.9c0 6.3 0.4 11.6 1.3 16.3l0.4 2.2 0.6 2.9 0.9 3.3 1.5 3.7v0.1c1.6 3.2 3.2 5.6 4.9 7.8a34 34 0 0 0 12.8 10 60.1 60.1 0 0 0 36.5 2.8v-12c0.1-8.3-2.2-13.1-4.8-15.3-1.2-1-3-2.2-7.6-2.7h-0.2l-2 0.1-2.1-0.1h-0.3c-3.6-0.4-6.2-1.6-7.8-3.7a15.7 15.7 0 0 1-2.7-5.5c-0.6-2.2-1.2-4.7-1.4-7.6v-18.2" fill="#fff" style="fill:#fff"/>
 </g>
</svg>
