<?xml version="1.0" encoding="UTF-8"?>
<svg version="1.1" viewBox="0 0 1024 1024" xmlns="http://www.w3.org/2000/svg">
 <circle cx="512" cy="512" r="512" style="fill:#98dc9a"/>
 <g transform="matrix(3.2859 0 0 3.2859 248.42 274.28)" style="fill:#fff">
  <path d="m116.51 119.37c3.552 0 6.299-0.619 8.242-1.857 1.944-1.239 2.949-2.933 3.016-5.084l31.06 9.874c-1.207 4.106-3.786 7.853-7.74 11.242-3.887 3.324-8.812 5.964-14.776 7.919s-12.632 2.933-20.003 2.933c-6.299 0-12.196-0.685-17.691-2.053-5.4279-1.369-10.219-3.422-14.374-6.159-4.0877-2.803-7.3042-6.289-9.6496-10.46-2.3454-4.172-3.5181-9.027-3.5181-14.567s1.1727-10.395 3.5181-14.566 5.5619-7.6253 9.6496-10.363c4.1547-2.8025 8.9795-4.8881 14.474-6.2567 5.4946-1.3687 11.359-2.053 17.591-2.053 6.366 0 12.196 0.6843 17.49 2.053 5.361 1.3686 9.951 3.4868 13.771 6.3544 3.886 2.8025 6.868 6.387 8.946 10.754 2.144 4.3013 3.216 9.4173 3.216 15.348h-54.782-0.1v0.098c0 0.977 0.268 1.89 0.804 2.737s1.273 1.597 2.211 2.249c1.006 0.586 2.212 1.042 3.619 1.368 1.474 0.326 3.15 0.489 5.026 0.489zm-0.201-16.717c-3.284 0-5.998 0.587-8.142 1.76-2.144 1.108-3.217 2.704-3.217 4.79v0.196h0.101 22.415 0.101v-0.196c0-1.043-0.302-1.955-0.905-2.737-0.536-0.848-1.307-1.532-2.312-2.053-1.005-0.587-2.211-1.01-3.618-1.271-1.341-0.326-2.815-0.489-4.423-0.489z" fill="#62a446" style="fill:#fff"/>
  <path d="m37.567 81.901v11.829 11.829 11.829 12.514 12.611h-34.819v-19.357-19.357-10.949-10.949zm-0.1006 37.345 5.4341-26.298c0.6038-2.8025 1.7779-5.1162 3.5221-6.941 1.8114-1.8901 3.9247-3.3239 6.3399-4.3015s4.8975-1.5642 7.4468-1.7597c2.5494-0.2607 4.8974-0.1629 7.0443 0.2933 2.1468 0.391 3.8576 1.0754 5.1322 2.053l-7.648 36.367c-1.9456-1.564-4.3272-2.639-7.1449-3.226-2.7507-0.587-5.5348-0.782-8.3525-0.587-2.8177 0.131-5.3 0.587-7.4468 1.369-2.1469 0.782-3.5893 1.792-4.3272 3.031z" fill="#61a446" style="fill:#fff"/>
  <path d="m155.3 0.29172v24.198 13.295 11.438 11.34 11.34h-33.825v-8.3097-8.4074-8.3096-17.792-28.792zm-44.188 5v16.46 10.363 10.46c0 1.4338 0.228 2.6069 0.685 3.5194 0.521 0.8472 1.173 1.4664 1.955 1.8574 0.847 0.3259 1.727 0.4888 2.639 0.4888 0.913 0 1.825-0.1629 2.738-0.4888 0.977-0.3258 1.759-0.7169 2.346-1.1731l-7.821 24.147c-1.825 0.9124-4.073 1.6619-6.746 2.2485-2.606 0.5865-5.344 0.8798-8.2114 0.8798-2.607 0-5.1813-0.3259-7.7231-0.9776-2.5418-0.5866-4.8554-1.5968-6.941-3.0306-2.0204-1.4338-3.6497-3.3238-4.888-5.6701-1.2383-2.3462-1.8575-5.2791-1.8575-8.7984v-14.078-14.078-8.0164-14.114z" fill="#808080" style="fill:#fff"/>
  <path d="m0.69885 30.648c0-3.7149 1.0428-6.941 3.1283-9.6783 2.1507-2.7373 5.051-5.0184 8.7007-6.8432 3.6497-1.8901 7.7882-3.2913 12.416-4.2038 4.6273-0.91243 9.4502-1.3686 14.468-1.3686 6.1915 0 11.927 0.55398 17.206 1.6619 5.3442 1.108 10.167 2.5744 14.468 4.3993v22.68c-1.8248-1.3686-4.2362-2.5418-7.2342-3.5194-2.9328-0.9776-6.0612-1.7271-9.385-2.2485-3.2587-0.5214-6.3545-0.7821-9.2873-0.7821-1.9552 0-3.7475 0.1304-5.3768 0.3911-1.5642 0.1955-2.8351 0.5214-3.8127 0.9776-0.9124 0.4562-1.3686 1.0428-1.3686 1.7597 0 0.391 0.1303 0.6843 0.391 0.8798 0.3259 0.1956 0.7821 0.3259 1.3687 0.3911 0.5865 0.0651 1.336 0.0977 2.2485 0.0977h4.0081 3.9105c3.2586 0 6.5173 0.2281 9.776 0.6844 3.3239 0.391 6.3219 1.2057 8.994 2.444 2.7373 1.2383 4.9206 3.0305 6.5499 5.3768 1.6294 2.2811 2.444 5.3117 2.444 9.0917 0 3.9756-1.1079 7.3647-3.3238 10.167-2.1507 2.7373-5.1161 4.9858-8.8962 6.7455-3.7149 1.6945-7.9186 2.9328-12.611 3.7149-4.6274 0.7821-9.4502 1.1731-14.469 1.1731-5.9308 0-11.796-0.5539-17.597-1.6619-5.7353-1.1079-10.656-2.7373-14.762-4.888v-23.854c1.6294 1.7597 3.943 3.2261 6.941 4.3992 3.0631 1.108 6.3544 1.9552 9.8738 2.5418 3.5845 0.5214 6.941 0.7821 10.069 0.7821 2.0204 0 3.8453-0.0978 5.4746-0.2933 1.6293-0.2607 2.9002-0.6191 3.8127-1.0754 0.9776-0.5214 1.4664-1.1731 1.4664-1.9552 0-0.3258-0.0978-0.554-0.2933-0.6843s-0.5214-0.2281-0.9776-0.2933c-0.391-0.0651-0.945-0.0977-1.6619-0.0977h-3.0306-2.8351c-2.2811 0-4.8228-0.0652-7.6253-0.1956-2.7373-0.1955-5.4746-0.5539-8.2119-1.0753-2.7373-0.5866-5.2465-1.4664-7.5276-2.6396-2.2159-1.2383-4.0082-2.9002-5.3768-4.9857-1.3686-2.1508-2.053-4.8229-2.053-8.0164z" fill="#808080" style="fill:#fff"/>
 </g>
</svg>
