<?xml version="1.0" encoding="UTF-8"?>
<svg version="1.1" viewBox="0 0 1024 1024" xmlns="http://www.w3.org/2000/svg">
 <circle cx="512" cy="512" r="512" style="fill:#9abeff"/>
 <rect x="288.04" y="289.31" width="469.03" height="470.95" ry="10.331" style="fill:#fff;stroke-linejoin:round;stroke-width:19.889"/>
 <g transform="translate(477,476)" style="fill:none">
  <path d="m-214.35-213.35v498.7h131.29c4.5707-49.524 10.11-69.333 36.285-120.73 29.775-58.459 38.915-102.93 38.915-160.55 0-0.67394 6e-3 -1.4102 0.0107-2.195 0.045-6.0696 0.11149-15.017-2.1576-20.108-11.771 1.1775-28.598-4.0173-38.569-16-8.4481-10.251-14.196-23.342-14.196-31.584 0-1.8009 0.20779-3.1169 1.316-4.2251 11.01-3.0476 32.614 1.8701 47.294 8.7273 6.0239-9.8355 11.287-16.208 24.374-23.411-11.91-25.281-33.515-42.182-66.06-42.182-37.599 0-62.251 21.126-70.283 41.558-2.4236 6.2338 0.89974 7.5498 4.9164 3.5325 16.203-16.485 33.376-24.658 55.811-24.658 27.559 0 43.763 17.316 43.763 24.658 0 2.4242-1.8009 2.4242-4.2244 1.5238l-0.33385-0.10947c-8.7273-2.8655-16.544-5.4317-31.449-5.4317-41.547 0-60.659 38.926-60.659 72.035 0 18.216 6.4402 31.584 19.112 31.584 9.7635 0 15.372-6.2338 20.22-16.208 1.5231-3.1169 4.0159-3.1169 6.0239 0.20779 2.7006 4.4329 3.324 11.983 3.324 17.801 0 26.251-19.319 40.035-41.547 40.035-41.547 0-66.891-36.918-66.891-84.918 0-64.9 40.924-133.19 124.02-133.19 59.828 0 90.918 31.931 107.47 63.584h8.7938c11.979-28.468 33.584-45.368 65.783-45.368 42.931 0 60.658 33.385 60.658 73.143 0 10.881-1.1428 21.33-2.2393 31.359-1.012 9.2509-1.9844 18.143-1.9844 26.685 0 13.091 5.5397 27.775 20.427 27.775 9.5557 0 17.588-6.2338 21.535-21.126 1.1082-4.0173 3.5318-4.6407 6.9243-0.41558 2.2164 2.7013 5.332 9.1429 5.332 16.693 0 20.918-13.572 42.944-40.716 43.152-23.128 0.20779-37.115-12.468-40.024-28.468-0.41559-2.7013 2.008-4.0173 3.5311-1.8009 8.4481 11.152 19.32 17.108 34.692 17.108 8.6559 0 17.311-3.8095 20.22-10.251 0.90042-2.0086 0.20779-3.1169-1.3153-2.4242-5.332 2.4242-9.9713 3.3247-15.095 3.3247-35.592 0-40.024-36.225-42.447-72.935-3.324 9.5584-9.7634 17.801-26.451 19.325 1.5231-2.4242 2.6999-6.4416 2.6999-9.3506s-1.5231-4.9178-5.1242-4.9178c-5.3313 0-9.9713 4.0173-9.9713 10.459 0 6.4679 4.7633 13.27 9.688 20.303 4.0416 5.7711 8.1919 11.698 9.9089 17.723 1.1075 4.0173 1.1075 7.5498 1.1075 11.983 0 7.7576-0.89974 15.377-2.008 19.117-0.90043 2.9091-2.9084 3.8095-8.6559 3.8095-4.0159 0-5.3312-1.316-6.2317-4.6407-0.41558-1.8009-1.1082-4.0173-2.4236-4.0173-1.4518 0-1.9602 1.636-2.6043 3.7084l-0.0963 0.30892c-1.3153 4.6407-5.332 5.5411-14.888 5.5411-3.7243 0-6.1659-0.18771-7.7652-0.311h-9.8e-4c-0.77922-0.06032-1.3583-0.10461-1.7891-0.10461-2.4235 0-3.324 0.90043-3.324 2.2164 0 1.8009 0.20779 3.5325 0.69264 5.1255 0.41559 1.316 1.3153 1.8009 4.0159 1.316 8.8637-1.316 16.688-1.5238 22.643-1.5238 16.204 0 17.103 1.5238 15.788 7.1342-1.1082 4.9178-2.9084 11.359-5.5397 17.108-1.8002 3.8095-3.1162 4.2251-5.7475 4.4329-5.3312 0.41558-12.464 0.69264-17.796 0.41558-9.6783-0.45576-18.167-3.5235-26.239-6.4402-7.8677-2.8426-15.34-5.5425-23.133-5.5425-4.2203 0-8.079 0.57628-12.033 1.1671-4.1544 0.62061-8.4142 1.2571-13.31 1.2571-9.5557 0-16.341-2.0087-22.85-6.6494-9.4178 36.017-12.88 80-12.88 100.23 0 13.991 4.0159 29.16 11.148 34.909 2.4236 2.0087 4.6393 2.0087 6.4402-1.316 17.367-32.308 36.16-43.445 53.947-53.985 16.608-9.8424 32.339-19.164 45.211-44.716 1.3153-2.4242 4.0159-2.0086 4.4315 0.90044 4.4315 26.251 1.5238 58.043-4.2237 88.519-0.69265 3.5325 1.8002 4.9178 4.2237 1.8009 7.3399-9.3506 16.896-26.251 20.427-39.827 0.90043-3.3247 3.5318-3.5325 4.9164-0.20779 8.6559 21.126 18.419 61.16 21.328 90.043 0.20711 3.1169 3.1155 3.3247 4.2237 0.41558 6.2317-17.316 10.248-46.061 5.5397-67.186-0.41558-2.4242 0.89974-3.8095 3.5311-2.4242 38.639 18.771 76.239 53.264 110.03 107.57v-498.56zm160.24 450.91c-6.7186 14.545-11.775 30.615-13.022 47.792h21.749c-3.3939-17.108-3.8095-33.662-3.8095-47.792 0-4.6407-2.2164-6.026-4.9177 0zm156.49-206.34c-5.1242 0.41558-7.3399-1.5931-7.3399-8.2424h0.0692c0-2.2164 1.8002-5.1255 5.1242-5.1255 1.5792 0 3.4258 0.21056 5.6395 0.46337 3.3184 0.37956 7.4639 0.85264 12.779 0.85264 1.7281 0 3.3926-0.2549 5.1228-0.52087h0.0017c1.875-0.28744 3.8275-0.58735 6.0239-0.58735 2.4236 0 3.5318 1.5931 3.5318 5.1255 0 4.9178-0.48485 7.8268-3.8088 8.0346-5.1242 0.20779-6.2317 1.1082-7.3399 5.3333-0.69264 2.0086-2.9084 2.4242-4.0159 0.20779-2.7006-5.5411-7.3399-6.2338-15.788-5.5411zm-50.48-64.485c-3.8082-5.5411-14.68-12.468-25.552-12.26-9.9712-0.20779-16.203 6.4416-16.203 11.775 0 1.316 0.90043 2.2164 2.2158 1.316 2.008-1.1082 3.324-1.5238 4.9164-1.5238 1.8002 5.7489 6.9243 13.091 16.896 13.091 7.5477 0 13.572-3.5325 12.464-11.567 1.8009 0 2.9084 0.2078 4.4322 0.69264 0.89975 0.20779 1.3153-0.90043 0.89975-1.5238zm74.507-52.294c14.888 0 24.444 11.983 28.875 26.459-12.048-2.0086-18.696-2.0086-26.244 6.6494-4.2237-12.19-13.987-21.749-22.435-25.766 2.7006-3.1169 8.6559-7.342 19.804-7.342z" clip-rule="evenodd" fill="#00cfec" fill-rule="evenodd" style="fill:#9abeff;stroke-width:6.9264"/>
 </g>
</svg>
