<?xml version="1.0" encoding="UTF-8"?>
<svg version="1.1" viewBox="0 0 1024 1024" xmlns="http://www.w3.org/2000/svg">
 <circle cx="512" cy="512" r="512" style="fill:#ff837d"/>
 <path d="m257.89 455.55h-0.86847a1.737 1.737 0 0 1-1.737-1.737v-0.86847a280.52 280.52 0 0 1 513.27 0c0.43423 0.86847 0 1.737-0.86849 2.1712h-1.3027c-23.883-13.027-51.24-19.541-78.163-19.106a146.77 146.77 0 0 0-86.848 24.752h-1.737a165.44 165.44 0 0 0-174.13 0h-1.737a166.31 166.31 0 0 0-165.88-5.2108zm269.23 1.737c0-0.86848-0.43423-1.3027-1.3027-1.3027l-13.896-0.86847h-11.724c-0.86847 0-1.3027 0.43424-1.3027 1.3027v229.28a23.449 23.449 0 0 1-45.595 7.8163 14.33 14.33 0 0 0-18.238-7.8163 13.896 13.896 0 0 0-8.2505 16.067 51.24 51.24 0 0 0 100.31-16.067" fill="#cb2d2f" style="fill:#fff;stroke-width:4.3424"/>
</svg>
