<?xml version="1.0" encoding="UTF-8"?>
<svg version="1.1" viewBox="0 0 1024 1024" xmlns="http://www.w3.org/2000/svg">
 <defs>
  <style>.cls-1,.cls-2,.cls-6{fill:none;}.cls-1{clip-rule:evenodd;}.cls-3{fill:#5a7290;}.cls-4{clip-path:url(#clip-path);}.cls-5{clip-path:url(#clip-path-2);}.cls-6{stroke:#5a7290;stroke-miterlimit:10;stroke-width:2px;}</style>
  <clipPath id="clip-path" transform="translate(-11.03 -4.87)">
   <path class="cls-1" d="M101.16,5.93a88.9,88.9,0,0,1,81.77,54,39.74,39.74,0,0,0-35.73-.7c-18.64,9-27.64,21.73-38.86,35.48-5.41,6.64-17.37,16.69-26.11,18.38-9.47,1.84-16.72-4.4-19.55-9.79a17.93,17.93,0,0,1-2.08-8.49h-21a38.48,38.48,0,0,0,1.11,9.55c5.92,23.95,32.69,36.9,55.7,26,12.75-6,24.93-17.77,32.19-27.3a137.77,137.77,0,0,1,10.21-12.23c4.73-4.94,12.29-13.28,22.57-14.34A19.57,19.57,0,0,1,181,86.35a18.25,18.25,0,0,1,1.69,4.73H190c0,1.24.08,2.48.08,3.74h-7c-.07,12.25-12.48,23.53-28,16.07-8.76-4.22-14.77-11.49-16.91-12.88-.6.29-.18,0-.67.42L124.89,114c4,4.55,11.35,10.13,16.74,13.4,14,8.52,29.22,8.74,41.21,2.52a88.89,88.89,0,1,1-81.68-124ZM118.63,75.6c-.48,1.59-5,5.94-6.41,7.79-1.25,1.59-4.93,7-6.74,8.08C102,87.69,93.3,81,88.59,78.73,74.76,72.18,63.28,80.47,61,91.08H39.83A39.1,39.1,0,0,1,79.07,55.47c10.06,0,16.22,2.8,23,6.77,10.55,6.2,12.58,9.38,16.56,13.36Z"/>
  </clipPath>
  <clipPath id="clip-path-2" transform="translate(-11.03 -4.87)">
   <rect class="cls-2" x="12.27" y="5.93" width="177.77" height="177.77"/>
  </clipPath>
 </defs>
 <circle cx="512" cy="512" r="512" style="fill:#728dbe"/>
 <style type="text/css">.st0{fill:#557293;}
	.st1{fill:#0569B1;}</style>
 <g id="XMLID_1_" transform="matrix(1.385 0 0 1.385 259.95 651.78)">
  <path id="XMLID_16_" class="st1" d="m257.4-94.522c4.5713 3.1999 16.914 17.828 34.742 26.513 31.542 15.542 56.684-7.7711 57.141-32.913h14.171c0-2.7428-0.45713-5.0284-0.45713-7.7712h-15.085c-0.91425-3.1999-1.8285-6.3998-3.657-9.5996-5.9426-10.971-20.114-21.942-39.77-20.114-21.028 2.2856-36.57 19.199-46.17 29.256-7.7711 8.2283-14.171 15.999-21.028 25.142-15.085 19.656-39.77 43.427-65.826 55.769-47.084 22.399-101.48-4.5713-113.37-53.027-1.8285-6.3998-2.2856-12.8-2.2856-19.656h42.97c0 5.9426 1.3714 11.885 4.5713 17.371 5.9426 10.971 20.571 23.771 39.77 20.114 17.828-3.657 42.513-24.228 53.484-37.484 22.856-27.885 41.141-53.941 79.083-72.226 23.771-11.428 50.741-10.057 72.683 1.3714-27.428-64.912-91.882-110.17-166.85-110.17-99.653 0-181.02 80.911-181.02 181.02 0 100.11 80.911 181.02 181.02 181.02 74.512 0 138.97-45.255 166.39-109.71-24.685 12.8-55.312 12.342-84.111-5.0284-10.971-6.8569-26.056-17.828-34.284-27.428l25.599-31.999c1.8285-0.45713 0.91425 0 2.2856-0.45713zm-194.28-38.856c11.428-25.142 37.027-47.998 73.597-47.998 20.571 0 33.37 5.9426 47.084 13.714 21.485 13.257 25.599 19.656 33.827 27.885-0.91426 3.1999-10.057 12.342-13.257 15.999-2.7428 3.1999-10.057 14.171-13.714 16.457-7.314-7.7711-25.142-21.485-34.742-26.056-28.342-13.257-51.655 3.657-56.227 25.142h-42.97c0.91425-9.1425 3.1999-17.828 6.3998-25.142z" style="fill:#fff;stroke-width:4.5713"/>
 </g>
</svg>
