<?xml version="1.0" encoding="UTF-8"?>
<svg version="1.1" viewBox="0 0 1024 1024" xmlns="http://www.w3.org/2000/svg">
 <circle cx="512" cy="512" r="512" style="fill:#9abeff"/>
 <path d="m502.24 266.56c-3.0383 5.0586-7.0833 11.131-9.3098 13.355-3.6438 3.8455-3.8457 3.6436-15.582-7.8928-14.164-14.162-16.391-13.758-23.073 4.4531-2.8299 7.487-6.2672 12.748-9.1037 14.366-4.0471 2.0247-6.0676 1.4171-16.187-5.8657-16.999-11.94-20.032-10.12-23.272 13.151-0.80735 5.8702-2.4284 10.12-4.451 10.929-1.6189 0.60761-8.498-1.4171-14.976-4.6526-16.593-7.8949-19.021-6.072-19.223 13.151 0 7.893-1.0113 15.378-2.0226 16.391-1.4171 1.4171-6.6794 1.0113-16.593-1.415-19.427-4.6547-20.642-3.4416-15.987 15.985 2.4265 9.9153 2.8321 15.178 1.415 16.593-1.0113 1.0134-8.4983 2.0247-16.391 2.0247-19.425 0.21246-21.046 2.6302-12.949 19.225 7.8904 16.593 5.868 21.449-9.5117 23.474-22.667 3.2355-24.082 6.0697-11.537 22.864 10.119 13.355 9.5117 15.382-7.2849 21.45-18.008 6.8834-18.414 9.1057-4.2491 23.272 11.536 11.736 11.738 11.94 7.8926 15.582-2.2242 2.2263-8.2962 6.2738-13.355 9.3098-12.548 7.283-12.548 12.14 0 19.425 5.0588 3.0379 11.131 7.0812 13.355 9.3075 3.8455 3.6438 3.6436 3.8457-7.8926 15.584-14.165 14.164-13.759 16.391 4.4529 23.07 7.4893 2.8299 12.748 6.2698 14.366 9.1037 2.0247 4.0473 1.4171 6.0699-5.8659 16.189-11.94 16.996-10.119 20.03 13.153 23.27 5.868 0.80733 10.117 2.4286 10.926 4.4512 0.60761 1.621-1.415 8.498-4.6528 14.978-7.8949 16.591-6.0718 19.021 13.151 19.223 7.8928 0 15.382 1.0113 16.391 2.0205 1.4171 1.4171 1.0113 6.6796-1.415 16.597-4.6528 19.425-3.4416 20.64 15.985 15.985 9.9153-2.4284 15.178-2.834 16.595-1.4171 1.0113 1.0113 2.0226 8.4983 2.0226 16.391 0.21244 19.427 2.6323 21.046 19.225 12.951 16.593-7.893 21.449-5.868 23.474 9.5096 3.2378 22.669 6.0699 24.082 22.864 11.536 13.355-10.12 15.382-9.5119 21.452 7.287 6.8793 18.008 8.9022 18.414 23.474 4.043 14.162-13.759 12.949-13.96 24.685 5.8702 7.2873 12.344 12.142 12.344 19.429 0 11.734-19.83 10.521-19.631 24.685-5.8702 14.573 14.371 16.593 13.965 23.272-4.2489 2.832-7.4848 6.2719-12.748 9.1059-14.366 4.0473-2.0247 6.072-1.4171 16.189 5.8681 16.996 11.94 20.034 10.117 23.27-13.151 0.80946-5.8702 2.4286-10.12 4.4531-10.929 1.6189-0.60763 8.4983 1.415 14.974 4.653 16.593 7.8927 19.023 6.0696 19.228-13.151 0-7.8928 1.007-15.382 2.0205-16.393 1.4171-1.4171 6.6775-1.0113 16.593 1.4171 19.429 4.6528 20.642 3.4418 15.988-15.985-2.4286-9.9175-2.8322-15.18-1.4171-16.597 1.0134-1.0092 8.4982-2.0205 16.391-2.0205 19.427-0.21246 21.046-2.63 12.953-19.227-7.8928-16.591-5.8702-21.449 9.5094-23.472 22.663-3.2359 24.08-6.0699 11.536-22.865-10.119-13.357-9.5138-15.382 7.283-21.452 18.01-6.8793 18.416-8.9017 4.0475-23.476-13.761-14.162-13.963-12.949 5.868-24.683 6.2738-3.8457 9.3096-6.8838 9.3096-9.7158 0-2.8342-3.0381-5.8702-9.3096-9.7112-19.831-11.738-19.631-10.525-5.868-24.69 14.368-14.57 13.963-16.593-4.2494-23.27-7.487-2.8342-12.75-6.2738-14.368-9.108-2.0226-4.0471-1.4171-6.0699 5.8702-16.187 11.94-16.999 10.115-20.032-13.155-23.272-5.868-0.80733-10.117-2.4284-10.927-4.4531-0.60763-1.6189 1.4171-8.4983 4.653-14.974 7.8928-16.593 6.072-19.021-13.151-19.227-7.8928 0-15.38-1.007-16.393-2.0205-1.415-1.415-1.0113-6.6775 1.4171-16.593 4.6526-19.425 3.4416-20.64-15.985-15.985-9.9173 2.4262-15.178 2.8322-16.593 1.4149-1.0156-1.0134-2.0247-8.498-2.0247-16.391-0.21246-19.427-2.6302-21.046-19.227-12.951-16.591 7.8906-21.447 5.8702-23.47-9.5117-3.238-22.663-6.072-24.08-22.867-11.536-13.357 10.121-15.382 9.514-21.45-7.2828-6.8834-18.008-9.1078-18.414-23.272-4.2494-11.738 11.536-11.94 11.738-15.584 7.8928-2.2242-2.2265-6.2717-8.2964-9.3054-13.355-3.8454-6.4757-6.8838-9.5117-9.7158-9.5117-2.8318 0-5.8659 3.036-9.7112 9.5117zm19.831 41.078c2.2265 2.2266 4.0471 6.6775 4.0471 10.117 0 3.442-1.8208 7.893-4.0471 10.12-8.7024 8.6999-24.284 2.2264-24.284-10.12 0-7.6907 6.4757-14.164 14.164-14.164 3.442 0 7.8928 1.8208 10.12 4.0473zm-31.165 34.401c19.631 19.021 22.463 19.021 42.092 0l14.57-14.164 14.164 4.0473c16.189 4.4508 41.282 15.176 41.282 17.808 0 0.80733-19.021 55.849-42.294 122.02-23.271 66.172-43.507 124.05-44.722 128.7-1.415 4.8565-3.2378 8.7022-4.0475 8.7022-0.80733 0-2.4282-3.442-3.4418-7.487-1.211-4.2493-21.246-62.53-44.72-129.71-23.674-67.183-42.899-122.63-42.899-123.03 0-2.4284 44.924-19.831 54.436-20.844 0.60549-0.21247 7.487 6.0697 15.579 13.963zm-71.028 203.98c28.737 80.538 51.601 146.71 50.996 147.32-1.4171 1.6189-22.867-4.653-31.97-9.5119-7.2875-3.6436-7.4893-4.0471-10.119-21.246-1.6211-11.133-4.0494-19.227-6.478-22.463-4.0452-5.0586-4.6528-5.0586-18.413-3.6438-30.354 3.442-29.139 3.8457-41.079-12.14-12.951-17.2-25.091-41.282-30.961-61.721-3.4416-11.333-4.6526-22.665-5.4621-44.518l-1.0134-29.344 18.212-9.7114c24.486-12.747 25.091-14.976 12.546-39.865-9.1036-18.01-9.1036-16.997 2.6347-33.997 3.2355-4.857 6.6752-8.0948 7.4846-7.0833 0.80733 0.80947 24.891 67.385 53.624 147.93zm251.13-131.94 5.0607 8.4983-8.2983 16.391c-12.546 25.091-11.94 27.318 12.344 40.067l18.012 9.5096v22.867c0 26.51-3.6438 47.15-12.344 69.208-6.6796 16.794-20.035 39.056-30.764 51.601l-6.8772 8.0948-15.985-2.4286c-8.7024-1.4149-18.416-2.4262-21.45-2.4262-8.4983 0-12.752 7.4848-15.583 27.318l-2.6302 17.604-10.725 4.6526c-12.344 5.4665-27.32 9.9177-28.737 8.2988-0.80733-0.80733 85.195-244.85 103-292.61l2.0226-5.0588 4.0473 5.0588c2.2265 2.63 6.2738 8.702 8.9019 13.357zm-334.1 28.123c9.5138 9.31 3.8455 23.273-9.5072 23.273-8.4985 0-13.763-5.0588-13.763-13.355 0-13.355 13.965-19.427 23.272-9.9177zm365.87-2.8299c5.8659 3.2359 7.4848 5.6643 7.4848 12.745 0 8.0948-5.2625 13.357-13.557 13.357-13.559 0-19.427-13.761-9.7154-23.273 5.4644-5.6641 9.1078-6.2715 15.785-2.8299zm-292.01 224.62c7.2849 17.403-17.606 28.127-25.701 10.929-3.036-6.2738-3.036-7.2871 0.21244-12.144 6.8813-10.521 21.046-9.9132 25.495 1.2152zm224.42-5.4644c5.0563 4.0475 6.4736 11.133 3.2355 17.404-8.2964 16.187-32.378 4.653-25.293-11.94 3.6394-9.1057 14.164-11.736 22.057-5.4644z" style="fill:#fff;stroke-width:21.246"/>
</svg>
