<?xml version="1.0" encoding="UTF-8"?>
<svg version="1.1" viewBox="0 0 1024 1024" xmlns="http://www.w3.org/2000/svg">
 <circle cx="512" cy="512" r="512" style="fill:#9abeff"/>
 <g transform="translate(-570.19 120.02)">
  <path class="accent-color" d="m1069.5 141.62c0.5337-9e-3 1.0674-0.0173 1.6172-0.0262 42.504-0.5541 42.504-0.5541 55.536 11.775 2.0048 2.1051 3.8832 4.3105 5.7436 6.5431 0.5788 0.68475 1.1576 1.3695 1.7541 2.075 7.9926 9.6097 7.9926 9.6097 7.9926 11.849 0.6058 0.26654 0.6058 0.26654 1.2237 0.53847 7.4303 4.0646 11.664 12.452 15.21 19.744 1.963 4.0241 4.0348 7.9907 6.1053 11.96 0.5899 1.1325 0.5899 1.1325 1.1918 2.288 2.5134 4.8198 5.0448 9.63 7.5837 14.436 3.0737 5.8337 6.0869 11.699 9.1067 17.561 2.749 5.3353 5.5047 10.666 8.3121 15.971 3.0587 5.78 6.0556 11.592 9.0505 17.405 3.5889 6.9657 7.1994 13.919 10.859 20.848 5.3983 10.223 10.707 20.493 16.013 30.764 2.9425 5.6951 5.9026 11.38 8.8947 17.05 5.6812 10.765 11.282 21.571 16.867 32.386 2.6107 5.0537 5.2319 10.101 7.8913 15.13 3.3236 6.2844 6.5763 12.605 9.8321 18.925 3.0234 5.8676 6.0635 11.726 9.15 17.56 2.8868 5.4668 5.7179 10.962 8.5541 16.455 2.6367 5.1061 5.2825 10.207 7.9696 15.287 3.0726 5.8094 6.0841 11.65 9.094 17.492 3.159 6.1299 6.3197 12.259 9.5292 18.362 0.2598 0.49494 0.5196 0.98987 0.7873 1.4998 2.3286 4.4145 4.7441 8.7791 7.2352 13.104 4.9184 8.5461 9.0994 17.072 12.254 26.428 0.202 0.59831 0.404 1.1966 0.6122 1.8131 2.5691 7.8857 3.213 15.022 2.9123 23.293-0.017 0.50806-0.034 1.0161-0.051 1.5396-0.6482 18.48-5.54 39.995-17.267 54.939-0.6893 0.22974-1.3785 0.45949-2.0886 0.6962-0.2154 0.55999-0.4307 1.12-0.6527 1.697-0.8925 2.1524-1.4977 2.2263-3.5245 3.1764-0.192 0.41012-0.3841 0.82025-0.582 1.2428-3.9063 7.4327-16.938 15.762-24.481 18.947-1.6674 0.17327-1.6674 0.17327-3.558 0.17213-1.0804 4e-3 -1.0804 4e-3 -2.1827 9e-3 -1.182-6e-3 -1.182-6e-3 -2.3879-0.0118-0.8352 9.5e-4 -1.6704 3e-3 -2.5309 4e-3 -2.302 2e-3 -4.6039-2e-3 -6.9059-9e-3 -2.4426-7e-3 -4.8852-4e-3 -7.3279-4e-3 -4.6999-1.9e-4 -9.3998-9e-3 -14.1-0.0192-3.7816-9e-3 -7.5631-0.0143-11.345-0.0176-26.085-0.0247-52.164-0.13495-78.245-0.62027-0.8377-0.0155-1.6755-0.0311-2.5386-0.047-0.8062-0.015-1.6123-0.03-2.4429-0.0454-9.2917-0.16219-18.582-0.12952-27.875-0.0997-10.403 0.0303-20.794-0.0837-31.195-0.30458-17.986-0.38165-35.96-0.43107-53.949-0.39875-21.759 0.039-43.509-0.0782-65.266-0.37347-13.731-0.18633-27.459-0.35377-41.191-0.34447-0.84037 5.2e-4 -0.84037 5.2e-4 -1.6977 9.5e-4 -5.2835 4e-3 -10.567 0.0161-15.85 0.0401-8.8526 0.0394-17.702 0.0477-26.552-0.23697-0.6673-0.0157-1.3346-0.0314-2.0221-0.0474-5.395-0.21409-9.5851-1.6032-14.27-4.3555-0.58839-0.34158-1.1768-0.68318-1.783-1.0351-0.91455-0.53897-0.91455-0.53897-1.8476-1.0888-3.9491-2.305-7.8889-4.5698-11.978-6.6167-4.6804-2.3522-8.3365-5.0393-12.089-8.7104-1.6164-1.6254-1.6164-1.6254-3.4266-2.9887-1.7702-1.4507-3.0803-2.9444-4.4872-4.7455-0.66769-0.84673-0.66769-0.84673-1.3489-1.7106-0.47386-0.62732-0.9477-1.2546-1.4359-1.901-0.56539-0.71167-1.1308-1.4233-1.7133-2.1566-2.3404-3.3123-3.6334-7.0125-4.9876-10.81-0.27321-0.7654-0.54643-1.5308-0.82791-2.3194-2.4231-7.0848-3.8904-14.135-4.3065-21.612-0.0427-0.71615-0.0855-1.4323-0.12951-2.1702-0.2341-7.6962 1.0243-15.063 2.3561-22.62 0.3848-2.1913 0.75247-4.385 1.1184-6.5795 0.24375-1.4188 0.48847-2.8375 0.73427-4.256 0.10745-0.64345 0.21491-1.2869 0.32562-1.9498 1.2625-7.0423 3.7956-13.342 7.2128-19.6 0.61917-1.154 1.2383-2.3079 1.8574-3.4619 0.30905-0.57178 0.61811-1.1436 0.93652-1.7327 0.84501-1.5697 1.6786-3.1446 2.5064-4.7234 3.5198-6.7131 7.172-13.347 10.867-19.965 2.5189-4.5118 4.958-9.0371 7.242-13.673 2.0526-4.146 4.2734-8.1677 6.5635-12.186 1.487-2.6202 2.9045-5.2516 4.2275-7.9598 2.2762-4.6468 4.7822-9.1618 7.2723-13.696 2.4744-4.516 4.8872-9.0598 7.2607-13.629 2.52-4.8501 5.1253-9.6367 7.8327-14.384 1.8569-3.2711 3.5463-6.6031 5.1992-9.9823 1.5912-3.12 3.3334-6.1491 5.0664-9.1919 1.548-2.7312 3.0174-5.4785 4.3974-8.2999 1.6246-3.3214 3.3926-6.5353 5.2214-9.7467 1.7794-3.1267 3.5112-6.2516 5.0909-9.4856 1.9012-3.8805 3.9652-7.659 6.0482-11.444 3.7425-6.8019 7.3343-13.675 10.863-20.59 2.1004-4.0923 4.2974-8.0753 6.6968-12 1.0535-1.7543 1.9683-3.5495 2.8473-5.3968 1.6693-3.4087 3.4734-6.7121 5.352-10.008 1.8291-3.2112 3.5968-6.4253 5.2214-9.7467 1.6246-3.3214 3.3927-6.5353 5.2214-9.7467 2.1718-3.8182 4.22-7.6656 6.157-11.61 3.3459-6.7155 6.7959-13.404 10.639-19.85 2.1451-3.6003 4.0001-7.3043 5.8446-11.063 1.7471-3.5351 3.6843-6.916 5.7079-10.301 1.4453-2.5356 2.7397-5.1258 4.0248-7.7452 2.0137-4.1005 4.1735-8.0624 6.516-11.988 1.0951-1.8565 2.1266-3.7347 3.1438-5.6348 2.4092-4.4479 5.0009-8.7747 7.6459-13.085 0.7548-1.25 1.4791-2.5133 2.1987-3.7839 3.5582-6.1051 8.0348-10.566 13.309-15.237 3.6423-3.2668 6.7808-6.8975 9.6107-10.883 7.0528-9.5287 21.251-18.769 33.222-18.945zm-3.9378 220.88c-0.8553 0.23692-1.7105 0.47385-2.5917 0.71795-24.902 7.6224-44.699 25.678-56.846 48.407-8.1159 15.784-11.734 32.278-11.748 49.995-4.7e-4 0.53049-6.7e-4 1.061-9.5e-4 1.6076 0.0115 7.9143 0.34559 15.49 2.264 23.194 0.11581 0.50076 0.23151 1.0015 0.35086 1.5175 5.6021 23.985 20.242 47.683 41.217 61.154 0.7566 0.455 1.5131 0.91 2.2925 1.3788 0.4222 0.26149 0.8443 0.52297 1.2792 0.79239 18.901 11.649 42.762 16.098 64.552 11.021 0.7907-0.22257 1.5813-0.44513 2.3958-0.67444 0.8553-0.23693 1.7106-0.47385 2.5918-0.71795 24.902-7.6224 44.699-25.678 56.846-48.407 8.1158-15.784 11.734-32.278 11.748-49.995 5e-4 -0.5305 7e-4 -1.061 9e-4 -1.6076-0.011-7.9143-0.3455-15.49-2.264-23.194-0.1158-0.50077-0.2315-1.0015-0.3509-1.5175-5.602-23.985-20.242-47.683-41.217-61.154-0.7565-0.45501-1.513-0.91001-2.2925-1.3788-0.4222-0.26149-0.8443-0.52298-1.2792-0.79239-19.459-11.993-44.702-16.609-66.948-10.347z" fill="#8ebef9" style="fill:#fff;stroke-width:.69619"/>
  <path class="main-color" d="m1244.2 470.32c24.957-0.59868 47.847 9.6512 65.777 26.542 0.4623 0.41732 0.9245 0.83462 1.4007 1.2646 4.7667 4.4766 9.8193 10.381 12.572 16.369 0.563 1.2865 0.563 1.2865 1.9826 1.7595 4.9359 2.7134 7.2567 13.662 8.9771 18.767 0.2017 0.59753 0.4034 1.195 0.6113 1.8107 2.5698 7.8865 3.2139 15.024 2.9132 23.296-0.025 0.76211-0.025 0.76211-0.051 1.5396-0.6482 18.48-5.54 39.995-17.267 54.939-0.6892 0.22974-1.3784 0.4595-2.0885 0.6962-0.2154 0.56-0.4307 1.12-0.6527 1.697-0.8925 2.1524-1.4977 2.2263-3.5245 3.1764-0.192 0.41012-0.3841 0.82025-0.582 1.2428-3.926 7.47-16.924 15.704-24.481 18.947-1.5061 0.17134-1.5061 0.17134-3.163 0.16744-0.6306 2e-3 -1.2612 4e-3 -1.911 6e-3 -1.0298-8e-3 -1.0298-8e-3 -2.0804-0.0152-1.0904 3e-4 -1.0904 3e-4 -2.2029 6.2e-4 -2.4034-7e-4 -4.8066-0.0119-7.21-0.0227-1.6662-3e-3 -3.3324-5e-3 -4.9985-7e-3 -4.3858-6e-3 -8.7716-0.019-13.157-0.0344-4.4753-0.0143-8.9505-0.0206-13.426-0.0276-8.7812-0.015-17.562-0.0384-26.344-0.068v-1.3924c-0.6829 0.0727-1.3659 0.14538-2.0696 0.22028-10.306 0.75589-16.552-3.8368-24.212-10.228-1.4726-1.2819-2.916-2.5925-4.3512-3.9161-0.9881-0.90192-0.9881-0.90192-1.9962-1.8221-14.52-13.862-23.259-32.123-26.548-51.785-0.093-0.53038-0.1848-1.0608-0.2801-1.6072-2.3288-16.365 1.1364-32.645 7.3753-47.741 0.6776-1.5874 0.6776-1.5874 0.824-3.8671 0.5005-2.8525 1.408-4.419 3.2199-6.6574 1.0338-0.34462 1.0338-0.34462 2.0886-0.6962 1.1632-1.517 2.2429-3.0287 3.3069-4.6123 2.565-3.7083 5.1815-6.966 8.5284-10.008 0.5313-0.54565 1.0626-1.0913 1.6099-1.6535 0.6175-0.60307 1.2349-1.2062 1.8711-1.8275 0.4684-0.45769 0.9369-0.91538 1.4195-1.387 15.714-14.792 36.827-22.01 58.119-23.066z" fill="#2858c5" style="fill:#fff;stroke-width:.69619"/>
 </g>
</svg>
