<?xml version="1.0" encoding="UTF-8"?>
<svg version="1.1" viewBox="0 0 1024 1024" xmlns="http://www.w3.org/2000/svg">
 <defs>
  <linearGradient id="paint0_linear_38_393" x1=".44808" x2="131.09" y1="46.455" y2="46.455" gradientUnits="userSpaceOnUse">
   <stop stop-color="#788CF3" offset="0"/>
   <stop stop-color="#57ABF6" offset=".25"/>
   <stop stop-color="#39CAFA" offset=".51"/>
   <stop stop-color="#39CAFA" offset=".86"/>
  </linearGradient>
  <radialGradient id="paint1_radial_38_393" cx="0" cy="0" r="1" gradientTransform="translate(6.505 4.0832) scale(36.988)" gradientUnits="userSpaceOnUse">
   <stop stop-color="#00BAE6" offset=".1"/>
   <stop stop-color="#0084E7" offset=".78"/>
  </radialGradient>
  <radialGradient id="paint2_radial_38_393" cx="0" cy="0" r="1" gradientTransform="translate(125.03 4.0834) rotate(180) scale(36.988)" gradientUnits="userSpaceOnUse">
   <stop stop-color="#788CF3" offset=".14"/>
   <stop stop-color="#587EEF" offset=".46"/>
   <stop stop-color="#1A65E8" offset="1"/>
  </radialGradient>
  <linearGradient id="paint3_linear_38_393" x1="19.471" x2="112.07" y1="48.035" y2="48.035" gradientUnits="userSpaceOnUse">
   <stop stop-color="#788CF3" offset="0"/>
   <stop stop-color="#57ABF6" offset=".25"/>
   <stop stop-color="#39CAFA" offset=".51"/>
   <stop stop-color="#39CAFA" offset=".86"/>
  </linearGradient>
  <linearGradient id="paint4_linear_38_393" x1="27.835" x2="103.71" y1="65.452" y2="65.452" gradientUnits="userSpaceOnUse">
   <stop stop-color="#679BF5" offset="0"/>
   <stop stop-color="#529DF4" offset=".19"/>
   <stop stop-color="#34A2F3" offset=".51"/>
   <stop stop-color="#4DAFF7" offset=".86"/>
  </linearGradient>
  <clipPath id="clip0_38_393">
   <rect transform="translate(0 .35938)" width="500" height="92.497" fill="#fff"/>
  </clipPath>
 </defs>
 <circle cx="512" cy="512" r="512" style="fill:#9abeff"/>
 <g transform="matrix(3.9373 0 0 3.9373 253.04 328.49)" style="fill:none">
  <g clip-path="url(#clip0_38_393)">
   <path d="m43.026 92.309h-0.0808c-3.7688-0.1346-7.053-1.4178-9.754-3.7868-1.8843-1.7498-3.6072-4.1546-5.1058-7.1517l-0.0269-0.0538c-0.1166-0.2423-0.2512-0.5205-0.3858-0.8076-2.7818-5.9403-5.402-12.464-6.9633-16.367-0.4038-1.023-0.7358-1.8395-0.9781-2.4408l-0.1167-0.2781-17.857-39.976c-1.6331-3.6521-1.7408-7.726-0.31406-11.459 1.4268-3.7329 4.2264-6.6851 7.8786-8.3182 1.9472-0.87041 4.0021-1.3101 6.1018-1.3101 1.8216 0 3.6252 0.33201 5.3571 0.99604 3.7329 1.4268 6.6941 4.2264 8.3182 7.8786l13.846 31.012 9.081-20.235c2.4048-5.393 7.7709-8.8746 13.684-8.8746h0.1346c5.9044 0 11.27 3.4816 13.675 8.8656l9.081 20.235 13.846-31.012c1.633-3.6521 4.585-6.4518 8.318-7.8786 1.723-0.65505 3.526-0.98706 5.348-0.98706 2.1 0 4.155 0.43969 6.093 1.3101 3.652 1.6331 6.452 4.5854 7.878 8.3182 1.427 3.7329 1.319 7.8068-0.314 11.459l-17.91 40.129-0.054 0.1346c-0.243 0.6012-0.575 1.4178-0.969 2.4138-1.571 3.9303-4.182 10.454-6.973 16.394-0.134 0.2871-0.269 0.5563-0.403 0.8345-1.517 3.033-3.231 5.4378-5.1242 7.1876-2.683 2.3689-5.9762 3.6431-9.754 3.7867h-0.0807c-4.37-0.0897-8.6144-2.0459-11.396-5.2404-0.9063-1.0947-1.696-2.351-2.36-3.7329l-0.0718-0.1615c-0.6012-1.3729-4.6751-10.633-8.4169-19.068l-0.5025-1.1216-0.5026 1.1216c-4.0469 9.1259-8.4887 19.23-8.4887 19.23-0.655 1.364-1.4537 2.6292-2.36 3.7239-2.7727 3.1856-7.0261 5.1417-11.351 5.2315l0.2333 0.1794-0.5204 0.0628 0.2422-0.2422z" fill="url(#paint0_linear_38_393)" style="fill:#fff"/>
   <path d="m26.291 65.29c4.2084 0 6.3261-2.3959 8.4887-7.2684l8.1567-18.189-13.586-30.437c-3.4367-7.6901-12.446-11.145-20.136-7.7081-7.6901 3.4278-11.145 12.446-7.7081 20.136l17.964 40.245c1.4717 2.1266 4.038 3.2214 6.8198 3.2214z" fill="url(#paint1_radial_38_393)" style="fill:#fff"/>
   <path d="m105.25 65.29c-4.208 0-6.326-2.3959-8.4886-7.2684l-8.1567-18.189 13.594-30.446c3.428-7.6901 12.446-11.136 20.136-7.7081s11.136 12.446 7.708 20.136l-17.964 40.245c-1.472 2.1267-4.038 3.2214-6.82 3.2214z" fill="url(#paint2_radial_38_393)" style="fill:#fff"/>
   <path d="m105.25 65.3c-4.208 0-6.326-2.3959-8.4886-7.2684l-16.995-37.867c-2.5395-5.6891-8.1388-9.054-13.989-9.0271-5.8506-0.0269-11.45 3.338-13.989 9.0271l-16.995 37.867c-2.1626 4.8636-4.2803 7.2684-8.4887 7.2684-2.7818 0-5.3481-1.0947-6.8198-3.2214 1.2114 2.9522 4.4418 11.342 7.9504 18.817 0.1346 0.2872 0.2692 0.5653 0.4038 0.8345v-0.0089c1.4985 2.0369 4.2623 3.2124 6.9812 3.2124 4.2085 0 6.3262-2.3959 8.4888-7.2684 0 0 10.813-24.138 14.42-32.187 0.9781-2.1805 3.2035-7.4478 8.0581-7.4478 4.8545 0 6.9812 5.0429 8.058 7.4478 3.6073 8.049 14.42 32.187 14.42 32.187 2.1625 4.8636 4.2802 7.2684 8.4887 7.2684 2.7189 0 5.4826-1.1755 6.9816-3.2124v0.0089c0.134-0.2692 0.269-0.5473 0.403-0.8345 3.509-7.4747 6.73-15.865 7.951-18.817-1.472 2.1267-4.038 3.2214-6.82 3.2214z" fill="url(#paint3_linear_38_393)" style="fill:#fff"/>
   <path d="m103.71 81.738c-1.624 3.2483-3.383 5.5903-5.1778 7.2593-2.683 2.36-5.9672 3.706-9.9424 3.8586h-0.1256c-4.3431-0.0898-8.6413-1.9831-11.558-5.3302-0.9243-1.1216-1.7319-2.3958-2.3959-3.7867 0 0-4.6213-10.508-8.731-19.777v0.018-0.018c-4.1098 9.2695-8.731 19.777-8.731 19.777-0.673 1.3998-1.4717 2.674-2.3959 3.7867-2.9163 3.3381-7.2145 5.2404-11.558 5.3302h-0.1257c-3.9751-0.1436-7.2594-1.4896-9.9424-3.8586-1.7946-1.669-3.5534-4.011-5.1776-7.2593 1.4986 2.0369 4.2624 3.2034 6.9723 3.2034 4.2085 0 6.3262-2.3958 8.4887-7.2683 0 0 10.813-24.138 14.42-32.187 1.0768-2.4048 3.2125-7.4478 8.058-7.4478 4.8456 0 6.9813 5.043 8.0581 7.4478 3.6072 8.0491 14.42 32.187 14.42 32.187 2.1625 4.8635 4.2802 7.2683 8.4887 7.2683 2.7189 0 5.4825-1.1755 6.9725-3.2034z" fill="url(#paint4_linear_38_393)" style="fill:#fff"/>
  </g>
 </g>
</svg>
