<?xml version="1.0" encoding="UTF-8"?>
<svg version="1.1" viewBox="0 0 1024 1024" xmlns="http://www.w3.org/2000/svg">
 <circle cx="512" cy="512" r="512" style="fill:#96dfd3"/>
 <g transform="matrix(15.889 0 0 15.889 240.84 243.47)" fill="#1bb394" style="fill:none">
  <path d="m11.47 27.047-0.0117 0.0117c-0.0083 0.0083-0.015 0.015-0.0216 0.0233-0.0734 0.0767-0.1451 0.1485-0.2202 0.2202-0.0033 0.0033-0.01 0.0083-0.0133 0.0116-0.06 0.0567-0.1201 0.1134-0.1818 0.1651-0.0117 0.0117-0.0233 0.0217-0.035 0.03-0.0234 0.0217-0.0484 0.0417-0.0734 0.0634-0.0533 0.0467-0.1084 0.0901-0.1651 0.1334-5e-3 0.0034-0.0117 0.0084-0.015 0.0134-0.0317 0.0233-0.0634 0.0483-0.095 0.0733-0.0868 0.0634-0.1751 0.1268-0.2652 0.1902-0.0684 0.0467-0.1401 0.0917-0.2118 0.135-0.1484 0.0934-0.30016 0.1801-0.45692 0.2585-0.04669 0.025-0.09172 0.0484-0.14008 0.0701-0.0467 0.0233-0.09339 0.0433-0.14175 0.065-0.00834 0.0033-0.01501 0.0083-0.02335 0.0117-0.04002 0.0167-0.08004 0.0367-0.12007 0.0517-0.04836 0.0216-0.09672 0.04-0.14508 0.06-0.32686 0.1284-0.66372 0.2318-1.0139 0.3052-0.0467 0.01-0.09339 0.0183-0.13842 0.0267-0.1801 0.035-0.36021 0.0617-0.54365 0.08-0.05169 5e-3 -0.10339 0.01-0.15509 0.0134-0.01 0.0016-0.02168 0.0016-0.03168 0.0016-0.09172 0.0084-0.18344 0.0134-0.27683 0.015-0.06671 0.0017-0.13508 0.0034-0.20512 0.0034-0.09339 0-0.18678-0.0017-0.2785-5e-3 -0.07337-0.0034-0.14508-0.0084-0.21679-0.0134-0.08171-5e-3 -0.16509-0.0133-0.24514-0.0233-0.07004-0.0084-0.14175-0.0167-0.21179-0.0284-0.11674-0.0167-0.2318-0.0367-0.34687-0.06-0.07504-0.015-0.14842-0.0334-0.2218-0.0517-0.03001-5e-3 -0.0617-0.0133-0.09005-0.0217-0.07671-0.0183-0.15175-0.04-0.22513-0.0634-0.07838-0.0233-0.15509-0.0483-0.2318-0.0733-0.01167-0.0034-0.02168-0.0084-0.03169-0.0117-0.08171-0.0284-0.16176-0.0567-0.2418-0.0884-0.01334-5e-3 -0.02669-0.0117-0.04003-0.0167-0.07838-0.03-0.15509-0.0633-0.2318-0.0967-0.08338-0.0367-0.16676-0.075-0.24848-0.1167-0.08671-0.0417-0.17009-0.0867-0.25514-0.1318-0.07672-0.0417-0.15176-0.0867-0.22347-0.13-0.22179-0.1335-0.43525-0.2835-0.64037-0.4436-0.02335-0.0167-0.04503-0.0367-0.07004-0.0551-0.03836-0.03-0.07504-0.0617-0.11006-0.0917-0.03669-0.0317-0.07505-0.0634-0.1084-0.095-0.05003-0.0417-0.09672-0.0868-0.14509-0.1318-0.23513-0.2218-0.45526-0.4603-0.65371-0.7154-0.04002-0.05-0.08005-0.1017-0.1184-0.1551-0.11507-0.1551-0.2218-0.3168-0.32352-0.4819-0.37689-0.6221-0.65205-1.3108-0.8038-2.0446-0.010006-0.0517-0.021679-0.105-0.030017-0.1567-0.068373-0.3702-0.10339-0.7521-0.10339-1.1424l0.005003-13.263v-0.08339c0-0.1184 0.003335-0.23513 0.013341-0.35187 0.003336-0.05503 0.010006-0.10839 0.015009-0.16509 0-0.01501 0.001668-0.02835 0.003335-0.04169 0.005003-0.0467 0.011674-0.09006 0.018344-0.13508 0.011674-0.08005 0.026682-0.15843 0.041691-0.23514 0.016677-0.07671 0.035021-0.15342 0.055032-0.23014 0.018344-0.07671 0.041691-0.15175 0.065038-0.22513 0.023347-0.07337 0.048362-0.14341 0.075044-0.21179 0.003335-0.01334 0.008338-0.02501 0.013341-0.03669 0.016676-0.04836 0.036688-0.09505 0.056699-0.14341 0.023347-0.05337 0.046694-0.10506 0.070041-0.15676 0.016677-0.04002 0.036688-0.07838 0.0567-0.11674 0.021679-0.04669 0.043358-0.09005 0.068373-0.13341 0.031685-0.06003 0.066705-0.1184 0.10173-0.17843 0.8038-1.3224 2.2563-2.2063 3.9139-2.2063 2.5231 0 4.5693 2.0462 4.5693 4.5677l-0.00333 7.481v0.0084l-0.00167 4.7528c0 0.6587-0.0517 1.3457-0.01668 2.0028-0.00167 0.0133-0.00167 0.0283-0.00167 0.0417 0 0.0734 0.00167 0.1467 0.00834 0.2184 0.00334 0.0668 0.00834 0.1335 0.01501 0.2002 0.01334 0.1334 0.03335 0.2634 0.06004 0.3935 0.01 0.0467 0.01834 0.0917 0.03168 0.1384 0.02168 0.0884 0.04336 0.1735 0.07338 0.2602 0.00333 0.0167 0.01 0.035 0.01667 0.0534 0.05003 0.1484 0.1084 0.2951 0.17511 0.4352 0.01667 0.0384 0.03668 0.0767 0.05503 0.1134 5e-3 0.0134 0.01167 0.025 0.02168 0.0384 0.02168 0.0417 0.04169 0.0817 0.0667 0.1217 0.01334 0.0267 0.02835 0.0534 0.04667 0.08 0.025 0.0401 0.0501 0.0801 0.0751 0.1185 5e-3 0.0083 0.0116 0.0166 0.0166 0.0266 0.0267 0.0401 0.0517 0.0767 0.0801 0.1151 0.0183 0.0284 0.0383 0.055 0.06 0.0817 0.1118 0.1468 0.2318 0.2852 0.3619 0.4153 0.0284 0.0283 0.0567 0.0567 0.0884 0.0833 0.0267 0.0267 0.0534 0.0517 0.08 0.0751 0.0117 0.0133 0.025 0.025 0.0384 0.035 0.03 0.0267 0.06 0.0517 0.0917 0.0784 0.0367 0.03 0.0751 0.06 0.1134 0.0884 0.0467 0.0367 0.0934 0.07 0.1418 0.1034 0.0983 0.0717 0.2034 0.1367 0.3118 0.1984z" style="fill:#fff"/>
  <path d="m23.649 27.047c-0.0034 0.0033-0.0084 0.0083-0.0117 0.0116-0.0083 0.0084-0.015 0.015-0.0217 0.0234-0.0734 0.0767-0.1451 0.1484-0.2201 0.2201-0.0033 0.0033-0.01 0.0083-0.0133 0.0117-0.0601 0.0567-0.1201 0.1134-0.1818 0.1651-0.0117 0.0117-0.0234 0.0217-0.035 0.03-0.0234 0.0217-0.0484 0.0417-0.0734 0.0634-0.0534 0.0467-0.1084 0.09-0.1651 0.1334-5e-3 0.0033-0.0117 0.0083-0.015 0.0133-0.0317 0.0234-0.0634 0.0484-0.0951 0.0734-0.0867 0.0634-0.1751 0.1267-0.2651 0.1901-0.0684 0.0467-0.1401 0.0917-0.2118 0.1351-0.1484 0.0934-0.3002 0.1801-0.4569 0.2585-0.0467 0.025-0.0918 0.0483-0.1401 0.07-0.0467 0.0234-0.0934 0.0434-0.1418 0.065-0.0083 0.0034-0.015 0.0084-0.0233 0.0117-0.04 0.0167-0.0801 0.0367-0.1201 0.0517-0.0484 0.0217-0.0967 0.04-0.1451 0.0601-0.3268 0.1284-0.6637 0.2318-1.0139 0.3051-0.0467 0.01-0.0934 0.0184-0.1384 0.0267-0.1801 0.035-0.3602 0.0617-0.5437 0.0801-0.0517 5e-3 -0.1034 0.01-0.1551 0.0133-0.01 0.0017-0.0216 0.0017-0.0316 0.0017-0.0918 0.0083-0.1835 0.0133-0.2769 0.015-0.0667 0.0016-0.135 0.0033-0.2051 0.0033-0.0934 0-0.1868-0.0017-0.2785-5e-3 -0.0734-0.0033-0.1451-0.0083-0.2168-0.0133-0.0817-5e-3 -0.1651-0.0134-0.2451-0.0234-0.0701-0.0083-0.1418-0.0167-0.2118-0.0283-0.1167-0.0167-0.2318-0.0367-0.3469-0.0601-0.075-0.015-0.1484-0.0333-0.2218-0.0517-0.03-5e-3 -0.0617-0.0133-0.09-0.0216-0.0767-0.0184-0.1518-0.0401-0.2252-0.0634-0.0783-0.0234-0.155-0.0484-0.2318-0.0734-0.0116-0.0033-0.0216-0.0083-0.0316-0.0117-0.0818-0.0283-0.1618-0.0567-0.2419-0.0883-0.0133-5e-3 -0.0266-0.0117-0.04-0.0167-0.0784-0.03-0.1551-0.0634-0.2318-0.0967-0.0834-0.0367-0.1667-0.0751-0.2485-0.1168-0.0867-0.0417-0.1701-0.0867-0.2551-0.1317-0.0767-0.0417-0.1518-0.0867-0.2235-0.1301-0.2218-0.1334-0.4352-0.2835-0.6403-0.4436-0.0234-0.0167-0.0451-0.0367-0.0701-0.055-0.0383-0.03-0.075-0.0617-0.11-0.0917-0.0367-0.0317-0.0751-0.0634-0.1084-0.0951-0.0501-0.0417-0.0968-0.0867-0.1451-0.1317-0.2352-0.2218-0.4553-0.4603-0.6537-0.7155-0.0401-0.05-0.0801-0.1017-0.1184-0.155-0.1151-0.1551-0.2218-0.3169-0.3236-0.482-0.3768-0.622-0.652-1.3108-0.8038-2.0445-0.01-0.0517-0.0216-0.1051-0.03-0.1568-0.0684-0.3702-0.1034-0.7521-0.1034-1.1423l5e-3 -13.263v-0.08338c0-0.1184 0.0034-0.23514 0.0134-0.35187 0.0033-0.05504 0.01-0.1084 0.015-0.1651 0-0.01501 0.0016-0.02835 0.0033-0.04169 5e-3 -0.0467 0.0117-0.09005 0.0184-0.13508 0.0116-0.08005 0.0266-0.15843 0.0417-0.23514 0.0166-0.07671 0.035-0.15342 0.055-0.23013 0.0183-0.07671 0.0417-0.15176 0.065-0.22513 0.0234-0.07338 0.0484-0.14342 0.0751-0.2118 0.0033-0.01334 0.0083-0.02501 0.0133-0.03668 0.0167-0.04836 0.0367-0.09506 0.0567-0.14342 0.0234-0.05336 0.0467-0.10506 0.07-0.15676 0.0167-0.04002 0.0367-0.07838 0.0567-0.11673 0.0217-0.0467 0.0434-0.09006 0.0684-0.13341 0.0317-0.06004 0.0667-0.11841 0.1017-0.17844 0.7988-1.3208 2.2514-2.2046 3.909-2.2046 2.5231 0 4.5693 2.0462 4.5693 4.5677l-0.0033 7.4811v0.0083l-0.0017 4.7528c0 0.6587-0.0517 1.3458-0.0167 2.0028-0.0016 0.0133-0.0016 0.0284-0.0016 0.0417 0 0.0734 0.0016 0.1467 0.0083 0.2185 0.0033 0.0667 0.0083 0.1334 0.015 0.2001 0.0133 0.1334 0.0334 0.2635 0.06 0.3935 0.01 0.0467 0.0184 0.0918 0.0317 0.1385 0.0217 0.0883 0.0434 0.1734 0.0734 0.2601 0.0033 0.0167 0.01 0.035 0.0167 0.0534 0.05 0.1484 0.1084 0.2951 0.1751 0.4352 0.0167 0.0384 0.0367 0.0767 0.055 0.1134 5e-3 0.0134 0.0117 0.025 0.0217 0.0384 0.0217 0.0417 0.0417 0.0817 0.0667 0.1217 0.0133 0.0267 0.0284 0.0534 0.0467 0.0801 0.025 0.04 0.05 0.08 0.075 0.1184 5e-3 0.0083 0.0117 0.0166 0.0167 0.0266 0.0267 0.0401 0.0517 0.0768 0.0801 0.1151 0.0183 0.0284 0.0383 0.055 0.06 0.0817 0.1117 0.1468 0.2318 0.2852 0.3619 0.4153 0.0283 0.0283 0.0567 0.0567 0.0884 0.0834 0.0266 0.0266 0.0533 0.0517 0.08 0.075 0.0117 0.0133 0.025 0.025 0.0384 0.035 0.03 0.0267 0.06 0.0517 0.0917 0.0784 0.0367 0.03 0.075 0.06 0.1134 0.0884 0.0467 0.0367 0.0934 0.07 0.1417 0.1034 0.1034 0.07 0.2085 0.1351 0.3169 0.1968z" style="fill:#fff"/>
  <path d="m29.244 26.018c-2.5215 0-4.566-2.0445-4.566-4.566v-12.165c0-2.5215 2.0445-4.566 4.566-4.566s4.566 2.0445 4.566 4.566v12.164c0 2.5232-2.0445 4.5677-4.566 4.5677z" style="fill:#fff"/>
 </g>
</svg>
