<?xml version="1.0" encoding="UTF-8"?>
<svg version="1.1" viewBox="0 0 1024 1024" xmlns="http://www.w3.org/2000/svg">
 <circle cx="512" cy="512" r="512" style="fill:#71a372"/>
 <path class="st0" d="m481.32 258.8c-19.017 2.3716-43.472 8.0768-58.909 14.095-17.138 6.4883-38.169 16.959-38.169 19.017 0 1.2753 3.7363 2.3716 9.8219 3.0204 21.814 2.5282 62.332 19.801 98.958 41.816 8.8822 5.392 17.608 9.8219 19.174 9.8219 1.7227 0 10.292-4.4299 19.017-9.8219 20.874-12.82 55.329-29.779 71.215-35.171 7.1595-2.3716 18.391-5.0787 25.081-6.175 8.0991-1.1187 12.305-2.5282 12.305-3.8035 0-4.5866-36.312-20.27-61.549-26.602-33.202-8.4124-63.742-10.314-96.944-6.1974zm-150.68 73.81c-41.615 43.091-64.212 89.807-71.841 149.68-3.5798 27.877-2.64 51.638 3.2665 82.043 5.7724 29.309 19.017 62.243 34.589 85.534 10.292 15.527 11.992 15.371 13.245-1.2754 4.8327-62.399 52.51-148.11 131.82-236.17 6.8463-7.7635 12.619-15.057 12.619-15.997 0-2.215-23.693-25.662-41.145-40.876-23.38-20.27-53.763-39.131-62.646-39.131-3.4007 0.0448-7.7635 3.6692-19.912 16.198zm331.44-11.567c-19.8 9.6653-46.447 29.936-72.154 55.128-10.292 9.9786-18.704 19.331-18.704 20.584 0 1.2529 7.6293 10.941 16.981 21.546 67.322 76.182 110.01 148.9 123.26 209.73 1.7227 7.7635 3.1099 18.369 3.1099 23.761 0 8.8598 0.31321 9.9785 2.9533 9.9785 3.5798 0 17.764-22.172 26.647-41.973 18.078-39.444 24.454-72.221 22.91-117.53-1.5661-52.421-15.572-95.356-44.411-136.54-13.245-19.017-42.375-49.266-47.365-49.266-1.9912 0-7.9202 2.0584-13.223 4.5865zm-167.2 139.86c-36.938 32.621-85.713 83.945-113.43 119.59-29.443 37.699-61.079 88.711-61.079 98.197 0 3.0204 16.355 19.957 31.166 32.464 52.041 43.718 127.62 63.988 198.68 53.383 54.86-8.2334 104.71-33.583 146.17-74.123 6.3988-6.175 7.316-7.9202 7.316-13.625-0.15655-29.153-56.403-101.37-149.43-191.83-25.237-24.544-39.265-37.073-41.458-37.073-1.8794 0.0448-9.5087 5.5934-17.921 13.021z" style="fill:#fff;stroke-width:.22373"/>
 <style type="text/css">.st0{fill:#177D3E;}
	.st1{fill-rule:evenodd;clip-rule:evenodd;fill:#696969;}</style>
</svg>
