<?xml version="1.0" encoding="UTF-8"?>
<svg version="1.1" viewBox="0 0 1024 1024" xmlns="http://www.w3.org/2000/svg">
 <circle cx="512" cy="512" r="512" style="fill:#728dbe"/>
 <path d="m512.11 256.52-232.49 183.73v82.18c72.174-42.58 238.88-109.01 314.46-127.95 2.129-0.42582 3.4064 0 4.6838 1.7032l40.877 48.967a2.7677 2.7677 0 0 1-0.63871 4.258 928.25 928.25 0 0 0-142.01 138.81c-0.6387 0.85159 0 0.85159 0.21299 0.6387a1633.6 1633.6 0 0 1 247.39-73.451v-75.154zm-10.219 238.02c-45.348 14.903-174.58 70.257-222.48 97.296v175.64h465.19v-169.04c-63.658 10.858-253.35 67.277-339.79 111.77a3.8322 3.8322 0 0 1-4.8967-0.85159l-43.432-51.735c-1.2774-1.2774-1.2774-2.129 0.21299-4.258 33.426-48.967 101.98-125.61 145.41-157.97 1.0645-0.6387 0.63869-1.2774 0-0.85159z" fill="#006aff" style="fill:#fff;stroke-width:21.29"/>
</svg>
